<ttFont>
    <TTGlyph name="A" xMin="18" yMin="0" xMax="531" yMax="625">
      <contour>
        <pt x="425" y="0" on="1"/>
        <pt x="391" y="137" on="1"/>
        <pt x="157" y="137" on="1"/>
        <pt x="124" y="0" on="1"/>
        <pt x="18" y="0" on="1"/>
        <pt x="180" y="625" on="1"/>
        <pt x="369" y="625" on="1"/>
        <pt x="531" y="0" on="1"/>
      </contour>
      <contour>
        <pt x="254" y="533" on="1"/>
        <pt x="179" y="227" on="1"/>
        <pt x="369" y="227" on="1"/>
        <pt x="295" y="533" on="1"/>
      </contour>
    </TTGlyph>
    <TTGlyph name="AE" xMin="18" yMin="0" xMax="711" yMax="625">
      <contour>
        <pt x="619" y="351" on="1"/>
        <pt x="619" y="266" on="1"/>
        <pt x="462" y="266" on="1"/>
        <pt x="507" y="90" on="1"/>
        <pt x="711" y="90" on="1"/>
        <pt x="711" y="0" on="1"/>
        <pt x="425" y="0" on="1"/>
        <pt x="391" y="137" on="1"/>
        <pt x="157" y="137" on="1"/>
        <pt x="124" y="0" on="1"/>
        <pt x="18" y="0" on="1"/>
        <pt x="180" y="625" on="1"/>
        <pt x="661" y="625" on="1"/>
        <pt x="646" y="535" on="1"/>
        <pt x="392" y="535" on="1"/>
        <pt x="440" y="351" on="1"/>
      </contour>
      <contour>
        <pt x="254" y="533" on="1"/>
        <pt x="179" y="227" on="1"/>
        <pt x="369" y="227" on="1"/>
        <pt x="295" y="533" on="1"/>
      </contour>
    </TTGlyph>
    <TTGlyph name="AEacute" xMin="18" yMin="0" xMax="711" yMax="837">
      <contour>
        <pt x="619" y="351" on="1"/>
        <pt x="619" y="266" on="1"/>
        <pt x="462" y="266" on="1"/>
        <pt x="507" y="90" on="1"/>
        <pt x="711" y="90" on="1"/>
        <pt x="711" y="0" on="1"/>
        <pt x="425" y="0" on="1"/>
        <pt x="391" y="137" on="1"/>
        <pt x="157" y="137" on="1"/>
        <pt x="124" y="0" on="1"/>
        <pt x="18" y="0" on="1"/>
        <pt x="180" y="625" on="1"/>
        <pt x="661" y="625" on="1"/>
        <pt x="646" y="535" on="1"/>
        <pt x="392" y="535" on="1"/>
        <pt x="440" y="351" on="1"/>
      </contour>
      <contour>
        <pt x="254" y="533" on="1"/>
        <pt x="179" y="227" on="1"/>
        <pt x="369" y="227" on="1"/>
        <pt x="295" y="533" on="1"/>
      </contour>
      <contour>
        <pt x="447" y="833" on="1"/>
        <pt x="452" y="837" on="0"/>
        <pt x="459" y="837" on="0"/>
        <pt x="463" y="832" on="1"/>
        <pt x="507" y="778" on="1"/>
        <pt x="513" y="770" on="0"/>
        <pt x="513" y="763" on="0"/>
        <pt x="509" y="759" on="1"/>
        <pt x="479" y="734" on="1"/>
        <pt x="470" y="727" on="0"/>
        <pt x="457" y="724" on="1"/>
        <pt x="317" y="689" on="1"/>
        <pt x="295" y="723" on="1"/>
      </contour>
    </TTGlyph>
    <TTGlyph name="Aacute" xMin="18" yMin="0" xMax="531" yMax="822">
      <contour>
        <pt x="425" y="0" on="1"/>
        <pt x="391" y="137" on="1"/>
        <pt x="157" y="137" on="1"/>
        <pt x="124" y="0" on="1"/>
        <pt x="18" y="0" on="1"/>
        <pt x="180" y="625" on="1"/>
        <pt x="369" y="625" on="1"/>
        <pt x="531" y="0" on="1"/>
      </contour>
      <contour>
        <pt x="254" y="533" on="1"/>
        <pt x="179" y="227" on="1"/>
        <pt x="369" y="227" on="1"/>
        <pt x="295" y="533" on="1"/>
      </contour>
      <contour>
        <pt x="320" y="818" on="1"/>
        <pt x="325" y="822" on="0"/>
        <pt x="332" y="822" on="0"/>
        <pt x="336" y="817" on="1"/>
        <pt x="380" y="763" on="1"/>
        <pt x="386" y="755" on="0"/>
        <pt x="386" y="748" on="0"/>
        <pt x="382" y="744" on="1"/>
        <pt x="352" y="719" on="1"/>
        <pt x="343" y="712" on="0"/>
        <pt x="330" y="709" on="1"/>
        <pt x="190" y="674" on="1"/>
        <pt x="168" y="708" on="1"/>
      </contour>
    </TTGlyph>
    <TTGlyph name="Abreve" xMin="18" yMin="0" xMax="531" yMax="811">
      <contour>
        <pt x="425" y="0" on="1"/>
        <pt x="391" y="137" on="1"/>
        <pt x="157" y="137" on="1"/>
        <pt x="124" y="0" on="1"/>
        <pt x="18" y="0" on="1"/>
        <pt x="180" y="625" on="1"/>
        <pt x="369" y="625" on="1"/>
        <pt x="531" y="0" on="1"/>
      </contour>
      <contour>
        <pt x="254" y="533" on="1"/>
        <pt x="179" y="227" on="1"/>
        <pt x="369" y="227" on="1"/>
        <pt x="295" y="533" on="1"/>
      </contour>
      <contour>
        <pt x="257" y="765" on="0"/>
        <pt x="291" y="765" on="0"/>
        <pt x="321" y="789" on="0"/>
        <pt x="327" y="811" on="1"/>
        <pt x="392" y="800" on="1"/>
        <pt x="379" y="746" on="0"/>
        <pt x="317" y="692" on="0"/>
        <pt x="274" y="692" on="1"/>
        <pt x="179" y="692" on="0"/>
        <pt x="156" y="800" on="1"/>
        <pt x="221" y="811" on="1"/>
        <pt x="227" y="789" on="0"/>
      </contour>
    </TTGlyph>
    <TTGlyph name="Acircumflex" xMin="18" yMin="0" xMax="531" yMax="836">
      <contour>
        <pt x="425" y="0" on="1"/>
        <pt x="391" y="137" on="1"/>
        <pt x="157" y="137" on="1"/>
        <pt x="124" y="0" on="1"/>
        <pt x="18" y="0" on="1"/>
        <pt x="180" y="625" on="1"/>
        <pt x="369" y="625" on="1"/>
        <pt x="531" y="0" on="1"/>
      </contour>
      <contour>
        <pt x="254" y="533" on="1"/>
        <pt x="179" y="227" on="1"/>
        <pt x="369" y="227" on="1"/>
        <pt x="295" y="533" on="1"/>
      </contour>
      <contour>
        <pt x="265" y="836" on="1"/>
        <pt x="283" y="836" on="1"/>
        <pt x="288" y="836" on="0"/>
        <pt x="293" y="830" on="1"/>
        <pt x="407" y="714" on="1"/>
        <pt x="367" y="680" on="1"/>
        <pt x="274" y="744" on="1"/>
        <pt x="181" y="680" on="1"/>
        <pt x="141" y="714" on="1"/>
        <pt x="255" y="830" on="1"/>
        <pt x="260" y="836" on="0"/>
      </contour>
    </TTGlyph>
    <TTGlyph name="Adieresis" xMin="18" yMin="0" xMax="531" yMax="814">
      <contour>
        <pt x="425" y="0" on="1"/>
        <pt x="391" y="137" on="1"/>
        <pt x="157" y="137" on="1"/>
        <pt x="124" y="0" on="1"/>
        <pt x="18" y="0" on="1"/>
        <pt x="180" y="625" on="1"/>
        <pt x="369" y="625" on="1"/>
        <pt x="531" y="0" on="1"/>
      </contour>
      <contour>
        <pt x="254" y="533" on="1"/>
        <pt x="179" y="227" on="1"/>
        <pt x="369" y="227" on="1"/>
        <pt x="295" y="533" on="1"/>
      </contour>
      <contour>
        <pt x="131" y="723" on="0"/>
        <pt x="131" y="789" on="0"/>
        <pt x="151" y="814" on="0"/>
        <pt x="214" y="814" on="0"/>
        <pt x="234" y="789" on="0"/>
        <pt x="234" y="723" on="0"/>
        <pt x="214" y="699" on="0"/>
        <pt x="151" y="699" on="0"/>
      </contour>
      <contour>
        <pt x="314" y="723" on="0"/>
        <pt x="314" y="789" on="0"/>
        <pt x="334" y="814" on="0"/>
        <pt x="397" y="814" on="0"/>
        <pt x="417" y="789" on="0"/>
        <pt x="417" y="723" on="0"/>
        <pt x="397" y="699" on="0"/>
        <pt x="334" y="699" on="0"/>
      </contour>
    </TTGlyph>
    <TTGlyph name="Agrave" xMin="18" yMin="0" xMax="531" yMax="827">
      <contour>
        <pt x="425" y="0" on="1"/>
        <pt x="391" y="137" on="1"/>
        <pt x="157" y="137" on="1"/>
        <pt x="124" y="0" on="1"/>
        <pt x="18" y="0" on="1"/>
        <pt x="180" y="625" on="1"/>
        <pt x="369" y="625" on="1"/>
        <pt x="531" y="0" on="1"/>
      </contour>
      <contour>
        <pt x="254" y="533" on="1"/>
        <pt x="179" y="227" on="1"/>
        <pt x="369" y="227" on="1"/>
        <pt x="295" y="533" on="1"/>
      </contour>
      <contour>
        <pt x="137" y="749" on="1"/>
        <pt x="133" y="753" on="0"/>
        <pt x="133" y="760" on="0"/>
        <pt x="139" y="768" on="1"/>
        <pt x="183" y="822" on="1"/>
        <pt x="187" y="827" on="0"/>
        <pt x="194" y="827" on="0"/>
        <pt x="199" y="823" on="1"/>
        <pt x="351" y="713" on="1"/>
        <pt x="329" y="679" on="1"/>
        <pt x="189" y="714" on="1"/>
        <pt x="176" y="717" on="0"/>
        <pt x="167" y="724" on="1"/>
      </contour>
    </TTGlyph>
    <TTGlyph name="Amacron" xMin="18" yMin="0" xMax="531" yMax="792">
      <contour>
        <pt x="425" y="0" on="1"/>
        <pt x="391" y="137" on="1"/>
        <pt x="157" y="137" on="1"/>
        <pt x="124" y="0" on="1"/>
        <pt x="18" y="0" on="1"/>
        <pt x="180" y="625" on="1"/>
        <pt x="369" y="625" on="1"/>
        <pt x="531" y="0" on="1"/>
      </contour>
      <contour>
        <pt x="254" y="533" on="1"/>
        <pt x="179" y="227" on="1"/>
        <pt x="369" y="227" on="1"/>
        <pt x="295" y="533" on="1"/>
      </contour>
      <contour>
        <pt x="396" y="711" on="1"/>
        <pt x="198" y="711" on="1"/>
        <pt x="169" y="711" on="0"/>
        <pt x="153" y="730" on="0"/>
        <pt x="153" y="757" on="1"/>
        <pt x="153" y="792" on="1"/>
        <pt x="352" y="792" on="1"/>
        <pt x="381" y="792" on="0"/>
        <pt x="396" y="774" on="0"/>
        <pt x="396" y="747" on="1"/>
      </contour>
    </TTGlyph>
    <TTGlyph name="Aogonek" xMin="18" yMin="-165" xMax="535" yMax="625">
      <contour>
        <pt x="454" y="-45" on="1"/>
        <pt x="454" y="-66" on="1"/>
        <pt x="454" y="-100" on="0"/>
        <pt x="483" y="-100" on="1"/>
        <pt x="487" y="-100" on="0"/>
        <pt x="497" y="-98" on="1"/>
        <pt x="516" y="-93" on="1"/>
        <pt x="535" y="-144" on="1"/>
        <pt x="501" y="-165" on="0"/>
        <pt x="421" y="-165" on="0"/>
        <pt x="375" y="-117" on="0"/>
        <pt x="375" y="-81" on="1"/>
        <pt x="375" y="-23" on="0"/>
        <pt x="425" y="0" on="1"/>
        <pt x="391" y="137" on="1"/>
        <pt x="157" y="137" on="1"/>
        <pt x="124" y="0" on="1"/>
        <pt x="18" y="0" on="1"/>
        <pt x="180" y="625" on="1"/>
        <pt x="369" y="625" on="1"/>
        <pt x="531" y="0" on="1"/>
        <pt x="488" y="-5" on="1"/>
        <pt x="467" y="-11" on="0"/>
        <pt x="454" y="-25" on="0"/>
      </contour>
      <contour>
        <pt x="254" y="533" on="1"/>
        <pt x="179" y="227" on="1"/>
        <pt x="369" y="227" on="1"/>
        <pt x="295" y="533" on="1"/>
      </contour>
    </TTGlyph>
    <TTGlyph name="Aring" xMin="18" yMin="0" xMax="531" yMax="860">
      <contour>
        <pt x="425" y="0" on="1"/>
        <pt x="391" y="137" on="1"/>
        <pt x="157" y="137" on="1"/>
        <pt x="124" y="0" on="1"/>
        <pt x="18" y="0" on="1"/>
        <pt x="180" y="625" on="1"/>
        <pt x="369" y="625" on="1"/>
        <pt x="531" y="0" on="1"/>
      </contour>
      <contour>
        <pt x="254" y="533" on="1"/>
        <pt x="179" y="227" on="1"/>
        <pt x="369" y="227" on="1"/>
        <pt x="295" y="533" on="1"/>
      </contour>
      <contour>
        <pt x="176" y="712" on="0"/>
        <pt x="176" y="812" on="0"/>
        <pt x="223" y="860" on="0"/>
        <pt x="327" y="860" on="0"/>
        <pt x="373" y="812" on="0"/>
        <pt x="373" y="712" on="0"/>
        <pt x="327" y="663" on="0"/>
        <pt x="223" y="663" on="0"/>
      </contour>
      <contour>
        <pt x="232" y="783" on="1"/>
        <pt x="232" y="715" on="1"/>
        <pt x="274" y="715" on="1"/>
        <pt x="289" y="715" on="0"/>
        <pt x="296" y="716" on="1"/>
        <pt x="316" y="719" on="0"/>
        <pt x="316" y="741" on="1"/>
        <pt x="316" y="808" on="1"/>
        <pt x="277" y="808" on="1"/>
        <pt x="247" y="808" on="0"/>
        <pt x="232" y="794" on="0"/>
      </contour>
    </TTGlyph>
    <TTGlyph name="Aringacute" xMin="18" yMin="0" xMax="531" yMax="914">
      <contour>
        <pt x="425" y="0" on="1"/>
        <pt x="391" y="137" on="1"/>
        <pt x="157" y="137" on="1"/>
        <pt x="124" y="0" on="1"/>
        <pt x="18" y="0" on="1"/>
        <pt x="180" y="625" on="1"/>
        <pt x="369" y="625" on="1"/>
        <pt x="531" y="0" on="1"/>
      </contour>
      <contour>
        <pt x="254" y="533" on="1"/>
        <pt x="179" y="227" on="1"/>
        <pt x="369" y="227" on="1"/>
        <pt x="295" y="533" on="1"/>
      </contour>
      <contour>
        <pt x="182" y="712" on="0"/>
        <pt x="182" y="812" on="0"/>
        <pt x="229" y="860" on="0"/>
        <pt x="281" y="860" on="1"/>
        <pt x="308" y="860" on="0"/>
        <pt x="330" y="852" on="1"/>
        <pt x="398" y="910" on="1"/>
        <pt x="403" y="914" on="0"/>
        <pt x="410" y="914" on="0"/>
        <pt x="414" y="909" on="1"/>
        <pt x="443" y="873" on="1"/>
        <pt x="449" y="865" on="0"/>
        <pt x="449" y="858" on="0"/>
        <pt x="445" y="854" on="1"/>
        <pt x="415" y="829" on="1"/>
        <pt x="406" y="822" on="0"/>
        <pt x="393" y="819" on="1"/>
        <pt x="369" y="815" on="1"/>
        <pt x="379" y="795" on="0"/>
        <pt x="379" y="712" on="0"/>
        <pt x="333" y="663" on="0"/>
        <pt x="229" y="663" on="0"/>
      </contour>
      <contour>
        <pt x="238" y="783" on="1"/>
        <pt x="238" y="715" on="1"/>
        <pt x="280" y="715" on="1"/>
        <pt x="295" y="715" on="0"/>
        <pt x="302" y="716" on="1"/>
        <pt x="322" y="719" on="0"/>
        <pt x="322" y="741" on="1"/>
        <pt x="322" y="808" on="1"/>
        <pt x="283" y="808" on="1"/>
        <pt x="253" y="808" on="0"/>
        <pt x="238" y="794" on="0"/>
      </contour>
    </TTGlyph>
    <TTGlyph name="Atilde" xMin="18" yMin="0" xMax="531" yMax="814">
      <contour>
        <pt x="425" y="0" on="1"/>
        <pt x="391" y="137" on="1"/>
        <pt x="157" y="137" on="1"/>
        <pt x="124" y="0" on="1"/>
        <pt x="18" y="0" on="1"/>
        <pt x="180" y="625" on="1"/>
        <pt x="369" y="625" on="1"/>
        <pt x="531" y="0" on="1"/>
      </contour>
      <contour>
        <pt x="254" y="533" on="1"/>
        <pt x="179" y="227" on="1"/>
        <pt x="369" y="227" on="1"/>
        <pt x="295" y="533" on="1"/>
      </contour>
      <contour>
        <pt x="346" y="703" on="0"/>
        <pt x="312" y="688" on="0"/>
        <pt x="272" y="688" on="0"/>
        <pt x="240" y="719" on="1"/>
        <pt x="225" y="731" on="1"/>
        <pt x="159" y="698" on="1"/>
        <pt x="128" y="749" on="1"/>
        <pt x="158" y="770" on="1"/>
        <pt x="203" y="799" on="0"/>
        <pt x="235" y="814" on="0"/>
        <pt x="274" y="814" on="0"/>
        <pt x="308" y="783" on="1"/>
        <pt x="323" y="771" on="1"/>
        <pt x="389" y="804" on="1"/>
        <pt x="420" y="753" on="1"/>
        <pt x="390" y="732" on="1"/>
      </contour>
    </TTGlyph>
    <TTGlyph name="B" xMin="70" yMin="0" xMax="482" yMax="625">
      <contour>
        <pt x="70" y="0" on="1"/>
        <pt x="70" y="625" on="1"/>
        <pt x="300" y="625" on="1"/>
        <pt x="380" y="625" on="0"/>
        <pt x="451" y="546" on="0"/>
        <pt x="451" y="470" on="1"/>
        <pt x="451" y="421" on="0"/>
        <pt x="424" y="354" on="0"/>
        <pt x="390" y="330" on="1"/>
        <pt x="390" y="324" on="1"/>
        <pt x="438" y="308" on="0"/>
        <pt x="482" y="227" on="0"/>
        <pt x="482" y="176" on="1"/>
        <pt x="482" y="96" on="0"/>
        <pt x="399" y="0" on="0"/>
        <pt x="322" y="0" on="1"/>
      </contour>
      <contour>
        <pt x="323" y="278" on="1"/>
        <pt x="170" y="278" on="1"/>
        <pt x="170" y="90" on="1"/>
        <pt x="322" y="90" on="1"/>
        <pt x="348" y="90" on="0"/>
        <pt x="379" y="137" on="0"/>
        <pt x="379" y="228" on="0"/>
        <pt x="348" y="278" on="0"/>
      </contour>
      <contour>
        <pt x="308" y="535" on="1"/>
        <pt x="170" y="535" on="1"/>
        <pt x="170" y="363" on="1"/>
        <pt x="307" y="363" on="1"/>
        <pt x="330" y="363" on="0"/>
        <pt x="360" y="409" on="0"/>
        <pt x="360" y="491" on="0"/>
        <pt x="331" y="535" on="0"/>
      </contour>
    </TTGlyph>
    <TTGlyph name="C" xMin="50" yMin="-10" xMax="420" yMax="640">
      <contour>
        <pt x="274" y="-10" on="1"/>
        <pt x="139" y="-10" on="0"/>
        <pt x="50" y="121" on="0"/>
        <pt x="50" y="508" on="0"/>
        <pt x="139" y="640" on="0"/>
        <pt x="274" y="640" on="1"/>
        <pt x="355" y="640" on="0"/>
        <pt x="410" y="619" on="1"/>
        <pt x="395" y="531" on="1"/>
        <pt x="327" y="545" on="0"/>
        <pt x="204" y="545" on="0"/>
        <pt x="160" y="523" on="0"/>
        <pt x="160" y="489" on="1"/>
        <pt x="160" y="98" on="1"/>
        <pt x="207" y="83" on="0"/>
        <pt x="335" y="83" on="0"/>
        <pt x="410" y="103" on="1"/>
        <pt x="420" y="11" on="1"/>
        <pt x="361" y="-10" on="0"/>
      </contour>
    </TTGlyph>
    <TTGlyph name="Cacute" xMin="50" yMin="-10" xMax="420" yMax="837">
      <contour>
        <pt x="274" y="-10" on="1"/>
        <pt x="139" y="-10" on="0"/>
        <pt x="50" y="121" on="0"/>
        <pt x="50" y="508" on="0"/>
        <pt x="139" y="640" on="0"/>
        <pt x="274" y="640" on="1"/>
        <pt x="355" y="640" on="0"/>
        <pt x="410" y="619" on="1"/>
        <pt x="395" y="531" on="1"/>
        <pt x="327" y="545" on="0"/>
        <pt x="204" y="545" on="0"/>
        <pt x="160" y="523" on="0"/>
        <pt x="160" y="489" on="1"/>
        <pt x="160" y="98" on="1"/>
        <pt x="207" y="83" on="0"/>
        <pt x="335" y="83" on="0"/>
        <pt x="410" y="103" on="1"/>
        <pt x="420" y="11" on="1"/>
        <pt x="361" y="-10" on="0"/>
      </contour>
      <contour>
        <pt x="315" y="833" on="1"/>
        <pt x="320" y="837" on="0"/>
        <pt x="327" y="837" on="0"/>
        <pt x="331" y="832" on="1"/>
        <pt x="375" y="778" on="1"/>
        <pt x="381" y="770" on="0"/>
        <pt x="381" y="763" on="0"/>
        <pt x="377" y="759" on="1"/>
        <pt x="347" y="734" on="1"/>
        <pt x="338" y="727" on="0"/>
        <pt x="325" y="724" on="1"/>
        <pt x="185" y="689" on="1"/>
        <pt x="163" y="723" on="1"/>
      </contour>
    </TTGlyph>
    <TTGlyph name="Ccaron" xMin="50" yMin="-10" xMax="420" yMax="841">
      <contour>
        <pt x="274" y="-10" on="1"/>
        <pt x="139" y="-10" on="0"/>
        <pt x="50" y="121" on="0"/>
        <pt x="50" y="508" on="0"/>
        <pt x="139" y="640" on="0"/>
        <pt x="274" y="640" on="1"/>
        <pt x="355" y="640" on="0"/>
        <pt x="410" y="619" on="1"/>
        <pt x="395" y="531" on="1"/>
        <pt x="327" y="545" on="0"/>
        <pt x="204" y="545" on="0"/>
        <pt x="160" y="523" on="0"/>
        <pt x="160" y="489" on="1"/>
        <pt x="160" y="98" on="1"/>
        <pt x="207" y="83" on="0"/>
        <pt x="335" y="83" on="0"/>
        <pt x="410" y="103" on="1"/>
        <pt x="420" y="11" on="1"/>
        <pt x="361" y="-10" on="0"/>
      </contour>
      <contour>
        <pt x="273" y="685" on="1"/>
        <pt x="255" y="685" on="1"/>
        <pt x="249" y="685" on="0"/>
        <pt x="245" y="691" on="1"/>
        <pt x="131" y="807" on="1"/>
        <pt x="171" y="841" on="1"/>
        <pt x="264" y="777" on="1"/>
        <pt x="357" y="841" on="1"/>
        <pt x="397" y="807" on="1"/>
        <pt x="283" y="691" on="1"/>
        <pt x="278" y="685" on="0"/>
      </contour>
    </TTGlyph>
    <TTGlyph name="Ccedilla" xMin="50" yMin="-165" xMax="420" yMax="640">
      <contour>
        <pt x="239" y="-66" on="1"/>
        <pt x="239" y="-9" on="1"/>
        <pt x="127" y="-2" on="0"/>
        <pt x="50" y="132" on="0"/>
        <pt x="50" y="508" on="0"/>
        <pt x="139" y="640" on="0"/>
        <pt x="274" y="640" on="1"/>
        <pt x="355" y="640" on="0"/>
        <pt x="410" y="619" on="1"/>
        <pt x="395" y="531" on="1"/>
        <pt x="327" y="545" on="0"/>
        <pt x="204" y="545" on="0"/>
        <pt x="160" y="523" on="0"/>
        <pt x="160" y="489" on="1"/>
        <pt x="160" y="98" on="1"/>
        <pt x="207" y="83" on="0"/>
        <pt x="335" y="83" on="0"/>
        <pt x="410" y="103" on="1"/>
        <pt x="420" y="11" on="1"/>
        <pt x="369" y="-7" on="0"/>
        <pt x="295" y="-10" on="1"/>
        <pt x="318" y="-41" on="0"/>
        <pt x="318" y="-117" on="0"/>
        <pt x="269" y="-165" on="0"/>
        <pt x="188" y="-165" on="0"/>
        <pt x="152" y="-149" on="1"/>
        <pt x="161" y="-98" on="1"/>
        <pt x="196" y="-98" on="1"/>
        <pt x="219" y="-98" on="0"/>
        <pt x="239" y="-86" on="0"/>
      </contour>
    </TTGlyph>
    <TTGlyph name="Ccircumflex" xMin="50" yMin="-10" xMax="420" yMax="837">
      <contour>
        <pt x="274" y="-10" on="1"/>
        <pt x="139" y="-10" on="0"/>
        <pt x="50" y="121" on="0"/>
        <pt x="50" y="508" on="0"/>
        <pt x="139" y="640" on="0"/>
        <pt x="274" y="640" on="1"/>
        <pt x="355" y="640" on="0"/>
        <pt x="410" y="619" on="1"/>
        <pt x="395" y="531" on="1"/>
        <pt x="327" y="545" on="0"/>
        <pt x="204" y="545" on="0"/>
        <pt x="160" y="523" on="0"/>
        <pt x="160" y="489" on="1"/>
        <pt x="160" y="98" on="1"/>
        <pt x="207" y="83" on="0"/>
        <pt x="335" y="83" on="0"/>
        <pt x="410" y="103" on="1"/>
        <pt x="420" y="11" on="1"/>
        <pt x="361" y="-10" on="0"/>
      </contour>
      <contour>
        <pt x="259" y="837" on="1"/>
        <pt x="277" y="837" on="1"/>
        <pt x="282" y="837" on="0"/>
        <pt x="287" y="831" on="1"/>
        <pt x="401" y="715" on="1"/>
        <pt x="361" y="681" on="1"/>
        <pt x="268" y="745" on="1"/>
        <pt x="175" y="681" on="1"/>
        <pt x="135" y="715" on="1"/>
        <pt x="249" y="831" on="1"/>
        <pt x="254" y="837" on="0"/>
      </contour>
    </TTGlyph>
    <TTGlyph name="Cdotaccent" xMin="50" yMin="-10" xMax="420" yMax="830">
      <contour>
        <pt x="274" y="-10" on="1"/>
        <pt x="139" y="-10" on="0"/>
        <pt x="50" y="121" on="0"/>
        <pt x="50" y="508" on="0"/>
        <pt x="139" y="640" on="0"/>
        <pt x="274" y="640" on="1"/>
        <pt x="355" y="640" on="0"/>
        <pt x="410" y="619" on="1"/>
        <pt x="395" y="531" on="1"/>
        <pt x="327" y="545" on="0"/>
        <pt x="204" y="545" on="0"/>
        <pt x="160" y="523" on="0"/>
        <pt x="160" y="489" on="1"/>
        <pt x="160" y="98" on="1"/>
        <pt x="207" y="83" on="0"/>
        <pt x="335" y="83" on="0"/>
        <pt x="410" y="103" on="1"/>
        <pt x="420" y="11" on="1"/>
        <pt x="361" y="-10" on="0"/>
      </contour>
      <contour>
        <pt x="196" y="724" on="0"/>
        <pt x="196" y="800" on="0"/>
        <pt x="223" y="830" on="0"/>
        <pt x="304" y="830" on="0"/>
        <pt x="330" y="800" on="0"/>
        <pt x="330" y="723" on="0"/>
        <pt x="304" y="696" on="0"/>
        <pt x="223" y="696" on="0"/>
      </contour>
    </TTGlyph>
    <TTGlyph name="D" xMin="70" yMin="0" xMax="511" yMax="625">
      <contour>
        <pt x="70" y="0" on="1"/>
        <pt x="70" y="625" on="1"/>
        <pt x="264" y="625" on="1"/>
        <pt x="344" y="625" on="0"/>
        <pt x="435" y="602" on="0"/>
        <pt x="493" y="529" on="0"/>
        <pt x="511" y="414" on="0"/>
        <pt x="511" y="211" on="0"/>
        <pt x="493" y="96" on="0"/>
        <pt x="435" y="23" on="0"/>
        <pt x="344" y="0" on="0"/>
        <pt x="264" y="0" on="1"/>
      </contour>
      <contour>
        <pt x="323" y="535" on="1"/>
        <pt x="170" y="535" on="1"/>
        <pt x="170" y="90" on="1"/>
        <pt x="323" y="90" on="1"/>
        <pt x="364" y="90" on="0"/>
        <pt x="401" y="109" on="0"/>
        <pt x="401" y="143" on="1"/>
        <pt x="401" y="482" on="1"/>
        <pt x="401" y="516" on="0"/>
        <pt x="364" y="535" on="0"/>
      </contour>
    </TTGlyph>
    <TTGlyph name="Dcaron" xMin="70" yMin="0" xMax="511" yMax="841">
      <contour>
        <pt x="70" y="0" on="1"/>
        <pt x="70" y="625" on="1"/>
        <pt x="264" y="625" on="1"/>
        <pt x="344" y="625" on="0"/>
        <pt x="435" y="602" on="0"/>
        <pt x="493" y="529" on="0"/>
        <pt x="511" y="414" on="0"/>
        <pt x="511" y="211" on="0"/>
        <pt x="493" y="96" on="0"/>
        <pt x="435" y="23" on="0"/>
        <pt x="344" y="0" on="0"/>
        <pt x="264" y="0" on="1"/>
      </contour>
      <contour>
        <pt x="323" y="535" on="1"/>
        <pt x="170" y="535" on="1"/>
        <pt x="170" y="90" on="1"/>
        <pt x="323" y="90" on="1"/>
        <pt x="364" y="90" on="0"/>
        <pt x="401" y="109" on="0"/>
        <pt x="401" y="143" on="1"/>
        <pt x="401" y="482" on="1"/>
        <pt x="401" y="516" on="0"/>
        <pt x="364" y="535" on="0"/>
      </contour>
      <contour>
        <pt x="275" y="685" on="1"/>
        <pt x="257" y="685" on="1"/>
        <pt x="252" y="685" on="0"/>
        <pt x="247" y="691" on="1"/>
        <pt x="133" y="807" on="1"/>
        <pt x="173" y="841" on="1"/>
        <pt x="266" y="777" on="1"/>
        <pt x="359" y="841" on="1"/>
        <pt x="399" y="807" on="1"/>
        <pt x="285" y="691" on="1"/>
        <pt x="280" y="685" on="0"/>
      </contour>
    </TTGlyph>
    <TTGlyph name="Dcroat" xMin="70" yMin="0" xMax="511" yMax="792">
      <contour>
        <pt x="70" y="0" on="1"/>
        <pt x="70" y="625" on="1"/>
        <pt x="264" y="625" on="1"/>
        <pt x="344" y="625" on="0"/>
        <pt x="435" y="602" on="0"/>
        <pt x="493" y="529" on="0"/>
        <pt x="511" y="414" on="0"/>
        <pt x="511" y="211" on="0"/>
        <pt x="493" y="96" on="0"/>
        <pt x="435" y="23" on="0"/>
        <pt x="344" y="0" on="0"/>
        <pt x="264" y="0" on="1"/>
      </contour>
      <contour>
        <pt x="323" y="535" on="1"/>
        <pt x="170" y="535" on="1"/>
        <pt x="170" y="90" on="1"/>
        <pt x="323" y="90" on="1"/>
        <pt x="364" y="90" on="0"/>
        <pt x="401" y="109" on="0"/>
        <pt x="401" y="143" on="1"/>
        <pt x="401" y="482" on="1"/>
        <pt x="401" y="516" on="0"/>
        <pt x="364" y="535" on="0"/>
      </contour>
      <contour>
        <pt x="402" y="711" on="1"/>
        <pt x="204" y="711" on="1"/>
        <pt x="175" y="711" on="0"/>
        <pt x="159" y="730" on="0"/>
        <pt x="159" y="757" on="1"/>
        <pt x="159" y="792" on="1"/>
        <pt x="358" y="792" on="1"/>
        <pt x="387" y="792" on="0"/>
        <pt x="402" y="774" on="0"/>
        <pt x="402" y="747" on="1"/>
      </contour>
    </TTGlyph>
    <TTGlyph name="Delta" xMin="50" yMin="0" xMax="613" yMax="625">
      <contour>
        <pt x="270" y="625" on="1"/>
        <pt x="393" y="625" on="1"/>
        <pt x="613" y="52" on="1"/>
        <pt x="594" y="0" on="1"/>
        <pt x="69" y="0" on="1"/>
        <pt x="50" y="52" on="1"/>
      </contour>
      <contour>
        <pt x="453" y="80" on="1"/>
        <pt x="482" y="80" on="0"/>
        <pt x="482" y="103" on="1"/>
        <pt x="482" y="112" on="0"/>
        <pt x="480" y="117" on="1"/>
        <pt x="328" y="515" on="1"/>
        <pt x="316" y="515" on="1"/>
        <pt x="146" y="80" on="1"/>
      </contour>
    </TTGlyph>
    <TTGlyph name="E" xMin="70" yMin="0" xMax="415" yMax="625">
      <contour>
        <pt x="370" y="266" on="1"/>
        <pt x="170" y="266" on="1"/>
        <pt x="170" y="90" on="1"/>
        <pt x="415" y="90" on="1"/>
        <pt x="415" y="0" on="1"/>
        <pt x="70" y="0" on="1"/>
        <pt x="70" y="625" on="1"/>
        <pt x="410" y="625" on="1"/>
        <pt x="395" y="535" on="1"/>
        <pt x="170" y="535" on="1"/>
        <pt x="170" y="351" on="1"/>
        <pt x="370" y="351" on="1"/>
      </contour>
    </TTGlyph>
    <TTGlyph name="Eacute" xMin="70" yMin="0" xMax="415" yMax="822">
      <contour>
        <pt x="370" y="266" on="1"/>
        <pt x="170" y="266" on="1"/>
        <pt x="170" y="90" on="1"/>
        <pt x="415" y="90" on="1"/>
        <pt x="415" y="0" on="1"/>
        <pt x="70" y="0" on="1"/>
        <pt x="70" y="625" on="1"/>
        <pt x="410" y="625" on="1"/>
        <pt x="395" y="535" on="1"/>
        <pt x="170" y="535" on="1"/>
        <pt x="170" y="351" on="1"/>
        <pt x="370" y="351" on="1"/>
      </contour>
      <contour>
        <pt x="290" y="818" on="1"/>
        <pt x="295" y="822" on="0"/>
        <pt x="302" y="822" on="0"/>
        <pt x="306" y="817" on="1"/>
        <pt x="350" y="763" on="1"/>
        <pt x="356" y="755" on="0"/>
        <pt x="356" y="748" on="0"/>
        <pt x="352" y="744" on="1"/>
        <pt x="322" y="719" on="1"/>
        <pt x="313" y="712" on="0"/>
        <pt x="300" y="709" on="1"/>
        <pt x="160" y="674" on="1"/>
        <pt x="138" y="708" on="1"/>
      </contour>
    </TTGlyph>
    <TTGlyph name="Ebreve" xMin="70" yMin="0" xMax="415" yMax="811">
      <contour>
        <pt x="370" y="266" on="1"/>
        <pt x="170" y="266" on="1"/>
        <pt x="170" y="90" on="1"/>
        <pt x="415" y="90" on="1"/>
        <pt x="415" y="0" on="1"/>
        <pt x="70" y="0" on="1"/>
        <pt x="70" y="625" on="1"/>
        <pt x="410" y="625" on="1"/>
        <pt x="395" y="535" on="1"/>
        <pt x="170" y="535" on="1"/>
        <pt x="170" y="351" on="1"/>
        <pt x="370" y="351" on="1"/>
      </contour>
      <contour>
        <pt x="238" y="765" on="0"/>
        <pt x="272" y="765" on="0"/>
        <pt x="302" y="789" on="0"/>
        <pt x="308" y="811" on="1"/>
        <pt x="373" y="800" on="1"/>
        <pt x="360" y="746" on="0"/>
        <pt x="298" y="692" on="0"/>
        <pt x="255" y="692" on="1"/>
        <pt x="160" y="692" on="0"/>
        <pt x="137" y="800" on="1"/>
        <pt x="202" y="811" on="1"/>
        <pt x="208" y="789" on="0"/>
      </contour>
    </TTGlyph>
    <TTGlyph name="Ecaron" xMin="70" yMin="0" xMax="415" yMax="841">
      <contour>
        <pt x="370" y="266" on="1"/>
        <pt x="170" y="266" on="1"/>
        <pt x="170" y="90" on="1"/>
        <pt x="415" y="90" on="1"/>
        <pt x="415" y="0" on="1"/>
        <pt x="70" y="0" on="1"/>
        <pt x="70" y="625" on="1"/>
        <pt x="410" y="625" on="1"/>
        <pt x="395" y="535" on="1"/>
        <pt x="170" y="535" on="1"/>
        <pt x="170" y="351" on="1"/>
        <pt x="370" y="351" on="1"/>
      </contour>
      <contour>
        <pt x="264" y="685" on="1"/>
        <pt x="246" y="685" on="1"/>
        <pt x="240" y="685" on="0"/>
        <pt x="236" y="691" on="1"/>
        <pt x="122" y="807" on="1"/>
        <pt x="162" y="841" on="1"/>
        <pt x="255" y="777" on="1"/>
        <pt x="348" y="841" on="1"/>
        <pt x="388" y="807" on="1"/>
        <pt x="274" y="691" on="1"/>
        <pt x="270" y="685" on="0"/>
      </contour>
    </TTGlyph>
    <TTGlyph name="Ecircumflex" xMin="70" yMin="0" xMax="415" yMax="836">
      <contour>
        <pt x="370" y="266" on="1"/>
        <pt x="170" y="266" on="1"/>
        <pt x="170" y="90" on="1"/>
        <pt x="415" y="90" on="1"/>
        <pt x="415" y="0" on="1"/>
        <pt x="70" y="0" on="1"/>
        <pt x="70" y="625" on="1"/>
        <pt x="410" y="625" on="1"/>
        <pt x="395" y="535" on="1"/>
        <pt x="170" y="535" on="1"/>
        <pt x="170" y="351" on="1"/>
        <pt x="370" y="351" on="1"/>
      </contour>
      <contour>
        <pt x="236" y="836" on="1"/>
        <pt x="254" y="836" on="1"/>
        <pt x="260" y="836" on="0"/>
        <pt x="264" y="830" on="1"/>
        <pt x="378" y="714" on="1"/>
        <pt x="338" y="680" on="1"/>
        <pt x="245" y="744" on="1"/>
        <pt x="152" y="680" on="1"/>
        <pt x="112" y="714" on="1"/>
        <pt x="226" y="830" on="1"/>
        <pt x="230" y="836" on="0"/>
      </contour>
    </TTGlyph>
    <TTGlyph name="Edieresis" xMin="70" yMin="0" xMax="415" yMax="814">
      <contour>
        <pt x="370" y="266" on="1"/>
        <pt x="170" y="266" on="1"/>
        <pt x="170" y="90" on="1"/>
        <pt x="415" y="90" on="1"/>
        <pt x="415" y="0" on="1"/>
        <pt x="70" y="0" on="1"/>
        <pt x="70" y="625" on="1"/>
        <pt x="410" y="625" on="1"/>
        <pt x="395" y="535" on="1"/>
        <pt x="170" y="535" on="1"/>
        <pt x="170" y="351" on="1"/>
        <pt x="370" y="351" on="1"/>
      </contour>
      <contour>
        <pt x="104" y="723" on="0"/>
        <pt x="104" y="789" on="0"/>
        <pt x="124" y="814" on="0"/>
        <pt x="187" y="814" on="0"/>
        <pt x="207" y="789" on="0"/>
        <pt x="207" y="723" on="0"/>
        <pt x="187" y="699" on="0"/>
        <pt x="124" y="699" on="0"/>
      </contour>
      <contour>
        <pt x="287" y="723" on="0"/>
        <pt x="287" y="789" on="0"/>
        <pt x="307" y="814" on="0"/>
        <pt x="370" y="814" on="0"/>
        <pt x="390" y="789" on="0"/>
        <pt x="390" y="723" on="0"/>
        <pt x="370" y="699" on="0"/>
        <pt x="307" y="699" on="0"/>
      </contour>
    </TTGlyph>
    <TTGlyph name="Edotaccent" xMin="70" yMin="0" xMax="415" yMax="830">
      <contour>
        <pt x="370" y="266" on="1"/>
        <pt x="170" y="266" on="1"/>
        <pt x="170" y="90" on="1"/>
        <pt x="415" y="90" on="1"/>
        <pt x="415" y="0" on="1"/>
        <pt x="70" y="0" on="1"/>
        <pt x="70" y="625" on="1"/>
        <pt x="410" y="625" on="1"/>
        <pt x="395" y="535" on="1"/>
        <pt x="170" y="535" on="1"/>
        <pt x="170" y="351" on="1"/>
        <pt x="370" y="351" on="1"/>
      </contour>
      <contour>
        <pt x="187" y="724" on="0"/>
        <pt x="187" y="800" on="0"/>
        <pt x="214" y="830" on="0"/>
        <pt x="295" y="830" on="0"/>
        <pt x="321" y="800" on="0"/>
        <pt x="321" y="723" on="0"/>
        <pt x="295" y="696" on="0"/>
        <pt x="214" y="696" on="0"/>
      </contour>
    </TTGlyph>
    <TTGlyph name="Egrave" xMin="70" yMin="0" xMax="415" yMax="827">
      <contour>
        <pt x="370" y="266" on="1"/>
        <pt x="170" y="266" on="1"/>
        <pt x="170" y="90" on="1"/>
        <pt x="415" y="90" on="1"/>
        <pt x="415" y="0" on="1"/>
        <pt x="70" y="0" on="1"/>
        <pt x="70" y="625" on="1"/>
        <pt x="410" y="625" on="1"/>
        <pt x="395" y="535" on="1"/>
        <pt x="170" y="535" on="1"/>
        <pt x="170" y="351" on="1"/>
        <pt x="370" y="351" on="1"/>
      </contour>
      <contour>
        <pt x="132" y="749" on="1"/>
        <pt x="128" y="753" on="0"/>
        <pt x="128" y="760" on="0"/>
        <pt x="134" y="768" on="1"/>
        <pt x="178" y="822" on="1"/>
        <pt x="182" y="827" on="0"/>
        <pt x="189" y="827" on="0"/>
        <pt x="194" y="823" on="1"/>
        <pt x="346" y="713" on="1"/>
        <pt x="324" y="679" on="1"/>
        <pt x="184" y="714" on="1"/>
        <pt x="171" y="717" on="0"/>
        <pt x="162" y="724" on="1"/>
      </contour>
    </TTGlyph>
    <TTGlyph name="Emacron" xMin="70" yMin="0" xMax="415" yMax="792">
      <contour>
        <pt x="370" y="266" on="1"/>
        <pt x="170" y="266" on="1"/>
        <pt x="170" y="90" on="1"/>
        <pt x="415" y="90" on="1"/>
        <pt x="415" y="0" on="1"/>
        <pt x="70" y="0" on="1"/>
        <pt x="70" y="625" on="1"/>
        <pt x="410" y="625" on="1"/>
        <pt x="395" y="535" on="1"/>
        <pt x="170" y="535" on="1"/>
        <pt x="170" y="351" on="1"/>
        <pt x="370" y="351" on="1"/>
      </contour>
      <contour>
        <pt x="369" y="711" on="1"/>
        <pt x="171" y="711" on="1"/>
        <pt x="142" y="711" on="0"/>
        <pt x="126" y="730" on="0"/>
        <pt x="126" y="757" on="1"/>
        <pt x="126" y="792" on="1"/>
        <pt x="325" y="792" on="1"/>
        <pt x="354" y="792" on="0"/>
        <pt x="369" y="774" on="0"/>
        <pt x="369" y="747" on="1"/>
      </contour>
    </TTGlyph>
    <TTGlyph name="Eng" xMin="70" yMin="-165" xMax="505" yMax="625">
      <contour>
        <pt x="305" y="-165" on="1"/>
        <pt x="305" y="-105" on="1"/>
        <pt x="357" y="-95" on="1"/>
        <pt x="405" y="-86" on="0"/>
        <pt x="405" y="-45" on="1"/>
        <pt x="405" y="-14" on="1"/>
        <pt x="184" y="410" on="1"/>
        <pt x="176" y="421" on="0"/>
        <pt x="174" y="458" on="1"/>
        <pt x="170" y="458" on="1"/>
        <pt x="170" y="0" on="1"/>
        <pt x="70" y="0" on="1"/>
        <pt x="70" y="625" on="1"/>
        <pt x="178" y="625" on="1"/>
        <pt x="391" y="215" on="1"/>
        <pt x="399" y="204" on="0"/>
        <pt x="401" y="167" on="1"/>
        <pt x="405" y="167" on="1"/>
        <pt x="405" y="625" on="1"/>
        <pt x="505" y="625" on="1"/>
        <pt x="505" y="-20" on="1"/>
        <pt x="505" y="-98" on="0"/>
        <pt x="443" y="-165" on="0"/>
        <pt x="381" y="-165" on="1"/>
      </contour>
    </TTGlyph>
    <TTGlyph name="Eogonek" xMin="70" yMin="-165" xMax="442" yMax="625">
      <contour>
        <pt x="361" y="-45" on="1"/>
        <pt x="361" y="-66" on="1"/>
        <pt x="361" y="-100" on="0"/>
        <pt x="390" y="-100" on="1"/>
        <pt x="394" y="-100" on="0"/>
        <pt x="404" y="-98" on="1"/>
        <pt x="423" y="-93" on="1"/>
        <pt x="442" y="-144" on="1"/>
        <pt x="408" y="-165" on="0"/>
        <pt x="328" y="-165" on="0"/>
        <pt x="282" y="-117" on="0"/>
        <pt x="282" y="-81" on="1"/>
        <pt x="282" y="-23" on="0"/>
        <pt x="331" y="0" on="1"/>
        <pt x="70" y="0" on="1"/>
        <pt x="70" y="625" on="1"/>
        <pt x="410" y="625" on="1"/>
        <pt x="395" y="535" on="1"/>
        <pt x="170" y="535" on="1"/>
        <pt x="170" y="351" on="1"/>
        <pt x="370" y="351" on="1"/>
        <pt x="370" y="266" on="1"/>
        <pt x="170" y="266" on="1"/>
        <pt x="170" y="90" on="1"/>
        <pt x="415" y="90" on="1"/>
        <pt x="415" y="0" on="1"/>
        <pt x="395" y="-5" on="1"/>
        <pt x="374" y="-11" on="0"/>
        <pt x="361" y="-25" on="0"/>
      </contour>
    </TTGlyph>
    <TTGlyph name="Eth" xMin="12" yMin="0" xMax="511" yMax="625">
      <contour>
        <pt x="70" y="0" on="1"/>
        <pt x="70" y="270" on="1"/>
        <pt x="12" y="270" on="1"/>
        <pt x="12" y="326" on="1"/>
        <pt x="12" y="351" on="0"/>
        <pt x="50" y="351" on="1"/>
        <pt x="70" y="351" on="1"/>
        <pt x="70" y="625" on="1"/>
        <pt x="264" y="625" on="1"/>
        <pt x="344" y="625" on="0"/>
        <pt x="435" y="602" on="0"/>
        <pt x="493" y="529" on="0"/>
        <pt x="511" y="414" on="0"/>
        <pt x="511" y="211" on="0"/>
        <pt x="493" y="96" on="0"/>
        <pt x="435" y="23" on="0"/>
        <pt x="344" y="0" on="0"/>
        <pt x="264" y="0" on="1"/>
      </contour>
      <contour>
        <pt x="323" y="535" on="1"/>
        <pt x="170" y="535" on="1"/>
        <pt x="170" y="351" on="1"/>
        <pt x="258" y="351" on="1"/>
        <pt x="258" y="296" on="1"/>
        <pt x="258" y="275" on="0"/>
        <pt x="234" y="272" on="1"/>
        <pt x="225" y="270" on="0"/>
        <pt x="208" y="270" on="1"/>
        <pt x="170" y="270" on="1"/>
        <pt x="170" y="90" on="1"/>
        <pt x="323" y="90" on="1"/>
        <pt x="364" y="90" on="0"/>
        <pt x="401" y="109" on="0"/>
        <pt x="401" y="143" on="1"/>
        <pt x="401" y="482" on="1"/>
        <pt x="401" y="516" on="0"/>
        <pt x="364" y="535" on="0"/>
      </contour>
    </TTGlyph>
    <TTGlyph name="Euro" xMin="35" yMin="-15" xMax="443" yMax="640">
      <contour>
        <pt x="279" y="75" on="1"/>
        <pt x="363" y="75" on="0"/>
        <pt x="433" y="99" on="1"/>
        <pt x="442" y="11" on="1"/>
        <pt x="390" y="-15" on="0"/>
        <pt x="299" y="-15" on="1"/>
        <pt x="186" y="-15" on="0"/>
        <pt x="94" y="91" on="0"/>
        <pt x="84" y="216" on="1"/>
        <pt x="35" y="216" on="1"/>
        <pt x="42" y="273" on="1"/>
        <pt x="366" y="273" on="1"/>
        <pt x="360" y="216" on="1"/>
        <pt x="200" y="216" on="1"/>
        <pt x="197" y="83" on="1"/>
        <pt x="237" y="75" on="0"/>
      </contour>
      <contour>
        <pt x="325" y="640" on="1"/>
        <pt x="381" y="640" on="0"/>
        <pt x="443" y="621" on="1"/>
        <pt x="425" y="545" on="1"/>
        <pt x="283" y="545" on="1"/>
        <pt x="229" y="545" on="0"/>
        <pt x="216" y="494" on="1"/>
        <pt x="209" y="470" on="0"/>
        <pt x="208" y="433" on="1"/>
        <pt x="208" y="410" on="1"/>
        <pt x="380" y="410" on="1"/>
        <pt x="373" y="353" on="1"/>
        <pt x="49" y="353" on="1"/>
        <pt x="56" y="410" on="1"/>
        <pt x="98" y="410" on="1"/>
        <pt x="114" y="533" on="0"/>
        <pt x="213" y="640" on="0"/>
      </contour>
    </TTGlyph>
    <TTGlyph name="F" xMin="70" yMin="0" xMax="390" yMax="625">
      <contour>
        <pt x="350" y="264" on="1"/>
        <pt x="170" y="264" on="1"/>
        <pt x="170" y="0" on="1"/>
        <pt x="70" y="0" on="1"/>
        <pt x="70" y="625" on="1"/>
        <pt x="390" y="625" on="1"/>
        <pt x="375" y="535" on="1"/>
        <pt x="170" y="535" on="1"/>
        <pt x="170" y="349" on="1"/>
        <pt x="350" y="349" on="1"/>
      </contour>
    </TTGlyph>
    <TTGlyph name="G" xMin="50" yMin="-15" xMax="480" yMax="640">
      <contour>
        <pt x="390" y="142" on="1"/>
        <pt x="390" y="244" on="1"/>
        <pt x="319" y="244" on="1"/>
        <pt x="319" y="334" on="1"/>
        <pt x="480" y="334" on="1"/>
        <pt x="480" y="30" on="1"/>
        <pt x="380" y="-15" on="0"/>
        <pt x="272" y="-15" on="1"/>
        <pt x="136" y="-15" on="0"/>
        <pt x="50" y="115" on="0"/>
        <pt x="50" y="509" on="0"/>
        <pt x="148" y="640" on="0"/>
        <pt x="301" y="640" on="1"/>
        <pt x="379" y="640" on="0"/>
        <pt x="450" y="619" on="1"/>
        <pt x="435" y="531" on="1"/>
        <pt x="354" y="545" on="0"/>
        <pt x="216" y="545" on="0"/>
        <pt x="160" y="523" on="0"/>
        <pt x="160" y="489" on="1"/>
        <pt x="160" y="82" on="1"/>
        <pt x="297" y="82" on="1"/>
        <pt x="329" y="82" on="0"/>
        <pt x="363" y="88" on="0"/>
        <pt x="390" y="115" on="0"/>
      </contour>
    </TTGlyph>
    <TTGlyph name="Gbreve" xMin="50" yMin="-15" xMax="480" yMax="811">
      <contour>
        <pt x="390" y="142" on="1"/>
        <pt x="390" y="244" on="1"/>
        <pt x="319" y="244" on="1"/>
        <pt x="319" y="334" on="1"/>
        <pt x="480" y="334" on="1"/>
        <pt x="480" y="30" on="1"/>
        <pt x="380" y="-15" on="0"/>
        <pt x="272" y="-15" on="1"/>
        <pt x="136" y="-15" on="0"/>
        <pt x="50" y="115" on="0"/>
        <pt x="50" y="509" on="0"/>
        <pt x="148" y="640" on="0"/>
        <pt x="301" y="640" on="1"/>
        <pt x="379" y="640" on="0"/>
        <pt x="450" y="619" on="1"/>
        <pt x="435" y="531" on="1"/>
        <pt x="354" y="545" on="0"/>
        <pt x="216" y="545" on="0"/>
        <pt x="160" y="523" on="0"/>
        <pt x="160" y="489" on="1"/>
        <pt x="160" y="82" on="1"/>
        <pt x="297" y="82" on="1"/>
        <pt x="329" y="82" on="0"/>
        <pt x="363" y="88" on="0"/>
        <pt x="390" y="115" on="0"/>
      </contour>
      <contour>
        <pt x="283" y="765" on="0"/>
        <pt x="317" y="765" on="0"/>
        <pt x="347" y="789" on="0"/>
        <pt x="353" y="811" on="1"/>
        <pt x="418" y="800" on="1"/>
        <pt x="405" y="746" on="0"/>
        <pt x="343" y="692" on="0"/>
        <pt x="300" y="692" on="1"/>
        <pt x="205" y="692" on="0"/>
        <pt x="182" y="800" on="1"/>
        <pt x="247" y="811" on="1"/>
        <pt x="253" y="789" on="0"/>
      </contour>
    </TTGlyph>
    <TTGlyph name="Gcircumflex" xMin="50" yMin="-15" xMax="480" yMax="837">
      <contour>
        <pt x="390" y="142" on="1"/>
        <pt x="390" y="244" on="1"/>
        <pt x="319" y="244" on="1"/>
        <pt x="319" y="334" on="1"/>
        <pt x="480" y="334" on="1"/>
        <pt x="480" y="30" on="1"/>
        <pt x="380" y="-15" on="0"/>
        <pt x="272" y="-15" on="1"/>
        <pt x="136" y="-15" on="0"/>
        <pt x="50" y="115" on="0"/>
        <pt x="50" y="509" on="0"/>
        <pt x="148" y="640" on="0"/>
        <pt x="301" y="640" on="1"/>
        <pt x="379" y="640" on="0"/>
        <pt x="450" y="619" on="1"/>
        <pt x="435" y="531" on="1"/>
        <pt x="354" y="545" on="0"/>
        <pt x="216" y="545" on="0"/>
        <pt x="160" y="523" on="0"/>
        <pt x="160" y="489" on="1"/>
        <pt x="160" y="82" on="1"/>
        <pt x="297" y="82" on="1"/>
        <pt x="329" y="82" on="0"/>
        <pt x="363" y="88" on="0"/>
        <pt x="390" y="115" on="0"/>
      </contour>
      <contour>
        <pt x="291" y="837" on="1"/>
        <pt x="309" y="837" on="1"/>
        <pt x="314" y="837" on="0"/>
        <pt x="319" y="831" on="1"/>
        <pt x="433" y="715" on="1"/>
        <pt x="393" y="681" on="1"/>
        <pt x="300" y="745" on="1"/>
        <pt x="207" y="681" on="1"/>
        <pt x="167" y="715" on="1"/>
        <pt x="281" y="831" on="1"/>
        <pt x="286" y="837" on="0"/>
      </contour>
    </TTGlyph>
    <TTGlyph name="Gdotaccent" xMin="50" yMin="-15" xMax="480" yMax="830">
      <contour>
        <pt x="390" y="142" on="1"/>
        <pt x="390" y="244" on="1"/>
        <pt x="319" y="244" on="1"/>
        <pt x="319" y="334" on="1"/>
        <pt x="480" y="334" on="1"/>
        <pt x="480" y="30" on="1"/>
        <pt x="380" y="-15" on="0"/>
        <pt x="272" y="-15" on="1"/>
        <pt x="136" y="-15" on="0"/>
        <pt x="50" y="115" on="0"/>
        <pt x="50" y="509" on="0"/>
        <pt x="148" y="640" on="0"/>
        <pt x="301" y="640" on="1"/>
        <pt x="379" y="640" on="0"/>
        <pt x="450" y="619" on="1"/>
        <pt x="435" y="531" on="1"/>
        <pt x="354" y="545" on="0"/>
        <pt x="216" y="545" on="0"/>
        <pt x="160" y="523" on="0"/>
        <pt x="160" y="489" on="1"/>
        <pt x="160" y="82" on="1"/>
        <pt x="297" y="82" on="1"/>
        <pt x="329" y="82" on="0"/>
        <pt x="363" y="88" on="0"/>
        <pt x="390" y="115" on="0"/>
      </contour>
      <contour>
        <pt x="232" y="724" on="0"/>
        <pt x="232" y="800" on="0"/>
        <pt x="259" y="830" on="0"/>
        <pt x="340" y="830" on="0"/>
        <pt x="366" y="800" on="0"/>
        <pt x="366" y="723" on="0"/>
        <pt x="340" y="696" on="0"/>
        <pt x="259" y="696" on="0"/>
      </contour>
    </TTGlyph>
    <TTGlyph name="H" xMin="70" yMin="0" xMax="510" yMax="625">
      <contour>
        <pt x="410" y="0" on="1"/>
        <pt x="410" y="267" on="1"/>
        <pt x="170" y="267" on="1"/>
        <pt x="170" y="0" on="1"/>
        <pt x="70" y="0" on="1"/>
        <pt x="70" y="625" on="1"/>
        <pt x="170" y="625" on="1"/>
        <pt x="170" y="357" on="1"/>
        <pt x="410" y="357" on="1"/>
        <pt x="410" y="625" on="1"/>
        <pt x="510" y="625" on="1"/>
        <pt x="510" y="0" on="1"/>
      </contour>
    </TTGlyph>
    <TTGlyph name="Hbar" xMin="18" yMin="0" xMax="564" yMax="625">
      <contour>
        <pt x="18" y="468" on="1"/>
        <pt x="18" y="505" on="1"/>
        <pt x="18" y="522" on="0"/>
        <pt x="34" y="531" on="0"/>
        <pt x="56" y="531" on="1"/>
        <pt x="70" y="531" on="1"/>
        <pt x="70" y="625" on="1"/>
        <pt x="170" y="625" on="1"/>
        <pt x="170" y="531" on="1"/>
        <pt x="410" y="531" on="1"/>
        <pt x="410" y="625" on="1"/>
        <pt x="510" y="625" on="1"/>
        <pt x="510" y="531" on="1"/>
        <pt x="564" y="531" on="1"/>
        <pt x="564" y="493" on="1"/>
        <pt x="564" y="476" on="0"/>
        <pt x="548" y="468" on="0"/>
        <pt x="525" y="468" on="1"/>
        <pt x="510" y="468" on="1"/>
        <pt x="510" y="0" on="1"/>
        <pt x="410" y="0" on="1"/>
        <pt x="410" y="267" on="1"/>
        <pt x="170" y="267" on="1"/>
        <pt x="170" y="0" on="1"/>
        <pt x="70" y="0" on="1"/>
        <pt x="70" y="468" on="1"/>
      </contour>
      <contour>
        <pt x="170" y="357" on="1"/>
        <pt x="410" y="357" on="1"/>
        <pt x="410" y="468" on="1"/>
        <pt x="170" y="468" on="1"/>
      </contour>
    </TTGlyph>
    <TTGlyph name="Hcircumflex" xMin="70" yMin="0" xMax="510" yMax="837">
      <contour>
        <pt x="410" y="0" on="1"/>
        <pt x="410" y="267" on="1"/>
        <pt x="170" y="267" on="1"/>
        <pt x="170" y="0" on="1"/>
        <pt x="70" y="0" on="1"/>
        <pt x="70" y="625" on="1"/>
        <pt x="170" y="625" on="1"/>
        <pt x="170" y="357" on="1"/>
        <pt x="410" y="357" on="1"/>
        <pt x="410" y="625" on="1"/>
        <pt x="510" y="625" on="1"/>
        <pt x="510" y="0" on="1"/>
      </contour>
      <contour>
        <pt x="281" y="837" on="1"/>
        <pt x="299" y="837" on="1"/>
        <pt x="304" y="837" on="0"/>
        <pt x="309" y="831" on="1"/>
        <pt x="423" y="715" on="1"/>
        <pt x="383" y="681" on="1"/>
        <pt x="290" y="745" on="1"/>
        <pt x="197" y="681" on="1"/>
        <pt x="157" y="715" on="1"/>
        <pt x="271" y="831" on="1"/>
        <pt x="276" y="837" on="0"/>
      </contour>
    </TTGlyph>
    <TTGlyph name="I" xMin="70" yMin="0" xMax="170" yMax="625">
      <contour>
        <pt x="70" y="0" on="1"/>
        <pt x="70" y="625" on="1"/>
        <pt x="170" y="625" on="1"/>
        <pt x="170" y="0" on="1"/>
      </contour>
    </TTGlyph>
    <TTGlyph name="IJ" xMin="70" yMin="0" xMax="491" yMax="625">
      <contour>
        <pt x="70" y="0" on="1"/>
        <pt x="70" y="625" on="1"/>
        <pt x="170" y="625" on="1"/>
        <pt x="170" y="0" on="1"/>
      </contour>
      <contour>
        <pt x="343" y="90" on="1"/>
        <pt x="374" y="90" on="0"/>
        <pt x="391" y="107" on="0"/>
        <pt x="391" y="120" on="1"/>
        <pt x="391" y="535" on="1"/>
        <pt x="278" y="535" on="1"/>
        <pt x="278" y="625" on="1"/>
        <pt x="491" y="625" on="1"/>
        <pt x="491" y="135" on="1"/>
        <pt x="491" y="58" on="0"/>
        <pt x="416" y="0" on="0"/>
        <pt x="336" y="0" on="1"/>
        <pt x="262" y="0" on="1"/>
        <pt x="250" y="90" on="1"/>
      </contour>
    </TTGlyph>
    <TTGlyph name="Iacute" xMin="14" yMin="0" xMax="232" yMax="822">
      <contour>
        <pt x="70" y="0" on="1"/>
        <pt x="70" y="625" on="1"/>
        <pt x="170" y="625" on="1"/>
        <pt x="170" y="0" on="1"/>
      </contour>
      <contour>
        <pt x="166" y="818" on="1"/>
        <pt x="171" y="822" on="0"/>
        <pt x="178" y="822" on="0"/>
        <pt x="182" y="817" on="1"/>
        <pt x="226" y="763" on="1"/>
        <pt x="232" y="755" on="0"/>
        <pt x="232" y="748" on="0"/>
        <pt x="228" y="744" on="1"/>
        <pt x="198" y="719" on="1"/>
        <pt x="189" y="712" on="0"/>
        <pt x="176" y="709" on="1"/>
        <pt x="36" y="674" on="1"/>
        <pt x="14" y="708" on="1"/>
      </contour>
    </TTGlyph>
    <TTGlyph name="Ibreve" xMin="2" yMin="0" xMax="238" yMax="811">
      <contour>
        <pt x="70" y="0" on="1"/>
        <pt x="70" y="625" on="1"/>
        <pt x="170" y="625" on="1"/>
        <pt x="170" y="0" on="1"/>
      </contour>
      <contour>
        <pt x="103" y="765" on="0"/>
        <pt x="137" y="765" on="0"/>
        <pt x="167" y="789" on="0"/>
        <pt x="173" y="811" on="1"/>
        <pt x="238" y="800" on="1"/>
        <pt x="225" y="746" on="0"/>
        <pt x="163" y="692" on="0"/>
        <pt x="120" y="692" on="1"/>
        <pt x="25" y="692" on="0"/>
        <pt x="2" y="800" on="1"/>
        <pt x="67" y="811" on="1"/>
        <pt x="73" y="789" on="0"/>
      </contour>
    </TTGlyph>
    <TTGlyph name="Icircumflex" xMin="-13" yMin="0" xMax="253" yMax="836">
      <contour>
        <pt x="70" y="0" on="1"/>
        <pt x="70" y="625" on="1"/>
        <pt x="170" y="625" on="1"/>
        <pt x="170" y="0" on="1"/>
      </contour>
      <contour>
        <pt x="111" y="836" on="1"/>
        <pt x="129" y="836" on="1"/>
        <pt x="134" y="836" on="0"/>
        <pt x="139" y="830" on="1"/>
        <pt x="253" y="714" on="1"/>
        <pt x="213" y="680" on="1"/>
        <pt x="120" y="744" on="1"/>
        <pt x="27" y="680" on="1"/>
        <pt x="-13" y="714" on="1"/>
        <pt x="101" y="830" on="1"/>
        <pt x="105" y="836" on="0"/>
      </contour>
    </TTGlyph>
    <TTGlyph name="Idieresis" xMin="-23" yMin="0" xMax="263" yMax="814">
      <contour>
        <pt x="70" y="0" on="1"/>
        <pt x="70" y="625" on="1"/>
        <pt x="170" y="625" on="1"/>
        <pt x="170" y="0" on="1"/>
      </contour>
      <contour>
        <pt x="-23" y="723" on="0"/>
        <pt x="-23" y="789" on="0"/>
        <pt x="-3" y="814" on="0"/>
        <pt x="60" y="814" on="0"/>
        <pt x="80" y="789" on="0"/>
        <pt x="80" y="723" on="0"/>
        <pt x="60" y="699" on="0"/>
        <pt x="-3" y="699" on="0"/>
      </contour>
      <contour>
        <pt x="160" y="723" on="0"/>
        <pt x="160" y="789" on="0"/>
        <pt x="180" y="814" on="0"/>
        <pt x="243" y="814" on="0"/>
        <pt x="263" y="789" on="0"/>
        <pt x="263" y="723" on="0"/>
        <pt x="243" y="699" on="0"/>
        <pt x="180" y="699" on="0"/>
      </contour>
    </TTGlyph>
    <TTGlyph name="Idotaccent" xMin="53" yMin="0" xMax="187" yMax="830">
      <contour>
        <pt x="70" y="0" on="1"/>
        <pt x="70" y="625" on="1"/>
        <pt x="170" y="625" on="1"/>
        <pt x="170" y="0" on="1"/>
      </contour>
      <contour>
        <pt x="53" y="724" on="0"/>
        <pt x="53" y="800" on="0"/>
        <pt x="80" y="830" on="0"/>
        <pt x="161" y="830" on="0"/>
        <pt x="187" y="800" on="0"/>
        <pt x="187" y="723" on="0"/>
        <pt x="161" y="696" on="0"/>
        <pt x="80" y="696" on="0"/>
      </contour>
    </TTGlyph>
    <TTGlyph name="Igrave" xMin="-21" yMin="0" xMax="197" yMax="827">
      <contour>
        <pt x="70" y="0" on="1"/>
        <pt x="70" y="625" on="1"/>
        <pt x="170" y="625" on="1"/>
        <pt x="170" y="0" on="1"/>
      </contour>
      <contour>
        <pt x="-17" y="749" on="1"/>
        <pt x="-21" y="753" on="0"/>
        <pt x="-21" y="760" on="0"/>
        <pt x="-15" y="768" on="1"/>
        <pt x="29" y="822" on="1"/>
        <pt x="33" y="827" on="0"/>
        <pt x="40" y="827" on="0"/>
        <pt x="45" y="823" on="1"/>
        <pt x="197" y="713" on="1"/>
        <pt x="175" y="679" on="1"/>
        <pt x="35" y="714" on="1"/>
        <pt x="22" y="717" on="0"/>
        <pt x="13" y="724" on="1"/>
      </contour>
    </TTGlyph>
    <TTGlyph name="Imacron" xMin="-1" yMin="0" xMax="242" yMax="792">
      <contour>
        <pt x="70" y="0" on="1"/>
        <pt x="70" y="625" on="1"/>
        <pt x="170" y="625" on="1"/>
        <pt x="170" y="0" on="1"/>
      </contour>
      <contour>
        <pt x="242" y="711" on="1"/>
        <pt x="44" y="711" on="1"/>
        <pt x="15" y="711" on="0"/>
        <pt x="-1" y="730" on="0"/>
        <pt x="-1" y="757" on="1"/>
        <pt x="-1" y="792" on="1"/>
        <pt x="198" y="792" on="1"/>
        <pt x="227" y="792" on="0"/>
        <pt x="242" y="774" on="0"/>
        <pt x="242" y="747" on="1"/>
      </contour>
    </TTGlyph>
    <TTGlyph name="Iogonek" xMin="21" yMin="-165" xMax="181" yMax="625">
      <contour>
        <pt x="70" y="625" on="1"/>
        <pt x="170" y="625" on="1"/>
        <pt x="170" y="0" on="1"/>
        <pt x="134" y="-5" on="1"/>
        <pt x="114" y="-8" on="0"/>
        <pt x="100" y="-24" on="0"/>
        <pt x="100" y="-45" on="1"/>
        <pt x="100" y="-66" on="1"/>
        <pt x="100" y="-100" on="0"/>
        <pt x="129" y="-100" on="1"/>
        <pt x="133" y="-100" on="0"/>
        <pt x="143" y="-98" on="1"/>
        <pt x="162" y="-93" on="1"/>
        <pt x="181" y="-144" on="1"/>
        <pt x="147" y="-165" on="0"/>
        <pt x="67" y="-165" on="0"/>
        <pt x="21" y="-117" on="0"/>
        <pt x="21" y="-81" on="1"/>
        <pt x="21" y="-23" on="0"/>
        <pt x="70" y="0" on="1"/>
      </contour>
    </TTGlyph>
    <TTGlyph name="Itilde" xMin="-26" yMin="0" xMax="266" yMax="815">
      <contour>
        <pt x="70" y="0" on="1"/>
        <pt x="70" y="625" on="1"/>
        <pt x="170" y="625" on="1"/>
        <pt x="170" y="0" on="1"/>
      </contour>
      <contour>
        <pt x="192" y="704" on="0"/>
        <pt x="158" y="689" on="0"/>
        <pt x="118" y="689" on="0"/>
        <pt x="86" y="720" on="1"/>
        <pt x="71" y="732" on="1"/>
        <pt x="5" y="699" on="1"/>
        <pt x="-26" y="750" on="1"/>
        <pt x="4" y="771" on="1"/>
        <pt x="46" y="800" on="0"/>
        <pt x="80" y="815" on="0"/>
        <pt x="120" y="815" on="0"/>
        <pt x="154" y="784" on="1"/>
        <pt x="169" y="772" on="1"/>
        <pt x="235" y="805" on="1"/>
        <pt x="266" y="754" on="1"/>
        <pt x="236" y="733" on="1"/>
      </contour>
    </TTGlyph>
    <TTGlyph name="J" xMin="10" yMin="0" xMax="251" yMax="625">
      <contour>
        <pt x="103" y="90" on="1"/>
        <pt x="134" y="90" on="0"/>
        <pt x="151" y="107" on="0"/>
        <pt x="151" y="120" on="1"/>
        <pt x="151" y="535" on="1"/>
        <pt x="38" y="535" on="1"/>
        <pt x="38" y="625" on="1"/>
        <pt x="251" y="625" on="1"/>
        <pt x="251" y="135" on="1"/>
        <pt x="251" y="58" on="0"/>
        <pt x="176" y="0" on="0"/>
        <pt x="96" y="0" on="1"/>
        <pt x="22" y="0" on="1"/>
        <pt x="10" y="90" on="1"/>
      </contour>
    </TTGlyph>
    <TTGlyph name="Jcircumflex" xMin="10" yMin="0" xMax="326" yMax="837">
      <contour>
        <pt x="103" y="90" on="1"/>
        <pt x="134" y="90" on="0"/>
        <pt x="151" y="107" on="0"/>
        <pt x="151" y="120" on="1"/>
        <pt x="151" y="535" on="1"/>
        <pt x="38" y="535" on="1"/>
        <pt x="38" y="625" on="1"/>
        <pt x="251" y="625" on="1"/>
        <pt x="251" y="135" on="1"/>
        <pt x="251" y="58" on="0"/>
        <pt x="176" y="0" on="0"/>
        <pt x="96" y="0" on="1"/>
        <pt x="22" y="0" on="1"/>
        <pt x="10" y="90" on="1"/>
      </contour>
      <contour>
        <pt x="184" y="837" on="1"/>
        <pt x="202" y="837" on="1"/>
        <pt x="207" y="837" on="0"/>
        <pt x="212" y="831" on="1"/>
        <pt x="326" y="715" on="1"/>
        <pt x="286" y="681" on="1"/>
        <pt x="193" y="745" on="1"/>
        <pt x="100" y="681" on="1"/>
        <pt x="60" y="715" on="1"/>
        <pt x="174" y="831" on="1"/>
        <pt x="178" y="837" on="0"/>
      </contour>
    </TTGlyph>
    <TTGlyph name="K" xMin="70" yMin="0" xMax="483" yMax="625">
      <contour>
        <pt x="170" y="276" on="1"/>
        <pt x="170" y="0" on="1"/>
        <pt x="70" y="0" on="1"/>
        <pt x="70" y="625" on="1"/>
        <pt x="170" y="625" on="1"/>
        <pt x="170" y="366" on="1"/>
        <pt x="254" y="366" on="1"/>
        <pt x="256" y="401" on="0"/>
        <pt x="264" y="418" on="1"/>
        <pt x="362" y="625" on="1"/>
        <pt x="478" y="625" on="1"/>
        <pt x="328" y="318" on="1"/>
        <pt x="483" y="0" on="1"/>
        <pt x="367" y="0" on="1"/>
        <pt x="264" y="224" on="1"/>
        <pt x="256" y="241" on="0"/>
        <pt x="254" y="276" on="1"/>
      </contour>
    </TTGlyph>
    <TTGlyph name="L" xMin="70" yMin="0" xMax="380" yMax="625">
      <contour>
        <pt x="380" y="0" on="1"/>
        <pt x="70" y="0" on="1"/>
        <pt x="70" y="625" on="1"/>
        <pt x="170" y="625" on="1"/>
        <pt x="170" y="90" on="1"/>
        <pt x="380" y="90" on="1"/>
      </contour>
    </TTGlyph>
    <TTGlyph name="Lacute" xMin="41" yMin="0" xMax="380" yMax="837">
      <contour>
        <pt x="380" y="0" on="1"/>
        <pt x="70" y="0" on="1"/>
        <pt x="70" y="625" on="1"/>
        <pt x="170" y="625" on="1"/>
        <pt x="170" y="90" on="1"/>
        <pt x="380" y="90" on="1"/>
      </contour>
      <contour>
        <pt x="193" y="833" on="1"/>
        <pt x="198" y="837" on="0"/>
        <pt x="205" y="837" on="0"/>
        <pt x="209" y="832" on="1"/>
        <pt x="253" y="778" on="1"/>
        <pt x="259" y="770" on="0"/>
        <pt x="259" y="763" on="0"/>
        <pt x="255" y="759" on="1"/>
        <pt x="225" y="734" on="1"/>
        <pt x="216" y="727" on="0"/>
        <pt x="203" y="724" on="1"/>
        <pt x="63" y="689" on="1"/>
        <pt x="41" y="723" on="1"/>
      </contour>
    </TTGlyph>
    <TTGlyph name="Lcaron" xMin="70" yMin="0" xMax="380" yMax="665">
      <contour>
        <pt x="380" y="0" on="1"/>
        <pt x="70" y="0" on="1"/>
        <pt x="70" y="625" on="1"/>
        <pt x="170" y="625" on="1"/>
        <pt x="170" y="90" on="1"/>
        <pt x="380" y="90" on="1"/>
      </contour>
      <contour>
        <pt x="251" y="532" on="0"/>
        <pt x="232" y="557" on="0"/>
        <pt x="232" y="630" on="0"/>
        <pt x="258" y="665" on="0"/>
        <pt x="332" y="665" on="0"/>
        <pt x="358" y="630" on="0"/>
        <pt x="358" y="544" on="0"/>
        <pt x="340" y="504" on="1"/>
        <pt x="309" y="436" on="1"/>
        <pt x="270" y="448" on="1"/>
        <pt x="278" y="530" on="1"/>
      </contour>
    </TTGlyph>
    <TTGlyph name="Ldot" xMin="70" yMin="0" xMax="380" yMax="625">
      <contour>
        <pt x="380" y="0" on="1"/>
        <pt x="70" y="0" on="1"/>
        <pt x="70" y="625" on="1"/>
        <pt x="170" y="625" on="1"/>
        <pt x="170" y="90" on="1"/>
        <pt x="380" y="90" on="1"/>
      </contour>
      <contour>
        <pt x="249" y="282" on="0"/>
        <pt x="249" y="372" on="0"/>
        <pt x="276" y="408" on="0"/>
        <pt x="353" y="408" on="0"/>
        <pt x="380" y="372" on="0"/>
        <pt x="380" y="282" on="0"/>
        <pt x="354" y="247" on="0"/>
        <pt x="276" y="247" on="0"/>
      </contour>
    </TTGlyph>
    <TTGlyph name="Lslash" xMin="-6" yMin="0" xMax="380" yMax="625">
      <contour>
        <pt x="250" y="361" on="1"/>
        <pt x="250" y="345" on="0"/>
        <pt x="219" y="334" on="1"/>
        <pt x="170" y="317" on="1"/>
        <pt x="170" y="90" on="1"/>
        <pt x="380" y="90" on="1"/>
        <pt x="380" y="0" on="1"/>
        <pt x="70" y="0" on="1"/>
        <pt x="70" y="284" on="1"/>
        <pt x="11" y="265" on="1"/>
        <pt x="-4" y="309" on="1"/>
        <pt x="-6" y="317" on="0"/>
        <pt x="-6" y="319" on="1"/>
        <pt x="-6" y="335" on="0"/>
        <pt x="25" y="346" on="1"/>
        <pt x="70" y="361" on="1"/>
        <pt x="70" y="625" on="1"/>
        <pt x="170" y="625" on="1"/>
        <pt x="170" y="394" on="1"/>
        <pt x="233" y="415" on="1"/>
        <pt x="248" y="371" on="1"/>
        <pt x="250" y="363" on="0"/>
      </contour>
    </TTGlyph>
    <TTGlyph name="M" xMin="50" yMin="0" xMax="651" yMax="625">
      <contour>
        <pt x="149" y="0" on="1"/>
        <pt x="50" y="0" on="1"/>
        <pt x="81" y="625" on="1"/>
        <pt x="229" y="625" on="1"/>
        <pt x="347" y="267" on="1"/>
        <pt x="354" y="267" on="1"/>
        <pt x="472" y="625" on="1"/>
        <pt x="620" y="625" on="1"/>
        <pt x="651" y="0" on="1"/>
        <pt x="552" y="0" on="1"/>
        <pt x="530" y="483" on="1"/>
        <pt x="523" y="483" on="1"/>
        <pt x="387" y="80" on="1"/>
        <pt x="314" y="80" on="1"/>
        <pt x="177" y="483" on="1"/>
        <pt x="171" y="483" on="1"/>
      </contour>
    </TTGlyph>
    <TTGlyph name="N" xMin="70" yMin="0" xMax="505" yMax="625">
      <contour>
        <pt x="170" y="458" on="1"/>
        <pt x="170" y="0" on="1"/>
        <pt x="70" y="0" on="1"/>
        <pt x="70" y="625" on="1"/>
        <pt x="178" y="625" on="1"/>
        <pt x="391" y="215" on="1"/>
        <pt x="399" y="204" on="0"/>
        <pt x="401" y="167" on="1"/>
        <pt x="405" y="167" on="1"/>
        <pt x="405" y="625" on="1"/>
        <pt x="505" y="625" on="1"/>
        <pt x="505" y="0" on="1"/>
        <pt x="397" y="0" on="1"/>
        <pt x="184" y="410" on="1"/>
        <pt x="176" y="421" on="0"/>
        <pt x="174" y="458" on="1"/>
      </contour>
    </TTGlyph>
    <TTGlyph name="Nacute" xMin="70" yMin="0" xMax="505" yMax="837">
      <contour>
        <pt x="170" y="458" on="1"/>
        <pt x="170" y="0" on="1"/>
        <pt x="70" y="0" on="1"/>
        <pt x="70" y="625" on="1"/>
        <pt x="178" y="625" on="1"/>
        <pt x="391" y="215" on="1"/>
        <pt x="399" y="204" on="0"/>
        <pt x="401" y="167" on="1"/>
        <pt x="405" y="167" on="1"/>
        <pt x="405" y="625" on="1"/>
        <pt x="505" y="625" on="1"/>
        <pt x="505" y="0" on="1"/>
        <pt x="397" y="0" on="1"/>
        <pt x="184" y="410" on="1"/>
        <pt x="176" y="421" on="0"/>
        <pt x="174" y="458" on="1"/>
      </contour>
      <contour>
        <pt x="373" y="833" on="1"/>
        <pt x="378" y="837" on="0"/>
        <pt x="385" y="837" on="0"/>
        <pt x="389" y="832" on="1"/>
        <pt x="433" y="778" on="1"/>
        <pt x="439" y="770" on="0"/>
        <pt x="439" y="763" on="0"/>
        <pt x="435" y="759" on="1"/>
        <pt x="405" y="734" on="1"/>
        <pt x="396" y="727" on="0"/>
        <pt x="383" y="724" on="1"/>
        <pt x="243" y="689" on="1"/>
        <pt x="221" y="723" on="1"/>
      </contour>
    </TTGlyph>
    <TTGlyph name="Ncaron" xMin="70" yMin="0" xMax="505" yMax="841">
      <contour>
        <pt x="170" y="458" on="1"/>
        <pt x="170" y="0" on="1"/>
        <pt x="70" y="0" on="1"/>
        <pt x="70" y="625" on="1"/>
        <pt x="178" y="625" on="1"/>
        <pt x="391" y="215" on="1"/>
        <pt x="399" y="204" on="0"/>
        <pt x="401" y="167" on="1"/>
        <pt x="405" y="167" on="1"/>
        <pt x="405" y="625" on="1"/>
        <pt x="505" y="625" on="1"/>
        <pt x="505" y="0" on="1"/>
        <pt x="397" y="0" on="1"/>
        <pt x="184" y="410" on="1"/>
        <pt x="176" y="421" on="0"/>
        <pt x="174" y="458" on="1"/>
      </contour>
      <contour>
        <pt x="296" y="685" on="1"/>
        <pt x="278" y="685" on="1"/>
        <pt x="272" y="685" on="0"/>
        <pt x="268" y="691" on="1"/>
        <pt x="154" y="807" on="1"/>
        <pt x="194" y="841" on="1"/>
        <pt x="287" y="777" on="1"/>
        <pt x="380" y="841" on="1"/>
        <pt x="420" y="807" on="1"/>
        <pt x="306" y="691" on="1"/>
        <pt x="302" y="685" on="0"/>
      </contour>
    </TTGlyph>
    <TTGlyph name="Ntilde" xMin="70" yMin="0" xMax="505" yMax="814">
      <contour>
        <pt x="170" y="458" on="1"/>
        <pt x="170" y="0" on="1"/>
        <pt x="70" y="0" on="1"/>
        <pt x="70" y="625" on="1"/>
        <pt x="178" y="625" on="1"/>
        <pt x="391" y="215" on="1"/>
        <pt x="399" y="204" on="0"/>
        <pt x="401" y="167" on="1"/>
        <pt x="405" y="167" on="1"/>
        <pt x="405" y="625" on="1"/>
        <pt x="505" y="625" on="1"/>
        <pt x="505" y="0" on="1"/>
        <pt x="397" y="0" on="1"/>
        <pt x="184" y="410" on="1"/>
        <pt x="176" y="421" on="0"/>
        <pt x="174" y="458" on="1"/>
      </contour>
      <contour>
        <pt x="359" y="703" on="0"/>
        <pt x="325" y="688" on="0"/>
        <pt x="285" y="688" on="0"/>
        <pt x="253" y="719" on="1"/>
        <pt x="238" y="731" on="1"/>
        <pt x="172" y="698" on="1"/>
        <pt x="141" y="749" on="1"/>
        <pt x="171" y="770" on="1"/>
        <pt x="216" y="799" on="0"/>
        <pt x="248" y="814" on="0"/>
        <pt x="287" y="814" on="0"/>
        <pt x="321" y="783" on="1"/>
        <pt x="336" y="771" on="1"/>
        <pt x="402" y="804" on="1"/>
        <pt x="433" y="753" on="1"/>
        <pt x="403" y="732" on="1"/>
      </contour>
    </TTGlyph>
    <TTGlyph name="O" xMin="50" yMin="-15" xMax="531" yMax="640">
      <contour>
        <pt x="146" y="-15" on="0"/>
        <pt x="50" y="117" on="0"/>
        <pt x="50" y="508" on="0"/>
        <pt x="146" y="640" on="0"/>
        <pt x="434" y="640" on="0"/>
        <pt x="531" y="507" on="0"/>
        <pt x="531" y="117" on="0"/>
        <pt x="434" y="-15" on="0"/>
      </contour>
      <contour>
        <pt x="160" y="486" on="1"/>
        <pt x="160" y="86" on="1"/>
        <pt x="343" y="86" on="1"/>
        <pt x="384" y="86" on="0"/>
        <pt x="421" y="105" on="0"/>
        <pt x="421" y="139" on="1"/>
        <pt x="421" y="539" on="1"/>
        <pt x="237" y="539" on="1"/>
        <pt x="197" y="539" on="0"/>
        <pt x="160" y="520" on="0"/>
      </contour>
    </TTGlyph>
    <TTGlyph name="OE" xMin="51" yMin="0" xMax="767" yMax="625">
      <contour>
        <pt x="291" y="625" on="1"/>
        <pt x="762" y="625" on="1"/>
        <pt x="747" y="535" on="1"/>
        <pt x="522" y="535" on="1"/>
        <pt x="522" y="351" on="1"/>
        <pt x="722" y="351" on="1"/>
        <pt x="722" y="266" on="1"/>
        <pt x="522" y="266" on="1"/>
        <pt x="522" y="90" on="1"/>
        <pt x="767" y="90" on="1"/>
        <pt x="767" y="0" on="1"/>
        <pt x="291" y="0" on="1"/>
        <pt x="212" y="0" on="0"/>
        <pt x="123" y="23" on="0"/>
        <pt x="68" y="96" on="0"/>
        <pt x="51" y="210" on="0"/>
        <pt x="51" y="414" on="0"/>
        <pt x="68" y="528" on="0"/>
        <pt x="123" y="602" on="0"/>
        <pt x="212" y="625" on="0"/>
      </contour>
      <contour>
        <pt x="161" y="482" on="1"/>
        <pt x="161" y="90" on="1"/>
        <pt x="344" y="90" on="1"/>
        <pt x="385" y="90" on="0"/>
        <pt x="422" y="109" on="0"/>
        <pt x="422" y="143" on="1"/>
        <pt x="422" y="535" on="1"/>
        <pt x="238" y="535" on="1"/>
        <pt x="198" y="535" on="0"/>
        <pt x="161" y="516" on="0"/>
      </contour>
    </TTGlyph>
    <TTGlyph name="Oacute" xMin="50" yMin="-15" xMax="531" yMax="822">
      <contour>
        <pt x="146" y="-15" on="0"/>
        <pt x="50" y="117" on="0"/>
        <pt x="50" y="508" on="0"/>
        <pt x="146" y="640" on="0"/>
        <pt x="434" y="640" on="0"/>
        <pt x="531" y="507" on="0"/>
        <pt x="531" y="117" on="0"/>
        <pt x="434" y="-15" on="0"/>
      </contour>
      <contour>
        <pt x="160" y="486" on="1"/>
        <pt x="160" y="86" on="1"/>
        <pt x="343" y="86" on="1"/>
        <pt x="384" y="86" on="0"/>
        <pt x="421" y="105" on="0"/>
        <pt x="421" y="139" on="1"/>
        <pt x="421" y="539" on="1"/>
        <pt x="237" y="539" on="1"/>
        <pt x="197" y="539" on="0"/>
        <pt x="160" y="520" on="0"/>
      </contour>
      <contour>
        <pt x="336" y="818" on="1"/>
        <pt x="341" y="822" on="0"/>
        <pt x="348" y="822" on="0"/>
        <pt x="352" y="817" on="1"/>
        <pt x="396" y="763" on="1"/>
        <pt x="402" y="755" on="0"/>
        <pt x="402" y="748" on="0"/>
        <pt x="398" y="744" on="1"/>
        <pt x="368" y="719" on="1"/>
        <pt x="359" y="712" on="0"/>
        <pt x="346" y="709" on="1"/>
        <pt x="206" y="674" on="1"/>
        <pt x="184" y="708" on="1"/>
      </contour>
    </TTGlyph>
    <TTGlyph name="Obreve" xMin="50" yMin="-15" xMax="531" yMax="811">
      <contour>
        <pt x="146" y="-15" on="0"/>
        <pt x="50" y="117" on="0"/>
        <pt x="50" y="508" on="0"/>
        <pt x="146" y="640" on="0"/>
        <pt x="434" y="640" on="0"/>
        <pt x="531" y="507" on="0"/>
        <pt x="531" y="117" on="0"/>
        <pt x="434" y="-15" on="0"/>
      </contour>
      <contour>
        <pt x="160" y="486" on="1"/>
        <pt x="160" y="86" on="1"/>
        <pt x="343" y="86" on="1"/>
        <pt x="384" y="86" on="0"/>
        <pt x="421" y="105" on="0"/>
        <pt x="421" y="139" on="1"/>
        <pt x="421" y="539" on="1"/>
        <pt x="237" y="539" on="1"/>
        <pt x="197" y="539" on="0"/>
        <pt x="160" y="520" on="0"/>
      </contour>
      <contour>
        <pt x="273" y="765" on="0"/>
        <pt x="307" y="765" on="0"/>
        <pt x="337" y="789" on="0"/>
        <pt x="343" y="811" on="1"/>
        <pt x="408" y="800" on="1"/>
        <pt x="395" y="746" on="0"/>
        <pt x="333" y="692" on="0"/>
        <pt x="290" y="692" on="1"/>
        <pt x="195" y="692" on="0"/>
        <pt x="172" y="800" on="1"/>
        <pt x="237" y="811" on="1"/>
        <pt x="243" y="789" on="0"/>
      </contour>
    </TTGlyph>
    <TTGlyph name="Ocircumflex" xMin="50" yMin="-15" xMax="531" yMax="836">
      <contour>
        <pt x="146" y="-15" on="0"/>
        <pt x="50" y="117" on="0"/>
        <pt x="50" y="508" on="0"/>
        <pt x="146" y="640" on="0"/>
        <pt x="434" y="640" on="0"/>
        <pt x="531" y="507" on="0"/>
        <pt x="531" y="117" on="0"/>
        <pt x="434" y="-15" on="0"/>
      </contour>
      <contour>
        <pt x="160" y="486" on="1"/>
        <pt x="160" y="86" on="1"/>
        <pt x="343" y="86" on="1"/>
        <pt x="384" y="86" on="0"/>
        <pt x="421" y="105" on="0"/>
        <pt x="421" y="139" on="1"/>
        <pt x="421" y="539" on="1"/>
        <pt x="237" y="539" on="1"/>
        <pt x="197" y="539" on="0"/>
        <pt x="160" y="520" on="0"/>
      </contour>
      <contour>
        <pt x="281" y="836" on="1"/>
        <pt x="299" y="836" on="1"/>
        <pt x="304" y="836" on="0"/>
        <pt x="309" y="830" on="1"/>
        <pt x="423" y="714" on="1"/>
        <pt x="383" y="680" on="1"/>
        <pt x="290" y="744" on="1"/>
        <pt x="197" y="680" on="1"/>
        <pt x="157" y="714" on="1"/>
        <pt x="271" y="830" on="1"/>
        <pt x="276" y="836" on="0"/>
      </contour>
    </TTGlyph>
    <TTGlyph name="Odieresis" xMin="50" yMin="-15" xMax="531" yMax="814">
      <contour>
        <pt x="146" y="-15" on="0"/>
        <pt x="50" y="117" on="0"/>
        <pt x="50" y="508" on="0"/>
        <pt x="146" y="640" on="0"/>
        <pt x="434" y="640" on="0"/>
        <pt x="531" y="507" on="0"/>
        <pt x="531" y="117" on="0"/>
        <pt x="434" y="-15" on="0"/>
      </contour>
      <contour>
        <pt x="160" y="486" on="1"/>
        <pt x="160" y="86" on="1"/>
        <pt x="343" y="86" on="1"/>
        <pt x="384" y="86" on="0"/>
        <pt x="421" y="105" on="0"/>
        <pt x="421" y="139" on="1"/>
        <pt x="421" y="539" on="1"/>
        <pt x="237" y="539" on="1"/>
        <pt x="197" y="539" on="0"/>
        <pt x="160" y="520" on="0"/>
      </contour>
      <contour>
        <pt x="147" y="723" on="0"/>
        <pt x="147" y="789" on="0"/>
        <pt x="167" y="814" on="0"/>
        <pt x="230" y="814" on="0"/>
        <pt x="250" y="789" on="0"/>
        <pt x="250" y="723" on="0"/>
        <pt x="230" y="699" on="0"/>
        <pt x="167" y="699" on="0"/>
      </contour>
      <contour>
        <pt x="330" y="723" on="0"/>
        <pt x="330" y="789" on="0"/>
        <pt x="350" y="814" on="0"/>
        <pt x="413" y="814" on="0"/>
        <pt x="433" y="789" on="0"/>
        <pt x="433" y="723" on="0"/>
        <pt x="413" y="699" on="0"/>
        <pt x="350" y="699" on="0"/>
      </contour>
    </TTGlyph>
    <TTGlyph name="Ograve" xMin="50" yMin="-15" xMax="531" yMax="827">
      <contour>
        <pt x="146" y="-15" on="0"/>
        <pt x="50" y="117" on="0"/>
        <pt x="50" y="508" on="0"/>
        <pt x="146" y="640" on="0"/>
        <pt x="434" y="640" on="0"/>
        <pt x="531" y="507" on="0"/>
        <pt x="531" y="117" on="0"/>
        <pt x="434" y="-15" on="0"/>
      </contour>
      <contour>
        <pt x="160" y="486" on="1"/>
        <pt x="160" y="86" on="1"/>
        <pt x="343" y="86" on="1"/>
        <pt x="384" y="86" on="0"/>
        <pt x="421" y="105" on="0"/>
        <pt x="421" y="139" on="1"/>
        <pt x="421" y="539" on="1"/>
        <pt x="237" y="539" on="1"/>
        <pt x="197" y="539" on="0"/>
        <pt x="160" y="520" on="0"/>
      </contour>
      <contour>
        <pt x="152" y="749" on="1"/>
        <pt x="148" y="753" on="0"/>
        <pt x="148" y="760" on="0"/>
        <pt x="154" y="768" on="1"/>
        <pt x="198" y="822" on="1"/>
        <pt x="202" y="827" on="0"/>
        <pt x="209" y="827" on="0"/>
        <pt x="214" y="823" on="1"/>
        <pt x="366" y="713" on="1"/>
        <pt x="344" y="679" on="1"/>
        <pt x="204" y="714" on="1"/>
        <pt x="191" y="717" on="0"/>
        <pt x="182" y="724" on="1"/>
      </contour>
    </TTGlyph>
    <TTGlyph name="Ohungarumlaut" xMin="50" yMin="-15" xMax="544" yMax="837">
      <contour>
        <pt x="146" y="-15" on="0"/>
        <pt x="50" y="117" on="0"/>
        <pt x="50" y="508" on="0"/>
        <pt x="146" y="640" on="0"/>
        <pt x="434" y="640" on="0"/>
        <pt x="531" y="507" on="0"/>
        <pt x="531" y="117" on="0"/>
        <pt x="434" y="-15" on="0"/>
      </contour>
      <contour>
        <pt x="160" y="486" on="1"/>
        <pt x="160" y="86" on="1"/>
        <pt x="343" y="86" on="1"/>
        <pt x="384" y="86" on="0"/>
        <pt x="421" y="105" on="0"/>
        <pt x="421" y="139" on="1"/>
        <pt x="421" y="539" on="1"/>
        <pt x="237" y="539" on="1"/>
        <pt x="197" y="539" on="0"/>
        <pt x="160" y="520" on="0"/>
      </contour>
      <contour>
        <pt x="256" y="833" on="1"/>
        <pt x="261" y="837" on="0"/>
        <pt x="268" y="837" on="0"/>
        <pt x="272" y="832" on="1"/>
        <pt x="316" y="778" on="1"/>
        <pt x="322" y="770" on="0"/>
        <pt x="322" y="763" on="0"/>
        <pt x="318" y="759" on="1"/>
        <pt x="288" y="734" on="1"/>
        <pt x="279" y="727" on="0"/>
        <pt x="266" y="724" on="1"/>
        <pt x="145" y="694" on="1"/>
        <pt x="123" y="728" on="1"/>
      </contour>
      <contour>
        <pt x="478" y="833" on="1"/>
        <pt x="483" y="837" on="0"/>
        <pt x="490" y="837" on="0"/>
        <pt x="494" y="832" on="1"/>
        <pt x="538" y="778" on="1"/>
        <pt x="544" y="770" on="0"/>
        <pt x="544" y="763" on="0"/>
        <pt x="540" y="759" on="1"/>
        <pt x="510" y="734" on="1"/>
        <pt x="501" y="727" on="0"/>
        <pt x="488" y="724" on="1"/>
        <pt x="367" y="694" on="1"/>
        <pt x="345" y="728" on="1"/>
      </contour>
    </TTGlyph>
    <TTGlyph name="Omacron" xMin="50" yMin="-15" xMax="531" yMax="792">
      <contour>
        <pt x="146" y="-15" on="0"/>
        <pt x="50" y="117" on="0"/>
        <pt x="50" y="508" on="0"/>
        <pt x="146" y="640" on="0"/>
        <pt x="434" y="640" on="0"/>
        <pt x="531" y="507" on="0"/>
        <pt x="531" y="117" on="0"/>
        <pt x="434" y="-15" on="0"/>
      </contour>
      <contour>
        <pt x="160" y="486" on="1"/>
        <pt x="160" y="86" on="1"/>
        <pt x="343" y="86" on="1"/>
        <pt x="384" y="86" on="0"/>
        <pt x="421" y="105" on="0"/>
        <pt x="421" y="139" on="1"/>
        <pt x="421" y="539" on="1"/>
        <pt x="237" y="539" on="1"/>
        <pt x="197" y="539" on="0"/>
        <pt x="160" y="520" on="0"/>
      </contour>
      <contour>
        <pt x="412" y="711" on="1"/>
        <pt x="214" y="711" on="1"/>
        <pt x="185" y="711" on="0"/>
        <pt x="169" y="730" on="0"/>
        <pt x="169" y="757" on="1"/>
        <pt x="169" y="792" on="1"/>
        <pt x="368" y="792" on="1"/>
        <pt x="397" y="792" on="0"/>
        <pt x="412" y="774" on="0"/>
        <pt x="412" y="747" on="1"/>
      </contour>
    </TTGlyph>
    <TTGlyph name="Omega" xMin="45" yMin="0" xMax="618" yMax="640">
      <contour>
        <pt x="45" y="0" on="1"/>
        <pt x="45" y="73" on="1"/>
        <pt x="175" y="81" on="1"/>
        <pt x="181" y="139" on="1"/>
        <pt x="107" y="170" on="0"/>
        <pt x="59" y="280" on="0"/>
        <pt x="59" y="434" on="0"/>
        <pt x="83" y="523" on="0"/>
        <pt x="140" y="600" on="0"/>
        <pt x="252" y="640" on="0"/>
        <pt x="414" y="640" on="0"/>
        <pt x="526" y="600" on="0"/>
        <pt x="584" y="523" on="0"/>
        <pt x="607" y="434" on="0"/>
        <pt x="607" y="280" on="0"/>
        <pt x="557" y="168" on="0"/>
        <pt x="482" y="137" on="1"/>
        <pt x="488" y="81" on="1"/>
        <pt x="618" y="73" on="1"/>
        <pt x="618" y="0" on="1"/>
        <pt x="425" y="0" on="1"/>
        <pt x="410" y="210" on="1"/>
        <pt x="448" y="210" on="0"/>
        <pt x="484" y="230" on="0"/>
        <pt x="484" y="264" on="1"/>
        <pt x="484" y="530" on="1"/>
        <pt x="253" y="530" on="1"/>
        <pt x="214" y="530" on="0"/>
        <pt x="179" y="507" on="0"/>
        <pt x="179" y="467" on="1"/>
        <pt x="179" y="273" on="1"/>
        <pt x="179" y="233" on="0"/>
        <pt x="214" y="210" on="0"/>
        <pt x="253" y="210" on="1"/>
        <pt x="238" y="0" on="1"/>
      </contour>
    </TTGlyph>
    <TTGlyph name="Oslash" xMin="50" yMin="-40" xMax="531" yMax="665">
      <contour>
        <pt x="531" y="312" on="1"/>
        <pt x="531" y="117" on="0"/>
        <pt x="434" y="-15" on="0"/>
        <pt x="290" y="-15" on="1"/>
        <pt x="217" y="-15" on="0"/>
        <pt x="174" y="-1" on="1"/>
        <pt x="168" y="-15" on="1"/>
        <pt x="163" y="-25" on="0"/>
        <pt x="159" y="-29" on="1"/>
        <pt x="148" y="-40" on="0"/>
        <pt x="125" y="-40" on="1"/>
        <pt x="84" y="-40" on="1"/>
        <pt x="118" y="30" on="1"/>
        <pt x="80" y="63" on="0"/>
        <pt x="50" y="195" on="0"/>
        <pt x="50" y="312" on="1"/>
        <pt x="50" y="508" on="0"/>
        <pt x="146" y="640" on="0"/>
        <pt x="290" y="640" on="1"/>
        <pt x="363" y="640" on="0"/>
        <pt x="406" y="626" on="1"/>
        <pt x="413" y="640" on="1"/>
        <pt x="418" y="650" on="0"/>
        <pt x="422" y="654" on="1"/>
        <pt x="433" y="665" on="0"/>
        <pt x="456" y="665" on="1"/>
        <pt x="497" y="665" on="1"/>
        <pt x="463" y="595" on="1"/>
        <pt x="500" y="561" on="0"/>
        <pt x="531" y="428" on="0"/>
      </contour>
      <contour>
        <pt x="160" y="486" on="1"/>
        <pt x="160" y="117" on="1"/>
        <pt x="364" y="539" on="1"/>
        <pt x="237" y="539" on="1"/>
        <pt x="197" y="539" on="0"/>
        <pt x="160" y="520" on="0"/>
      </contour>
      <contour>
        <pt x="343" y="86" on="1"/>
        <pt x="384" y="86" on="0"/>
        <pt x="421" y="105" on="0"/>
        <pt x="421" y="139" on="1"/>
        <pt x="421" y="508" on="1"/>
        <pt x="217" y="86" on="1"/>
      </contour>
    </TTGlyph>
    <TTGlyph name="Oslashacute" xMin="50" yMin="-40" xMax="531" yMax="837">
      <contour>
        <pt x="531" y="312" on="1"/>
        <pt x="531" y="117" on="0"/>
        <pt x="434" y="-15" on="0"/>
        <pt x="290" y="-15" on="1"/>
        <pt x="206" y="-15" on="0"/>
        <pt x="157" y="5" on="1"/>
        <pt x="147" y="-15" on="1"/>
        <pt x="142" y="-25" on="0"/>
        <pt x="138" y="-29" on="1"/>
        <pt x="127" y="-40" on="0"/>
        <pt x="104" y="-40" on="1"/>
        <pt x="63" y="-40" on="1"/>
        <pt x="103" y="44" on="1"/>
        <pt x="50" y="108" on="0"/>
        <pt x="50" y="508" on="0"/>
        <pt x="146" y="640" on="0"/>
        <pt x="290" y="640" on="1"/>
        <pt x="346" y="640" on="0"/>
        <pt x="387" y="631" on="1"/>
        <pt x="392" y="640" on="1"/>
        <pt x="397" y="650" on="0"/>
        <pt x="401" y="654" on="1"/>
        <pt x="412" y="665" on="0"/>
        <pt x="435" y="665" on="1"/>
        <pt x="476" y="665" on="1"/>
        <pt x="448" y="606" on="1"/>
        <pt x="494" y="575" on="0"/>
        <pt x="531" y="438" on="0"/>
      </contour>
      <contour>
        <pt x="421" y="539" on="1"/>
        <pt x="415" y="539" on="1"/>
        <pt x="196" y="86" on="1"/>
        <pt x="343" y="86" on="1"/>
        <pt x="384" y="86" on="0"/>
        <pt x="421" y="105" on="0"/>
        <pt x="421" y="139" on="1"/>
      </contour>
      <contour>
        <pt x="160" y="486" on="1"/>
        <pt x="160" y="160" on="1"/>
        <pt x="343" y="539" on="1"/>
        <pt x="237" y="539" on="1"/>
        <pt x="197" y="539" on="0"/>
        <pt x="160" y="520" on="0"/>
      </contour>
      <contour>
        <pt x="353" y="833" on="1"/>
        <pt x="358" y="837" on="0"/>
        <pt x="365" y="837" on="0"/>
        <pt x="369" y="832" on="1"/>
        <pt x="413" y="778" on="1"/>
        <pt x="419" y="770" on="0"/>
        <pt x="419" y="763" on="0"/>
        <pt x="415" y="759" on="1"/>
        <pt x="385" y="734" on="1"/>
        <pt x="376" y="727" on="0"/>
        <pt x="363" y="724" on="1"/>
        <pt x="223" y="689" on="1"/>
        <pt x="201" y="723" on="1"/>
      </contour>
    </TTGlyph>
    <TTGlyph name="Otilde" xMin="50" yMin="-15" xMax="531" yMax="814">
      <contour>
        <pt x="146" y="-15" on="0"/>
        <pt x="50" y="117" on="0"/>
        <pt x="50" y="508" on="0"/>
        <pt x="146" y="640" on="0"/>
        <pt x="434" y="640" on="0"/>
        <pt x="531" y="507" on="0"/>
        <pt x="531" y="117" on="0"/>
        <pt x="434" y="-15" on="0"/>
      </contour>
      <contour>
        <pt x="160" y="486" on="1"/>
        <pt x="160" y="86" on="1"/>
        <pt x="343" y="86" on="1"/>
        <pt x="384" y="86" on="0"/>
        <pt x="421" y="105" on="0"/>
        <pt x="421" y="139" on="1"/>
        <pt x="421" y="539" on="1"/>
        <pt x="237" y="539" on="1"/>
        <pt x="197" y="539" on="0"/>
        <pt x="160" y="520" on="0"/>
      </contour>
      <contour>
        <pt x="362" y="703" on="0"/>
        <pt x="328" y="688" on="0"/>
        <pt x="288" y="688" on="0"/>
        <pt x="256" y="719" on="1"/>
        <pt x="241" y="731" on="1"/>
        <pt x="175" y="698" on="1"/>
        <pt x="144" y="749" on="1"/>
        <pt x="174" y="770" on="1"/>
        <pt x="219" y="799" on="0"/>
        <pt x="251" y="814" on="0"/>
        <pt x="290" y="814" on="0"/>
        <pt x="324" y="783" on="1"/>
        <pt x="339" y="771" on="1"/>
        <pt x="405" y="804" on="1"/>
        <pt x="436" y="753" on="1"/>
        <pt x="406" y="732" on="1"/>
      </contour>
    </TTGlyph>
    <TTGlyph name="P" xMin="70" yMin="0" xMax="475" yMax="625">
      <contour>
        <pt x="290" y="196" on="1"/>
        <pt x="170" y="196" on="1"/>
        <pt x="170" y="0" on="1"/>
        <pt x="70" y="0" on="1"/>
        <pt x="70" y="625" on="1"/>
        <pt x="275" y="625" on="1"/>
        <pt x="396" y="625" on="0"/>
        <pt x="475" y="527" on="0"/>
        <pt x="475" y="416" on="1"/>
        <pt x="475" y="366" on="0"/>
        <pt x="464" y="300" on="0"/>
        <pt x="447" y="266" on="1"/>
        <pt x="413" y="196" on="0"/>
      </contour>
      <contour>
        <pt x="170" y="535" on="1"/>
        <pt x="170" y="286" on="1"/>
        <pt x="296" y="286" on="1"/>
        <pt x="332" y="286" on="0"/>
        <pt x="365" y="301" on="0"/>
        <pt x="365" y="328" on="1"/>
        <pt x="365" y="493" on="1"/>
        <pt x="365" y="520" on="0"/>
        <pt x="332" y="535" on="0"/>
        <pt x="296" y="535" on="1"/>
      </contour>
    </TTGlyph>
    <TTGlyph name="Q" xMin="50" yMin="-40" xMax="565" yMax="640">
      <contour>
        <pt x="50" y="312" on="1"/>
        <pt x="50" y="508" on="0"/>
        <pt x="146" y="640" on="0"/>
        <pt x="434" y="640" on="0"/>
        <pt x="531" y="507" on="0"/>
        <pt x="531" y="312" on="1"/>
        <pt x="531" y="142" on="0"/>
        <pt x="454" y="65" on="1"/>
        <pt x="565" y="15" on="1"/>
        <pt x="542" y="-40" on="1"/>
        <pt x="367" y="-2" on="1"/>
        <pt x="367" y="24" on="1"/>
        <pt x="290" y="0" on="1"/>
        <pt x="215" y="0" on="0"/>
        <pt x="127" y="24" on="0"/>
        <pt x="70" y="95" on="0"/>
        <pt x="50" y="212" on="0"/>
      </contour>
      <contour>
        <pt x="160" y="486" on="1"/>
        <pt x="160" y="96" on="1"/>
        <pt x="343" y="96" on="1"/>
        <pt x="384" y="96" on="0"/>
        <pt x="421" y="115" on="0"/>
        <pt x="421" y="149" on="1"/>
        <pt x="421" y="539" on="1"/>
        <pt x="237" y="539" on="1"/>
        <pt x="197" y="539" on="0"/>
        <pt x="160" y="520" on="0"/>
      </contour>
    </TTGlyph>
    <TTGlyph name="R" xMin="70" yMin="0" xMax="495" yMax="625">
      <contour>
        <pt x="170" y="221" on="1"/>
        <pt x="170" y="0" on="1"/>
        <pt x="70" y="0" on="1"/>
        <pt x="70" y="625" on="1"/>
        <pt x="299" y="625" on="1"/>
        <pt x="395" y="625" on="0"/>
        <pt x="473" y="519" on="0"/>
        <pt x="473" y="424" on="1"/>
        <pt x="473" y="290" on="0"/>
        <pt x="380" y="243" on="1"/>
        <pt x="495" y="0" on="1"/>
        <pt x="385" y="0" on="1"/>
        <pt x="286" y="221" on="1"/>
      </contour>
      <contour>
        <pt x="170" y="535" on="1"/>
        <pt x="170" y="311" on="1"/>
        <pt x="296" y="311" on="1"/>
        <pt x="332" y="311" on="0"/>
        <pt x="365" y="326" on="0"/>
        <pt x="365" y="353" on="1"/>
        <pt x="365" y="493" on="1"/>
        <pt x="365" y="520" on="0"/>
        <pt x="332" y="535" on="0"/>
        <pt x="296" y="535" on="1"/>
      </contour>
    </TTGlyph>
    <TTGlyph name="Racute" xMin="70" yMin="0" xMax="495" yMax="837">
      <contour>
        <pt x="170" y="221" on="1"/>
        <pt x="170" y="0" on="1"/>
        <pt x="70" y="0" on="1"/>
        <pt x="70" y="625" on="1"/>
        <pt x="299" y="625" on="1"/>
        <pt x="395" y="625" on="0"/>
        <pt x="473" y="519" on="0"/>
        <pt x="473" y="424" on="1"/>
        <pt x="473" y="290" on="0"/>
        <pt x="380" y="243" on="1"/>
        <pt x="495" y="0" on="1"/>
        <pt x="385" y="0" on="1"/>
        <pt x="286" y="221" on="1"/>
      </contour>
      <contour>
        <pt x="170" y="535" on="1"/>
        <pt x="170" y="311" on="1"/>
        <pt x="296" y="311" on="1"/>
        <pt x="332" y="311" on="0"/>
        <pt x="365" y="326" on="0"/>
        <pt x="365" y="353" on="1"/>
        <pt x="365" y="493" on="1"/>
        <pt x="365" y="520" on="0"/>
        <pt x="332" y="535" on="0"/>
        <pt x="296" y="535" on="1"/>
      </contour>
      <contour>
        <pt x="328" y="833" on="1"/>
        <pt x="333" y="837" on="0"/>
        <pt x="340" y="837" on="0"/>
        <pt x="344" y="832" on="1"/>
        <pt x="388" y="778" on="1"/>
        <pt x="394" y="770" on="0"/>
        <pt x="394" y="763" on="0"/>
        <pt x="390" y="759" on="1"/>
        <pt x="360" y="734" on="1"/>
        <pt x="351" y="727" on="0"/>
        <pt x="338" y="724" on="1"/>
        <pt x="198" y="689" on="1"/>
        <pt x="176" y="723" on="1"/>
      </contour>
    </TTGlyph>
    <TTGlyph name="Rcaron" xMin="70" yMin="0" xMax="495" yMax="841">
      <contour>
        <pt x="170" y="221" on="1"/>
        <pt x="170" y="0" on="1"/>
        <pt x="70" y="0" on="1"/>
        <pt x="70" y="625" on="1"/>
        <pt x="299" y="625" on="1"/>
        <pt x="395" y="625" on="0"/>
        <pt x="473" y="519" on="0"/>
        <pt x="473" y="424" on="1"/>
        <pt x="473" y="290" on="0"/>
        <pt x="380" y="243" on="1"/>
        <pt x="495" y="0" on="1"/>
        <pt x="385" y="0" on="1"/>
        <pt x="286" y="221" on="1"/>
      </contour>
      <contour>
        <pt x="170" y="535" on="1"/>
        <pt x="170" y="311" on="1"/>
        <pt x="296" y="311" on="1"/>
        <pt x="332" y="311" on="0"/>
        <pt x="365" y="326" on="0"/>
        <pt x="365" y="353" on="1"/>
        <pt x="365" y="493" on="1"/>
        <pt x="365" y="520" on="0"/>
        <pt x="332" y="535" on="0"/>
        <pt x="296" y="535" on="1"/>
      </contour>
      <contour>
        <pt x="274" y="685" on="1"/>
        <pt x="256" y="685" on="1"/>
        <pt x="250" y="685" on="0"/>
        <pt x="246" y="691" on="1"/>
        <pt x="132" y="807" on="1"/>
        <pt x="172" y="841" on="1"/>
        <pt x="265" y="777" on="1"/>
        <pt x="358" y="841" on="1"/>
        <pt x="398" y="807" on="1"/>
        <pt x="284" y="691" on="1"/>
        <pt x="280" y="685" on="0"/>
      </contour>
    </TTGlyph>
    <TTGlyph name="S" xMin="45" yMin="-10" xMax="462" yMax="640">
      <contour>
        <pt x="63" y="106" on="1"/>
        <pt x="155" y="83" on="0"/>
        <pt x="307" y="83" on="0"/>
        <pt x="352" y="89" on="1"/>
        <pt x="352" y="252" on="1"/>
        <pt x="262" y="259" on="1"/>
        <pt x="135" y="269" on="0"/>
        <pt x="54" y="345" on="0"/>
        <pt x="54" y="550" on="0"/>
        <pt x="134" y="640" on="0"/>
        <pt x="333" y="640" on="0"/>
        <pt x="428" y="621" on="1"/>
        <pt x="413" y="530" on="1"/>
        <pt x="320" y="545" on="0"/>
        <pt x="203" y="545" on="0"/>
        <pt x="164" y="540" on="1"/>
        <pt x="164" y="372" on="1"/>
        <pt x="266" y="365" on="1"/>
        <pt x="389" y="357" on="0"/>
        <pt x="428" y="308" on="1"/>
        <pt x="448" y="282" on="0"/>
        <pt x="462" y="219" on="0"/>
        <pt x="462" y="119" on="0"/>
        <pt x="440" y="50" on="0"/>
        <pt x="408" y="13" on="0"/>
        <pt x="346" y="-6" on="0"/>
        <pt x="296" y="-10" on="0"/>
        <pt x="145" y="-10" on="0"/>
        <pt x="45" y="10" on="1"/>
      </contour>
    </TTGlyph>
    <TTGlyph name="Sacute" xMin="45" yMin="-10" xMax="462" yMax="837">
      <contour>
        <pt x="63" y="106" on="1"/>
        <pt x="155" y="83" on="0"/>
        <pt x="307" y="83" on="0"/>
        <pt x="352" y="89" on="1"/>
        <pt x="352" y="252" on="1"/>
        <pt x="262" y="259" on="1"/>
        <pt x="135" y="269" on="0"/>
        <pt x="54" y="345" on="0"/>
        <pt x="54" y="550" on="0"/>
        <pt x="134" y="640" on="0"/>
        <pt x="333" y="640" on="0"/>
        <pt x="428" y="621" on="1"/>
        <pt x="413" y="530" on="1"/>
        <pt x="320" y="545" on="0"/>
        <pt x="203" y="545" on="0"/>
        <pt x="164" y="540" on="1"/>
        <pt x="164" y="372" on="1"/>
        <pt x="266" y="365" on="1"/>
        <pt x="389" y="357" on="0"/>
        <pt x="428" y="308" on="1"/>
        <pt x="448" y="282" on="0"/>
        <pt x="462" y="219" on="0"/>
        <pt x="462" y="119" on="0"/>
        <pt x="440" y="50" on="0"/>
        <pt x="408" y="13" on="0"/>
        <pt x="346" y="-6" on="0"/>
        <pt x="296" y="-10" on="0"/>
        <pt x="145" y="-10" on="0"/>
        <pt x="45" y="10" on="1"/>
      </contour>
      <contour>
        <pt x="314" y="833" on="1"/>
        <pt x="319" y="837" on="0"/>
        <pt x="326" y="837" on="0"/>
        <pt x="330" y="832" on="1"/>
        <pt x="374" y="778" on="1"/>
        <pt x="380" y="770" on="0"/>
        <pt x="380" y="763" on="0"/>
        <pt x="376" y="759" on="1"/>
        <pt x="346" y="734" on="1"/>
        <pt x="337" y="727" on="0"/>
        <pt x="324" y="724" on="1"/>
        <pt x="184" y="689" on="1"/>
        <pt x="162" y="723" on="1"/>
      </contour>
    </TTGlyph>
    <TTGlyph name="Scaron" xMin="45" yMin="-10" xMax="462" yMax="840">
      <contour>
        <pt x="63" y="106" on="1"/>
        <pt x="155" y="83" on="0"/>
        <pt x="307" y="83" on="0"/>
        <pt x="352" y="89" on="1"/>
        <pt x="352" y="252" on="1"/>
        <pt x="262" y="259" on="1"/>
        <pt x="135" y="269" on="0"/>
        <pt x="54" y="345" on="0"/>
        <pt x="54" y="550" on="0"/>
        <pt x="134" y="640" on="0"/>
        <pt x="333" y="640" on="0"/>
        <pt x="428" y="621" on="1"/>
        <pt x="413" y="530" on="1"/>
        <pt x="320" y="545" on="0"/>
        <pt x="203" y="545" on="0"/>
        <pt x="164" y="540" on="1"/>
        <pt x="164" y="372" on="1"/>
        <pt x="266" y="365" on="1"/>
        <pt x="389" y="357" on="0"/>
        <pt x="428" y="308" on="1"/>
        <pt x="448" y="282" on="0"/>
        <pt x="462" y="219" on="0"/>
        <pt x="462" y="119" on="0"/>
        <pt x="440" y="50" on="0"/>
        <pt x="408" y="13" on="0"/>
        <pt x="346" y="-6" on="0"/>
        <pt x="296" y="-10" on="0"/>
        <pt x="145" y="-10" on="0"/>
        <pt x="45" y="10" on="1"/>
      </contour>
      <contour>
        <pt x="262" y="684" on="1"/>
        <pt x="244" y="684" on="1"/>
        <pt x="238" y="684" on="0"/>
        <pt x="234" y="690" on="1"/>
        <pt x="120" y="806" on="1"/>
        <pt x="160" y="840" on="1"/>
        <pt x="253" y="776" on="1"/>
        <pt x="346" y="840" on="1"/>
        <pt x="386" y="806" on="1"/>
        <pt x="272" y="690" on="1"/>
        <pt x="268" y="684" on="0"/>
      </contour>
    </TTGlyph>
    <TTGlyph name="Scedilla" xMin="45" yMin="-165" xMax="462" yMax="640">
      <contour>
        <pt x="234" y="-66" on="1"/>
        <pt x="234" y="-10" on="1"/>
        <pt x="136" y="-8" on="0"/>
        <pt x="45" y="10" on="1"/>
        <pt x="63" y="106" on="1"/>
        <pt x="155" y="83" on="0"/>
        <pt x="307" y="83" on="0"/>
        <pt x="352" y="89" on="1"/>
        <pt x="352" y="252" on="1"/>
        <pt x="262" y="259" on="1"/>
        <pt x="135" y="269" on="0"/>
        <pt x="54" y="345" on="0"/>
        <pt x="54" y="550" on="0"/>
        <pt x="134" y="640" on="0"/>
        <pt x="333" y="640" on="0"/>
        <pt x="428" y="621" on="1"/>
        <pt x="413" y="530" on="1"/>
        <pt x="320" y="545" on="0"/>
        <pt x="203" y="545" on="0"/>
        <pt x="164" y="540" on="1"/>
        <pt x="164" y="372" on="1"/>
        <pt x="266" y="365" on="1"/>
        <pt x="389" y="357" on="0"/>
        <pt x="428" y="308" on="1"/>
        <pt x="448" y="282" on="0"/>
        <pt x="462" y="219" on="0"/>
        <pt x="462" y="114" on="0"/>
        <pt x="438" y="41" on="0"/>
        <pt x="388" y="5" on="0"/>
        <pt x="332" y="-8" on="0"/>
        <pt x="289" y="-9" on="1"/>
        <pt x="313" y="-40" on="0"/>
        <pt x="313" y="-117" on="0"/>
        <pt x="264" y="-165" on="0"/>
        <pt x="183" y="-165" on="0"/>
        <pt x="147" y="-149" on="1"/>
        <pt x="156" y="-98" on="1"/>
        <pt x="191" y="-98" on="1"/>
        <pt x="214" y="-98" on="0"/>
        <pt x="234" y="-86" on="0"/>
      </contour>
    </TTGlyph>
    <TTGlyph name="Scircumflex" xMin="45" yMin="-10" xMax="462" yMax="837">
      <contour>
        <pt x="63" y="106" on="1"/>
        <pt x="155" y="83" on="0"/>
        <pt x="307" y="83" on="0"/>
        <pt x="352" y="89" on="1"/>
        <pt x="352" y="252" on="1"/>
        <pt x="262" y="259" on="1"/>
        <pt x="135" y="269" on="0"/>
        <pt x="54" y="345" on="0"/>
        <pt x="54" y="550" on="0"/>
        <pt x="134" y="640" on="0"/>
        <pt x="333" y="640" on="0"/>
        <pt x="428" y="621" on="1"/>
        <pt x="413" y="530" on="1"/>
        <pt x="320" y="545" on="0"/>
        <pt x="203" y="545" on="0"/>
        <pt x="164" y="540" on="1"/>
        <pt x="164" y="372" on="1"/>
        <pt x="266" y="365" on="1"/>
        <pt x="389" y="357" on="0"/>
        <pt x="428" y="308" on="1"/>
        <pt x="448" y="282" on="0"/>
        <pt x="462" y="219" on="0"/>
        <pt x="462" y="119" on="0"/>
        <pt x="440" y="50" on="0"/>
        <pt x="408" y="13" on="0"/>
        <pt x="346" y="-6" on="0"/>
        <pt x="296" y="-10" on="0"/>
        <pt x="145" y="-10" on="0"/>
        <pt x="45" y="10" on="1"/>
      </contour>
      <contour>
        <pt x="242" y="837" on="1"/>
        <pt x="260" y="837" on="1"/>
        <pt x="266" y="837" on="0"/>
        <pt x="270" y="831" on="1"/>
        <pt x="384" y="715" on="1"/>
        <pt x="344" y="681" on="1"/>
        <pt x="251" y="745" on="1"/>
        <pt x="158" y="681" on="1"/>
        <pt x="118" y="715" on="1"/>
        <pt x="232" y="831" on="1"/>
        <pt x="236" y="837" on="0"/>
      </contour>
    </TTGlyph>
    <TTGlyph name="T" xMin="10" yMin="0" xMax="400" yMax="625">
      <contour>
        <pt x="400" y="535" on="1"/>
        <pt x="255" y="535" on="1"/>
        <pt x="255" y="0" on="1"/>
        <pt x="155" y="0" on="1"/>
        <pt x="155" y="535" on="1"/>
        <pt x="10" y="535" on="1"/>
        <pt x="10" y="625" on="1"/>
        <pt x="400" y="625" on="1"/>
      </contour>
    </TTGlyph>
    <TTGlyph name="Tbar" xMin="10" yMin="0" xMax="400" yMax="625">
      <contour>
        <pt x="30" y="241" on="1"/>
        <pt x="30" y="278" on="1"/>
        <pt x="30" y="295" on="0"/>
        <pt x="46" y="304" on="0"/>
        <pt x="68" y="304" on="1"/>
        <pt x="155" y="304" on="1"/>
        <pt x="155" y="535" on="1"/>
        <pt x="10" y="535" on="1"/>
        <pt x="10" y="625" on="1"/>
        <pt x="400" y="625" on="1"/>
        <pt x="400" y="535" on="1"/>
        <pt x="255" y="535" on="1"/>
        <pt x="255" y="304" on="1"/>
        <pt x="381" y="304" on="1"/>
        <pt x="381" y="266" on="1"/>
        <pt x="381" y="249" on="0"/>
        <pt x="365" y="241" on="0"/>
        <pt x="343" y="241" on="1"/>
        <pt x="255" y="241" on="1"/>
        <pt x="255" y="0" on="1"/>
        <pt x="155" y="0" on="1"/>
        <pt x="155" y="241" on="1"/>
      </contour>
    </TTGlyph>
    <TTGlyph name="Tcaron" xMin="10" yMin="0" xMax="400" yMax="841">
      <contour>
        <pt x="400" y="535" on="1"/>
        <pt x="255" y="535" on="1"/>
        <pt x="255" y="0" on="1"/>
        <pt x="155" y="0" on="1"/>
        <pt x="155" y="535" on="1"/>
        <pt x="10" y="535" on="1"/>
        <pt x="10" y="625" on="1"/>
        <pt x="400" y="625" on="1"/>
      </contour>
      <contour>
        <pt x="214" y="685" on="1"/>
        <pt x="196" y="685" on="1"/>
        <pt x="190" y="685" on="0"/>
        <pt x="186" y="691" on="1"/>
        <pt x="72" y="807" on="1"/>
        <pt x="112" y="841" on="1"/>
        <pt x="205" y="777" on="1"/>
        <pt x="298" y="841" on="1"/>
        <pt x="338" y="807" on="1"/>
        <pt x="224" y="691" on="1"/>
        <pt x="219" y="685" on="0"/>
      </contour>
    </TTGlyph>
    <TTGlyph name="Thorn" xMin="70" yMin="0" xMax="474" yMax="625">
      <contour>
        <pt x="289" y="98" on="1"/>
        <pt x="169" y="98" on="1"/>
        <pt x="169" y="0" on="1"/>
        <pt x="70" y="0" on="1"/>
        <pt x="70" y="625" on="1"/>
        <pt x="169" y="625" on="1"/>
        <pt x="169" y="527" on="1"/>
        <pt x="274" y="527" on="1"/>
        <pt x="395" y="527" on="0"/>
        <pt x="474" y="429" on="0"/>
        <pt x="474" y="318" on="1"/>
        <pt x="474" y="268" on="0"/>
        <pt x="463" y="202" on="0"/>
        <pt x="446" y="168" on="1"/>
        <pt x="412" y="98" on="0"/>
      </contour>
      <contour>
        <pt x="169" y="437" on="1"/>
        <pt x="169" y="188" on="1"/>
        <pt x="295" y="188" on="1"/>
        <pt x="331" y="188" on="0"/>
        <pt x="364" y="203" on="0"/>
        <pt x="364" y="230" on="1"/>
        <pt x="364" y="395" on="1"/>
        <pt x="364" y="422" on="0"/>
        <pt x="331" y="437" on="0"/>
        <pt x="295" y="437" on="1"/>
      </contour>
    </TTGlyph>
    <TTGlyph name="U" xMin="65" yMin="-15" xMax="502" yMax="625">
      <contour>
        <pt x="502" y="625" on="1"/>
        <pt x="502" y="225" on="1"/>
        <pt x="502" y="101" on="0"/>
        <pt x="480" y="64" on="1"/>
        <pt x="454" y="18" on="0"/>
        <pt x="416" y="4" on="1"/>
        <pt x="363" y="-15" on="0"/>
        <pt x="239" y="-15" on="0"/>
        <pt x="173" y="-4" on="0"/>
        <pt x="126" y="13" on="0"/>
        <pt x="95" y="47" on="0"/>
        <pt x="77" y="80" on="0"/>
        <pt x="72" y="108" on="1"/>
        <pt x="65" y="156" on="0"/>
        <pt x="65" y="225" on="1"/>
        <pt x="65" y="625" on="1"/>
        <pt x="165" y="625" on="1"/>
        <pt x="165" y="86" on="1"/>
        <pt x="288" y="86" on="1"/>
        <pt x="353" y="86" on="0"/>
        <pt x="402" y="105" on="0"/>
        <pt x="402" y="139" on="1"/>
        <pt x="402" y="625" on="1"/>
      </contour>
    </TTGlyph>
    <TTGlyph name="Uacute" xMin="65" yMin="-15" xMax="502" yMax="822">
      <contour>
        <pt x="502" y="625" on="1"/>
        <pt x="502" y="225" on="1"/>
        <pt x="502" y="101" on="0"/>
        <pt x="480" y="64" on="1"/>
        <pt x="454" y="18" on="0"/>
        <pt x="416" y="4" on="1"/>
        <pt x="363" y="-15" on="0"/>
        <pt x="239" y="-15" on="0"/>
        <pt x="173" y="-4" on="0"/>
        <pt x="126" y="13" on="0"/>
        <pt x="95" y="47" on="0"/>
        <pt x="77" y="80" on="0"/>
        <pt x="72" y="108" on="1"/>
        <pt x="65" y="156" on="0"/>
        <pt x="65" y="225" on="1"/>
        <pt x="65" y="625" on="1"/>
        <pt x="165" y="625" on="1"/>
        <pt x="165" y="86" on="1"/>
        <pt x="288" y="86" on="1"/>
        <pt x="353" y="86" on="0"/>
        <pt x="402" y="105" on="0"/>
        <pt x="402" y="139" on="1"/>
        <pt x="402" y="625" on="1"/>
      </contour>
      <contour>
        <pt x="329" y="818" on="1"/>
        <pt x="334" y="822" on="0"/>
        <pt x="341" y="822" on="0"/>
        <pt x="345" y="817" on="1"/>
        <pt x="389" y="763" on="1"/>
        <pt x="395" y="755" on="0"/>
        <pt x="395" y="748" on="0"/>
        <pt x="391" y="744" on="1"/>
        <pt x="361" y="719" on="1"/>
        <pt x="352" y="712" on="0"/>
        <pt x="339" y="709" on="1"/>
        <pt x="199" y="674" on="1"/>
        <pt x="177" y="708" on="1"/>
      </contour>
    </TTGlyph>
    <TTGlyph name="Ubreve" xMin="65" yMin="-15" xMax="502" yMax="811">
      <contour>
        <pt x="502" y="625" on="1"/>
        <pt x="502" y="225" on="1"/>
        <pt x="502" y="101" on="0"/>
        <pt x="480" y="64" on="1"/>
        <pt x="454" y="18" on="0"/>
        <pt x="416" y="4" on="1"/>
        <pt x="363" y="-15" on="0"/>
        <pt x="239" y="-15" on="0"/>
        <pt x="173" y="-4" on="0"/>
        <pt x="126" y="13" on="0"/>
        <pt x="95" y="47" on="0"/>
        <pt x="77" y="80" on="0"/>
        <pt x="72" y="108" on="1"/>
        <pt x="65" y="156" on="0"/>
        <pt x="65" y="225" on="1"/>
        <pt x="65" y="625" on="1"/>
        <pt x="165" y="625" on="1"/>
        <pt x="165" y="86" on="1"/>
        <pt x="288" y="86" on="1"/>
        <pt x="353" y="86" on="0"/>
        <pt x="402" y="105" on="0"/>
        <pt x="402" y="139" on="1"/>
        <pt x="402" y="625" on="1"/>
      </contour>
      <contour>
        <pt x="266" y="765" on="0"/>
        <pt x="300" y="765" on="0"/>
        <pt x="330" y="789" on="0"/>
        <pt x="336" y="811" on="1"/>
        <pt x="401" y="800" on="1"/>
        <pt x="388" y="746" on="0"/>
        <pt x="326" y="692" on="0"/>
        <pt x="283" y="692" on="1"/>
        <pt x="188" y="692" on="0"/>
        <pt x="165" y="800" on="1"/>
        <pt x="230" y="811" on="1"/>
        <pt x="236" y="789" on="0"/>
      </contour>
    </TTGlyph>
    <TTGlyph name="Ucircumflex" xMin="65" yMin="-15" xMax="502" yMax="836">
      <contour>
        <pt x="502" y="625" on="1"/>
        <pt x="502" y="225" on="1"/>
        <pt x="502" y="101" on="0"/>
        <pt x="480" y="64" on="1"/>
        <pt x="454" y="18" on="0"/>
        <pt x="416" y="4" on="1"/>
        <pt x="363" y="-15" on="0"/>
        <pt x="239" y="-15" on="0"/>
        <pt x="173" y="-4" on="0"/>
        <pt x="126" y="13" on="0"/>
        <pt x="95" y="47" on="0"/>
        <pt x="77" y="80" on="0"/>
        <pt x="72" y="108" on="1"/>
        <pt x="65" y="156" on="0"/>
        <pt x="65" y="225" on="1"/>
        <pt x="65" y="625" on="1"/>
        <pt x="165" y="625" on="1"/>
        <pt x="165" y="86" on="1"/>
        <pt x="288" y="86" on="1"/>
        <pt x="353" y="86" on="0"/>
        <pt x="402" y="105" on="0"/>
        <pt x="402" y="139" on="1"/>
        <pt x="402" y="625" on="1"/>
      </contour>
      <contour>
        <pt x="274" y="836" on="1"/>
        <pt x="292" y="836" on="1"/>
        <pt x="298" y="836" on="0"/>
        <pt x="302" y="830" on="1"/>
        <pt x="416" y="714" on="1"/>
        <pt x="376" y="680" on="1"/>
        <pt x="283" y="744" on="1"/>
        <pt x="190" y="680" on="1"/>
        <pt x="150" y="714" on="1"/>
        <pt x="264" y="830" on="1"/>
        <pt x="268" y="836" on="0"/>
      </contour>
    </TTGlyph>
    <TTGlyph name="Udieresis" xMin="65" yMin="-15" xMax="502" yMax="814">
      <contour>
        <pt x="502" y="625" on="1"/>
        <pt x="502" y="225" on="1"/>
        <pt x="502" y="101" on="0"/>
        <pt x="480" y="64" on="1"/>
        <pt x="454" y="18" on="0"/>
        <pt x="416" y="4" on="1"/>
        <pt x="363" y="-15" on="0"/>
        <pt x="239" y="-15" on="0"/>
        <pt x="173" y="-4" on="0"/>
        <pt x="126" y="13" on="0"/>
        <pt x="95" y="47" on="0"/>
        <pt x="77" y="80" on="0"/>
        <pt x="72" y="108" on="1"/>
        <pt x="65" y="156" on="0"/>
        <pt x="65" y="225" on="1"/>
        <pt x="65" y="625" on="1"/>
        <pt x="165" y="625" on="1"/>
        <pt x="165" y="86" on="1"/>
        <pt x="288" y="86" on="1"/>
        <pt x="353" y="86" on="0"/>
        <pt x="402" y="105" on="0"/>
        <pt x="402" y="139" on="1"/>
        <pt x="402" y="625" on="1"/>
      </contour>
      <contour>
        <pt x="140" y="723" on="0"/>
        <pt x="140" y="789" on="0"/>
        <pt x="160" y="814" on="0"/>
        <pt x="223" y="814" on="0"/>
        <pt x="243" y="789" on="0"/>
        <pt x="243" y="723" on="0"/>
        <pt x="223" y="699" on="0"/>
        <pt x="160" y="699" on="0"/>
      </contour>
      <contour>
        <pt x="323" y="723" on="0"/>
        <pt x="323" y="789" on="0"/>
        <pt x="343" y="814" on="0"/>
        <pt x="406" y="814" on="0"/>
        <pt x="426" y="789" on="0"/>
        <pt x="426" y="723" on="0"/>
        <pt x="406" y="699" on="0"/>
        <pt x="343" y="699" on="0"/>
      </contour>
    </TTGlyph>
    <TTGlyph name="Ugrave" xMin="65" yMin="-15" xMax="502" yMax="827">
      <contour>
        <pt x="502" y="625" on="1"/>
        <pt x="502" y="225" on="1"/>
        <pt x="502" y="101" on="0"/>
        <pt x="480" y="64" on="1"/>
        <pt x="454" y="18" on="0"/>
        <pt x="416" y="4" on="1"/>
        <pt x="363" y="-15" on="0"/>
        <pt x="239" y="-15" on="0"/>
        <pt x="173" y="-4" on="0"/>
        <pt x="126" y="13" on="0"/>
        <pt x="95" y="47" on="0"/>
        <pt x="77" y="80" on="0"/>
        <pt x="72" y="108" on="1"/>
        <pt x="65" y="156" on="0"/>
        <pt x="65" y="225" on="1"/>
        <pt x="65" y="625" on="1"/>
        <pt x="165" y="625" on="1"/>
        <pt x="165" y="86" on="1"/>
        <pt x="288" y="86" on="1"/>
        <pt x="353" y="86" on="0"/>
        <pt x="402" y="105" on="0"/>
        <pt x="402" y="139" on="1"/>
        <pt x="402" y="625" on="1"/>
      </contour>
      <contour>
        <pt x="146" y="749" on="1"/>
        <pt x="142" y="753" on="0"/>
        <pt x="142" y="760" on="0"/>
        <pt x="148" y="768" on="1"/>
        <pt x="192" y="822" on="1"/>
        <pt x="196" y="827" on="0"/>
        <pt x="203" y="827" on="0"/>
        <pt x="208" y="823" on="1"/>
        <pt x="360" y="713" on="1"/>
        <pt x="338" y="679" on="1"/>
        <pt x="198" y="714" on="1"/>
        <pt x="185" y="717" on="0"/>
        <pt x="176" y="724" on="1"/>
      </contour>
    </TTGlyph>
    <TTGlyph name="Uhungarumlaut" xMin="65" yMin="-15" xMax="537" yMax="839">
      <contour>
        <pt x="502" y="625" on="1"/>
        <pt x="502" y="225" on="1"/>
        <pt x="502" y="101" on="0"/>
        <pt x="480" y="64" on="1"/>
        <pt x="454" y="18" on="0"/>
        <pt x="416" y="4" on="1"/>
        <pt x="363" y="-15" on="0"/>
        <pt x="239" y="-15" on="0"/>
        <pt x="173" y="-4" on="0"/>
        <pt x="126" y="13" on="0"/>
        <pt x="95" y="47" on="0"/>
        <pt x="77" y="80" on="0"/>
        <pt x="72" y="108" on="1"/>
        <pt x="65" y="156" on="0"/>
        <pt x="65" y="225" on="1"/>
        <pt x="65" y="625" on="1"/>
        <pt x="165" y="625" on="1"/>
        <pt x="165" y="86" on="1"/>
        <pt x="288" y="86" on="1"/>
        <pt x="353" y="86" on="0"/>
        <pt x="402" y="105" on="0"/>
        <pt x="402" y="139" on="1"/>
        <pt x="402" y="625" on="1"/>
      </contour>
      <contour>
        <pt x="249" y="835" on="1"/>
        <pt x="254" y="839" on="0"/>
        <pt x="261" y="839" on="0"/>
        <pt x="265" y="834" on="1"/>
        <pt x="309" y="780" on="1"/>
        <pt x="315" y="772" on="0"/>
        <pt x="315" y="765" on="0"/>
        <pt x="311" y="761" on="1"/>
        <pt x="281" y="736" on="1"/>
        <pt x="272" y="729" on="0"/>
        <pt x="259" y="726" on="1"/>
        <pt x="138" y="696" on="1"/>
        <pt x="116" y="730" on="1"/>
      </contour>
      <contour>
        <pt x="471" y="835" on="1"/>
        <pt x="476" y="839" on="0"/>
        <pt x="483" y="839" on="0"/>
        <pt x="487" y="834" on="1"/>
        <pt x="531" y="780" on="1"/>
        <pt x="537" y="772" on="0"/>
        <pt x="537" y="765" on="0"/>
        <pt x="533" y="761" on="1"/>
        <pt x="503" y="736" on="1"/>
        <pt x="494" y="729" on="0"/>
        <pt x="481" y="726" on="1"/>
        <pt x="360" y="696" on="1"/>
        <pt x="338" y="730" on="1"/>
      </contour>
    </TTGlyph>
    <TTGlyph name="Umacron" xMin="65" yMin="-15" xMax="502" yMax="792">
      <contour>
        <pt x="502" y="625" on="1"/>
        <pt x="502" y="225" on="1"/>
        <pt x="502" y="101" on="0"/>
        <pt x="480" y="64" on="1"/>
        <pt x="454" y="18" on="0"/>
        <pt x="416" y="4" on="1"/>
        <pt x="363" y="-15" on="0"/>
        <pt x="239" y="-15" on="0"/>
        <pt x="173" y="-4" on="0"/>
        <pt x="126" y="13" on="0"/>
        <pt x="95" y="47" on="0"/>
        <pt x="77" y="80" on="0"/>
        <pt x="72" y="108" on="1"/>
        <pt x="65" y="156" on="0"/>
        <pt x="65" y="225" on="1"/>
        <pt x="65" y="625" on="1"/>
        <pt x="165" y="625" on="1"/>
        <pt x="165" y="86" on="1"/>
        <pt x="288" y="86" on="1"/>
        <pt x="353" y="86" on="0"/>
        <pt x="402" y="105" on="0"/>
        <pt x="402" y="139" on="1"/>
        <pt x="402" y="625" on="1"/>
      </contour>
      <contour>
        <pt x="405" y="711" on="1"/>
        <pt x="207" y="711" on="1"/>
        <pt x="178" y="711" on="0"/>
        <pt x="162" y="730" on="0"/>
        <pt x="162" y="757" on="1"/>
        <pt x="162" y="792" on="1"/>
        <pt x="361" y="792" on="1"/>
        <pt x="390" y="792" on="0"/>
        <pt x="405" y="774" on="0"/>
        <pt x="405" y="747" on="1"/>
      </contour>
    </TTGlyph>
    <TTGlyph name="Uogonek" xMin="65" yMin="-165" xMax="502" yMax="625">
      <contour>
        <pt x="502" y="625" on="1"/>
        <pt x="502" y="225" on="1"/>
        <pt x="502" y="173" on="0"/>
        <pt x="497" y="112" on="0"/>
        <pt x="477" y="47" on="0"/>
        <pt x="457" y="30" on="1"/>
        <pt x="412" y="-8" on="0"/>
        <pt x="317" y="-14" on="1"/>
        <pt x="306" y="-21" on="0"/>
        <pt x="306" y="-45" on="1"/>
        <pt x="306" y="-66" on="1"/>
        <pt x="306" y="-100" on="0"/>
        <pt x="335" y="-100" on="1"/>
        <pt x="339" y="-100" on="0"/>
        <pt x="349" y="-98" on="1"/>
        <pt x="368" y="-93" on="1"/>
        <pt x="387" y="-144" on="1"/>
        <pt x="353" y="-165" on="0"/>
        <pt x="273" y="-165" on="0"/>
        <pt x="227" y="-117" on="0"/>
        <pt x="227" y="-37" on="0"/>
        <pt x="253" y="-14" on="1"/>
        <pt x="156" y="-10" on="0"/>
        <pt x="110" y="29" on="1"/>
        <pt x="74" y="59" on="0"/>
        <pt x="68" y="142" on="1"/>
        <pt x="65" y="172" on="0"/>
        <pt x="65" y="225" on="1"/>
        <pt x="65" y="625" on="1"/>
        <pt x="165" y="625" on="1"/>
        <pt x="165" y="86" on="1"/>
        <pt x="288" y="86" on="1"/>
        <pt x="353" y="86" on="0"/>
        <pt x="402" y="105" on="0"/>
        <pt x="402" y="139" on="1"/>
        <pt x="402" y="625" on="1"/>
      </contour>
    </TTGlyph>
    <TTGlyph name="Uring" xMin="65" yMin="-15" xMax="502" yMax="861">
      <contour>
        <pt x="502" y="625" on="1"/>
        <pt x="502" y="225" on="1"/>
        <pt x="502" y="101" on="0"/>
        <pt x="480" y="64" on="1"/>
        <pt x="454" y="18" on="0"/>
        <pt x="416" y="4" on="1"/>
        <pt x="363" y="-15" on="0"/>
        <pt x="239" y="-15" on="0"/>
        <pt x="173" y="-4" on="0"/>
        <pt x="126" y="13" on="0"/>
        <pt x="95" y="47" on="0"/>
        <pt x="77" y="80" on="0"/>
        <pt x="72" y="108" on="1"/>
        <pt x="65" y="156" on="0"/>
        <pt x="65" y="225" on="1"/>
        <pt x="65" y="625" on="1"/>
        <pt x="165" y="625" on="1"/>
        <pt x="165" y="86" on="1"/>
        <pt x="288" y="86" on="1"/>
        <pt x="353" y="86" on="0"/>
        <pt x="402" y="105" on="0"/>
        <pt x="402" y="139" on="1"/>
        <pt x="402" y="625" on="1"/>
      </contour>
      <contour>
        <pt x="185" y="713" on="0"/>
        <pt x="185" y="813" on="0"/>
        <pt x="232" y="861" on="0"/>
        <pt x="336" y="861" on="0"/>
        <pt x="382" y="813" on="0"/>
        <pt x="382" y="713" on="0"/>
        <pt x="336" y="664" on="0"/>
        <pt x="232" y="664" on="0"/>
      </contour>
      <contour>
        <pt x="241" y="784" on="1"/>
        <pt x="241" y="716" on="1"/>
        <pt x="283" y="716" on="1"/>
        <pt x="298" y="716" on="0"/>
        <pt x="306" y="717" on="1"/>
        <pt x="325" y="720" on="0"/>
        <pt x="325" y="742" on="1"/>
        <pt x="325" y="809" on="1"/>
        <pt x="286" y="809" on="1"/>
        <pt x="256" y="809" on="0"/>
        <pt x="241" y="795" on="0"/>
      </contour>
    </TTGlyph>
    <TTGlyph name="Utilde" xMin="65" yMin="-15" xMax="502" yMax="815">
      <contour>
        <pt x="502" y="625" on="1"/>
        <pt x="502" y="225" on="1"/>
        <pt x="502" y="101" on="0"/>
        <pt x="480" y="64" on="1"/>
        <pt x="454" y="18" on="0"/>
        <pt x="416" y="4" on="1"/>
        <pt x="363" y="-15" on="0"/>
        <pt x="239" y="-15" on="0"/>
        <pt x="173" y="-4" on="0"/>
        <pt x="126" y="13" on="0"/>
        <pt x="95" y="47" on="0"/>
        <pt x="77" y="80" on="0"/>
        <pt x="72" y="108" on="1"/>
        <pt x="65" y="156" on="0"/>
        <pt x="65" y="225" on="1"/>
        <pt x="65" y="625" on="1"/>
        <pt x="165" y="625" on="1"/>
        <pt x="165" y="86" on="1"/>
        <pt x="288" y="86" on="1"/>
        <pt x="353" y="86" on="0"/>
        <pt x="402" y="105" on="0"/>
        <pt x="402" y="139" on="1"/>
        <pt x="402" y="625" on="1"/>
      </contour>
      <contour>
        <pt x="355" y="704" on="0"/>
        <pt x="321" y="689" on="0"/>
        <pt x="281" y="689" on="0"/>
        <pt x="249" y="720" on="1"/>
        <pt x="234" y="732" on="1"/>
        <pt x="168" y="699" on="1"/>
        <pt x="137" y="750" on="1"/>
        <pt x="167" y="771" on="1"/>
        <pt x="209" y="800" on="0"/>
        <pt x="243" y="815" on="0"/>
        <pt x="283" y="815" on="0"/>
        <pt x="317" y="784" on="1"/>
        <pt x="332" y="772" on="1"/>
        <pt x="398" y="805" on="1"/>
        <pt x="429" y="754" on="1"/>
        <pt x="399" y="733" on="1"/>
      </contour>
    </TTGlyph>
    <TTGlyph name="V" xMin="20" yMin="0" xMax="502" yMax="625">
      <contour>
        <pt x="396" y="625" on="1"/>
        <pt x="502" y="625" on="1"/>
        <pt x="339" y="0" on="1"/>
        <pt x="182" y="0" on="1"/>
        <pt x="20" y="625" on="1"/>
        <pt x="126" y="625" on="1"/>
        <pt x="256" y="92" on="1"/>
        <pt x="265" y="92" on="1"/>
      </contour>
    </TTGlyph>
    <TTGlyph name="W" xMin="20" yMin="0" xMax="741" yMax="625">
      <contour>
        <pt x="331" y="600" on="1"/>
        <pt x="430" y="600" on="1"/>
        <pt x="536" y="92" on="1"/>
        <pt x="545" y="92" on="1"/>
        <pt x="635" y="625" on="1"/>
        <pt x="741" y="625" on="1"/>
        <pt x="619" y="0" on="1"/>
        <pt x="467" y="0" on="1"/>
        <pt x="384" y="389" on="1"/>
        <pt x="377" y="389" on="1"/>
        <pt x="294" y="0" on="1"/>
        <pt x="142" y="0" on="1"/>
        <pt x="20" y="625" on="1"/>
        <pt x="126" y="625" on="1"/>
        <pt x="216" y="92" on="1"/>
        <pt x="225" y="92" on="1"/>
      </contour>
    </TTGlyph>
    <TTGlyph name="Wacute" xMin="20" yMin="0" xMax="741" yMax="837">
      <contour>
        <pt x="331" y="600" on="1"/>
        <pt x="430" y="600" on="1"/>
        <pt x="536" y="92" on="1"/>
        <pt x="545" y="92" on="1"/>
        <pt x="635" y="625" on="1"/>
        <pt x="741" y="625" on="1"/>
        <pt x="619" y="0" on="1"/>
        <pt x="467" y="0" on="1"/>
        <pt x="384" y="389" on="1"/>
        <pt x="377" y="389" on="1"/>
        <pt x="294" y="0" on="1"/>
        <pt x="142" y="0" on="1"/>
        <pt x="20" y="625" on="1"/>
        <pt x="126" y="625" on="1"/>
        <pt x="216" y="92" on="1"/>
        <pt x="225" y="92" on="1"/>
      </contour>
      <contour>
        <pt x="443" y="833" on="1"/>
        <pt x="448" y="837" on="0"/>
        <pt x="455" y="837" on="0"/>
        <pt x="459" y="832" on="1"/>
        <pt x="503" y="778" on="1"/>
        <pt x="509" y="770" on="0"/>
        <pt x="509" y="763" on="0"/>
        <pt x="505" y="759" on="1"/>
        <pt x="475" y="734" on="1"/>
        <pt x="466" y="727" on="0"/>
        <pt x="453" y="724" on="1"/>
        <pt x="313" y="689" on="1"/>
        <pt x="291" y="723" on="1"/>
      </contour>
    </TTGlyph>
    <TTGlyph name="Wcircumflex" xMin="20" yMin="0" xMax="741" yMax="837">
      <contour>
        <pt x="331" y="600" on="1"/>
        <pt x="430" y="600" on="1"/>
        <pt x="536" y="92" on="1"/>
        <pt x="545" y="92" on="1"/>
        <pt x="635" y="625" on="1"/>
        <pt x="741" y="625" on="1"/>
        <pt x="619" y="0" on="1"/>
        <pt x="467" y="0" on="1"/>
        <pt x="384" y="389" on="1"/>
        <pt x="377" y="389" on="1"/>
        <pt x="294" y="0" on="1"/>
        <pt x="142" y="0" on="1"/>
        <pt x="20" y="625" on="1"/>
        <pt x="126" y="625" on="1"/>
        <pt x="216" y="92" on="1"/>
        <pt x="225" y="92" on="1"/>
      </contour>
      <contour>
        <pt x="371" y="837" on="1"/>
        <pt x="389" y="837" on="1"/>
        <pt x="394" y="837" on="0"/>
        <pt x="399" y="831" on="1"/>
        <pt x="513" y="715" on="1"/>
        <pt x="473" y="681" on="1"/>
        <pt x="380" y="745" on="1"/>
        <pt x="287" y="681" on="1"/>
        <pt x="247" y="715" on="1"/>
        <pt x="361" y="831" on="1"/>
        <pt x="366" y="837" on="0"/>
      </contour>
    </TTGlyph>
    <TTGlyph name="Wdieresis" xMin="20" yMin="0" xMax="741" yMax="815">
      <contour>
        <pt x="331" y="600" on="1"/>
        <pt x="430" y="600" on="1"/>
        <pt x="536" y="92" on="1"/>
        <pt x="545" y="92" on="1"/>
        <pt x="635" y="625" on="1"/>
        <pt x="741" y="625" on="1"/>
        <pt x="619" y="0" on="1"/>
        <pt x="467" y="0" on="1"/>
        <pt x="384" y="389" on="1"/>
        <pt x="377" y="389" on="1"/>
        <pt x="294" y="0" on="1"/>
        <pt x="142" y="0" on="1"/>
        <pt x="20" y="625" on="1"/>
        <pt x="126" y="625" on="1"/>
        <pt x="216" y="92" on="1"/>
        <pt x="225" y="92" on="1"/>
      </contour>
      <contour>
        <pt x="237" y="724" on="0"/>
        <pt x="237" y="790" on="0"/>
        <pt x="257" y="815" on="0"/>
        <pt x="320" y="815" on="0"/>
        <pt x="340" y="790" on="0"/>
        <pt x="340" y="724" on="0"/>
        <pt x="320" y="700" on="0"/>
        <pt x="257" y="700" on="0"/>
      </contour>
      <contour>
        <pt x="420" y="724" on="0"/>
        <pt x="420" y="790" on="0"/>
        <pt x="440" y="815" on="0"/>
        <pt x="503" y="815" on="0"/>
        <pt x="523" y="790" on="0"/>
        <pt x="523" y="724" on="0"/>
        <pt x="503" y="700" on="0"/>
        <pt x="440" y="700" on="0"/>
      </contour>
    </TTGlyph>
    <TTGlyph name="Wgrave" xMin="20" yMin="0" xMax="741" yMax="827">
      <contour>
        <pt x="331" y="600" on="1"/>
        <pt x="430" y="600" on="1"/>
        <pt x="536" y="92" on="1"/>
        <pt x="545" y="92" on="1"/>
        <pt x="635" y="625" on="1"/>
        <pt x="741" y="625" on="1"/>
        <pt x="619" y="0" on="1"/>
        <pt x="467" y="0" on="1"/>
        <pt x="384" y="389" on="1"/>
        <pt x="377" y="389" on="1"/>
        <pt x="294" y="0" on="1"/>
        <pt x="142" y="0" on="1"/>
        <pt x="20" y="625" on="1"/>
        <pt x="126" y="625" on="1"/>
        <pt x="216" y="92" on="1"/>
        <pt x="225" y="92" on="1"/>
      </contour>
      <contour>
        <pt x="275" y="749" on="1"/>
        <pt x="271" y="753" on="0"/>
        <pt x="271" y="760" on="0"/>
        <pt x="277" y="768" on="1"/>
        <pt x="321" y="822" on="1"/>
        <pt x="325" y="827" on="0"/>
        <pt x="332" y="827" on="0"/>
        <pt x="337" y="823" on="1"/>
        <pt x="489" y="713" on="1"/>
        <pt x="467" y="679" on="1"/>
        <pt x="327" y="714" on="1"/>
        <pt x="314" y="717" on="0"/>
        <pt x="305" y="724" on="1"/>
      </contour>
    </TTGlyph>
    <TTGlyph name="X" xMin="25" yMin="0" xMax="497" yMax="625">
      <contour>
        <pt x="149" y="625" on="1"/>
        <pt x="260" y="425" on="1"/>
        <pt x="271" y="425" on="1"/>
        <pt x="380" y="625" on="1"/>
        <pt x="487" y="625" on="1"/>
        <pt x="320" y="316" on="1"/>
        <pt x="497" y="0" on="1"/>
        <pt x="388" y="0" on="1"/>
        <pt x="262" y="222" on="1"/>
        <pt x="251" y="222" on="1"/>
        <pt x="132" y="0" on="1"/>
        <pt x="25" y="0" on="1"/>
        <pt x="202" y="329" on="1"/>
        <pt x="35" y="625" on="1"/>
      </contour>
    </TTGlyph>
    <TTGlyph name="Y" xMin="10" yMin="0" xMax="460" yMax="625">
      <contour>
        <pt x="285" y="0" on="1"/>
        <pt x="185" y="0" on="1"/>
        <pt x="185" y="200" on="1"/>
        <pt x="10" y="625" on="1"/>
        <pt x="116" y="625" on="1"/>
        <pt x="231" y="315" on="1"/>
        <pt x="238" y="315" on="1"/>
        <pt x="354" y="625" on="1"/>
        <pt x="460" y="625" on="1"/>
        <pt x="285" y="200" on="1"/>
      </contour>
    </TTGlyph>
    <TTGlyph name="Yacute" xMin="10" yMin="0" xMax="460" yMax="836">
      <contour>
        <pt x="285" y="0" on="1"/>
        <pt x="185" y="0" on="1"/>
        <pt x="185" y="200" on="1"/>
        <pt x="10" y="625" on="1"/>
        <pt x="116" y="625" on="1"/>
        <pt x="231" y="315" on="1"/>
        <pt x="238" y="315" on="1"/>
        <pt x="354" y="625" on="1"/>
        <pt x="460" y="625" on="1"/>
        <pt x="285" y="200" on="1"/>
      </contour>
      <contour>
        <pt x="296" y="832" on="1"/>
        <pt x="301" y="836" on="0"/>
        <pt x="308" y="836" on="0"/>
        <pt x="312" y="831" on="1"/>
        <pt x="356" y="777" on="1"/>
        <pt x="362" y="769" on="0"/>
        <pt x="362" y="762" on="0"/>
        <pt x="358" y="758" on="1"/>
        <pt x="328" y="733" on="1"/>
        <pt x="319" y="726" on="0"/>
        <pt x="306" y="723" on="1"/>
        <pt x="166" y="688" on="1"/>
        <pt x="144" y="722" on="1"/>
      </contour>
    </TTGlyph>
    <TTGlyph name="Ycircumflex" xMin="10" yMin="0" xMax="460" yMax="837">
      <contour>
        <pt x="285" y="0" on="1"/>
        <pt x="185" y="0" on="1"/>
        <pt x="185" y="200" on="1"/>
        <pt x="10" y="625" on="1"/>
        <pt x="116" y="625" on="1"/>
        <pt x="231" y="315" on="1"/>
        <pt x="238" y="315" on="1"/>
        <pt x="354" y="625" on="1"/>
        <pt x="460" y="625" on="1"/>
        <pt x="285" y="200" on="1"/>
      </contour>
      <contour>
        <pt x="226" y="837" on="1"/>
        <pt x="244" y="837" on="1"/>
        <pt x="249" y="837" on="0"/>
        <pt x="254" y="831" on="1"/>
        <pt x="368" y="715" on="1"/>
        <pt x="328" y="681" on="1"/>
        <pt x="235" y="745" on="1"/>
        <pt x="142" y="681" on="1"/>
        <pt x="102" y="715" on="1"/>
        <pt x="216" y="831" on="1"/>
        <pt x="220" y="837" on="0"/>
      </contour>
    </TTGlyph>
    <TTGlyph name="Ydieresis" xMin="10" yMin="0" xMax="460" yMax="814">
      <contour>
        <pt x="285" y="0" on="1"/>
        <pt x="185" y="0" on="1"/>
        <pt x="185" y="200" on="1"/>
        <pt x="10" y="625" on="1"/>
        <pt x="116" y="625" on="1"/>
        <pt x="231" y="315" on="1"/>
        <pt x="238" y="315" on="1"/>
        <pt x="354" y="625" on="1"/>
        <pt x="460" y="625" on="1"/>
        <pt x="285" y="200" on="1"/>
      </contour>
      <contour>
        <pt x="92" y="723" on="0"/>
        <pt x="92" y="789" on="0"/>
        <pt x="112" y="814" on="0"/>
        <pt x="175" y="814" on="0"/>
        <pt x="195" y="789" on="0"/>
        <pt x="195" y="723" on="0"/>
        <pt x="175" y="699" on="0"/>
        <pt x="112" y="699" on="0"/>
      </contour>
      <contour>
        <pt x="275" y="723" on="0"/>
        <pt x="275" y="789" on="0"/>
        <pt x="295" y="814" on="0"/>
        <pt x="358" y="814" on="0"/>
        <pt x="378" y="789" on="0"/>
        <pt x="378" y="723" on="0"/>
        <pt x="358" y="699" on="0"/>
        <pt x="295" y="699" on="0"/>
      </contour>
    </TTGlyph>
    <TTGlyph name="Ygrave" xMin="10" yMin="0" xMax="460" yMax="827">
      <contour>
        <pt x="285" y="0" on="1"/>
        <pt x="185" y="0" on="1"/>
        <pt x="185" y="200" on="1"/>
        <pt x="10" y="625" on="1"/>
        <pt x="116" y="625" on="1"/>
        <pt x="231" y="315" on="1"/>
        <pt x="238" y="315" on="1"/>
        <pt x="354" y="625" on="1"/>
        <pt x="460" y="625" on="1"/>
        <pt x="285" y="200" on="1"/>
      </contour>
      <contour>
        <pt x="130" y="749" on="1"/>
        <pt x="126" y="753" on="0"/>
        <pt x="126" y="760" on="0"/>
        <pt x="132" y="768" on="1"/>
        <pt x="176" y="822" on="1"/>
        <pt x="180" y="827" on="0"/>
        <pt x="187" y="827" on="0"/>
        <pt x="192" y="823" on="1"/>
        <pt x="344" y="713" on="1"/>
        <pt x="322" y="679" on="1"/>
        <pt x="182" y="714" on="1"/>
        <pt x="169" y="717" on="0"/>
        <pt x="160" y="724" on="1"/>
      </contour>
    </TTGlyph>
    <TTGlyph name="Z" xMin="30" yMin="0" xMax="469" yMax="625">
      <contour>
        <pt x="469" y="0" on="1"/>
        <pt x="30" y="0" on="1"/>
        <pt x="30" y="85" on="1"/>
        <pt x="329" y="519" on="1"/>
        <pt x="326" y="525" on="1"/>
        <pt x="70" y="525" on="1"/>
        <pt x="58" y="625" on="1"/>
        <pt x="465" y="625" on="1"/>
        <pt x="465" y="540" on="1"/>
        <pt x="169" y="106" on="1"/>
        <pt x="172" y="100" on="1"/>
        <pt x="469" y="100" on="1"/>
      </contour>
    </TTGlyph>
    <TTGlyph name="Zacute" xMin="30" yMin="0" xMax="469" yMax="837">
      <contour>
        <pt x="469" y="0" on="1"/>
        <pt x="30" y="0" on="1"/>
        <pt x="30" y="85" on="1"/>
        <pt x="329" y="519" on="1"/>
        <pt x="326" y="525" on="1"/>
        <pt x="70" y="525" on="1"/>
        <pt x="58" y="625" on="1"/>
        <pt x="465" y="625" on="1"/>
        <pt x="465" y="540" on="1"/>
        <pt x="169" y="106" on="1"/>
        <pt x="172" y="100" on="1"/>
        <pt x="469" y="100" on="1"/>
      </contour>
      <contour>
        <pt x="340" y="833" on="1"/>
        <pt x="345" y="837" on="0"/>
        <pt x="352" y="837" on="0"/>
        <pt x="356" y="832" on="1"/>
        <pt x="400" y="778" on="1"/>
        <pt x="406" y="770" on="0"/>
        <pt x="406" y="763" on="0"/>
        <pt x="402" y="759" on="1"/>
        <pt x="372" y="734" on="1"/>
        <pt x="363" y="727" on="0"/>
        <pt x="350" y="724" on="1"/>
        <pt x="210" y="689" on="1"/>
        <pt x="188" y="723" on="1"/>
      </contour>
    </TTGlyph>
    <TTGlyph name="Zcaron" xMin="30" yMin="0" xMax="469" yMax="840">
      <contour>
        <pt x="469" y="0" on="1"/>
        <pt x="30" y="0" on="1"/>
        <pt x="30" y="85" on="1"/>
        <pt x="329" y="519" on="1"/>
        <pt x="326" y="525" on="1"/>
        <pt x="70" y="525" on="1"/>
        <pt x="58" y="625" on="1"/>
        <pt x="465" y="625" on="1"/>
        <pt x="465" y="540" on="1"/>
        <pt x="169" y="106" on="1"/>
        <pt x="172" y="100" on="1"/>
        <pt x="469" y="100" on="1"/>
      </contour>
      <contour>
        <pt x="278" y="684" on="1"/>
        <pt x="260" y="684" on="1"/>
        <pt x="254" y="684" on="0"/>
        <pt x="250" y="690" on="1"/>
        <pt x="136" y="806" on="1"/>
        <pt x="176" y="840" on="1"/>
        <pt x="269" y="776" on="1"/>
        <pt x="362" y="840" on="1"/>
        <pt x="402" y="806" on="1"/>
        <pt x="288" y="690" on="1"/>
        <pt x="284" y="684" on="0"/>
      </contour>
    </TTGlyph>
    <TTGlyph name="Zdotaccent" xMin="30" yMin="0" xMax="469" yMax="830">
      <contour>
        <pt x="469" y="0" on="1"/>
        <pt x="30" y="0" on="1"/>
        <pt x="30" y="85" on="1"/>
        <pt x="329" y="519" on="1"/>
        <pt x="326" y="525" on="1"/>
        <pt x="70" y="525" on="1"/>
        <pt x="58" y="625" on="1"/>
        <pt x="465" y="625" on="1"/>
        <pt x="465" y="540" on="1"/>
        <pt x="169" y="106" on="1"/>
        <pt x="172" y="100" on="1"/>
        <pt x="469" y="100" on="1"/>
      </contour>
      <contour>
        <pt x="212" y="724" on="0"/>
        <pt x="212" y="800" on="0"/>
        <pt x="239" y="830" on="0"/>
        <pt x="320" y="830" on="0"/>
        <pt x="346" y="800" on="0"/>
        <pt x="346" y="723" on="0"/>
        <pt x="320" y="696" on="0"/>
        <pt x="239" y="696" on="0"/>
      </contour>
    </TTGlyph>
    <TTGlyph name="a" xMin="55" yMin="-10" xMax="448" yMax="510">
      <contour>
        <pt x="156" y="81" on="1"/>
        <pt x="270" y="81" on="1"/>
        <pt x="314" y="81" on="0"/>
        <pt x="349" y="103" on="0"/>
        <pt x="349" y="139" on="1"/>
        <pt x="349" y="228" on="1"/>
        <pt x="235" y="228" on="1"/>
        <pt x="191" y="228" on="0"/>
        <pt x="156" y="206" on="0"/>
        <pt x="156" y="170" on="1"/>
      </contour>
      <contour>
        <pt x="201" y="-10" on="1"/>
        <pt x="55" y="-10" on="0"/>
        <pt x="55" y="145" on="1"/>
        <pt x="55" y="235" on="0"/>
        <pt x="172" y="312" on="0"/>
        <pt x="285" y="312" on="1"/>
        <pt x="349" y="312" on="1"/>
        <pt x="349" y="412" on="1"/>
        <pt x="318" y="416" on="0"/>
        <pt x="274" y="416" on="1"/>
        <pt x="172" y="416" on="0"/>
        <pt x="112" y="395" on="1"/>
        <pt x="100" y="479" on="1"/>
        <pt x="193" y="510" on="0"/>
        <pt x="364" y="510" on="0"/>
        <pt x="448" y="453" on="0"/>
        <pt x="448" y="369" on="1"/>
        <pt x="448" y="0" on="1"/>
        <pt x="402" y="0" on="1"/>
        <pt x="375" y="50" on="1"/>
        <pt x="308" y="-10" on="0"/>
      </contour>
    </TTGlyph>
    <TTGlyph name="aacute" xMin="55" yMin="-10" xMax="448" yMax="712">
      <contour>
        <pt x="156" y="81" on="1"/>
        <pt x="270" y="81" on="1"/>
        <pt x="314" y="81" on="0"/>
        <pt x="349" y="103" on="0"/>
        <pt x="349" y="139" on="1"/>
        <pt x="349" y="228" on="1"/>
        <pt x="235" y="228" on="1"/>
        <pt x="191" y="228" on="0"/>
        <pt x="156" y="206" on="0"/>
        <pt x="156" y="170" on="1"/>
      </contour>
      <contour>
        <pt x="201" y="-10" on="1"/>
        <pt x="55" y="-10" on="0"/>
        <pt x="55" y="145" on="1"/>
        <pt x="55" y="235" on="0"/>
        <pt x="172" y="312" on="0"/>
        <pt x="285" y="312" on="1"/>
        <pt x="349" y="312" on="1"/>
        <pt x="349" y="412" on="1"/>
        <pt x="318" y="416" on="0"/>
        <pt x="274" y="416" on="1"/>
        <pt x="172" y="416" on="0"/>
        <pt x="112" y="395" on="1"/>
        <pt x="100" y="479" on="1"/>
        <pt x="193" y="510" on="0"/>
        <pt x="364" y="510" on="0"/>
        <pt x="448" y="453" on="0"/>
        <pt x="448" y="369" on="1"/>
        <pt x="448" y="0" on="1"/>
        <pt x="402" y="0" on="1"/>
        <pt x="375" y="50" on="1"/>
        <pt x="308" y="-10" on="0"/>
      </contour>
      <contour>
        <pt x="342" y="708" on="1"/>
        <pt x="347" y="712" on="0"/>
        <pt x="354" y="712" on="0"/>
        <pt x="358" y="707" on="1"/>
        <pt x="402" y="653" on="1"/>
        <pt x="408" y="645" on="0"/>
        <pt x="408" y="638" on="0"/>
        <pt x="404" y="634" on="1"/>
        <pt x="374" y="609" on="1"/>
        <pt x="365" y="602" on="0"/>
        <pt x="352" y="599" on="1"/>
        <pt x="212" y="564" on="1"/>
        <pt x="190" y="598" on="1"/>
      </contour>
    </TTGlyph>
    <TTGlyph name="abreve" xMin="55" yMin="-10" xMax="448" yMax="686">
      <contour>
        <pt x="156" y="81" on="1"/>
        <pt x="270" y="81" on="1"/>
        <pt x="314" y="81" on="0"/>
        <pt x="349" y="103" on="0"/>
        <pt x="349" y="139" on="1"/>
        <pt x="349" y="228" on="1"/>
        <pt x="235" y="228" on="1"/>
        <pt x="191" y="228" on="0"/>
        <pt x="156" y="206" on="0"/>
        <pt x="156" y="170" on="1"/>
      </contour>
      <contour>
        <pt x="201" y="-10" on="1"/>
        <pt x="55" y="-10" on="0"/>
        <pt x="55" y="145" on="1"/>
        <pt x="55" y="235" on="0"/>
        <pt x="172" y="312" on="0"/>
        <pt x="285" y="312" on="1"/>
        <pt x="349" y="312" on="1"/>
        <pt x="349" y="412" on="1"/>
        <pt x="318" y="416" on="0"/>
        <pt x="274" y="416" on="1"/>
        <pt x="172" y="416" on="0"/>
        <pt x="112" y="395" on="1"/>
        <pt x="100" y="479" on="1"/>
        <pt x="193" y="510" on="0"/>
        <pt x="364" y="510" on="0"/>
        <pt x="448" y="453" on="0"/>
        <pt x="448" y="369" on="1"/>
        <pt x="448" y="0" on="1"/>
        <pt x="402" y="0" on="1"/>
        <pt x="375" y="50" on="1"/>
        <pt x="308" y="-10" on="0"/>
      </contour>
      <contour>
        <pt x="256" y="640" on="0"/>
        <pt x="290" y="640" on="0"/>
        <pt x="320" y="664" on="0"/>
        <pt x="326" y="686" on="1"/>
        <pt x="391" y="675" on="1"/>
        <pt x="378" y="621" on="0"/>
        <pt x="316" y="567" on="0"/>
        <pt x="273" y="567" on="1"/>
        <pt x="178" y="567" on="0"/>
        <pt x="155" y="675" on="1"/>
        <pt x="220" y="686" on="1"/>
        <pt x="226" y="664" on="0"/>
      </contour>
    </TTGlyph>
    <TTGlyph name="acircumflex" xMin="55" yMin="-10" xMax="448" yMax="712">
      <contour>
        <pt x="156" y="81" on="1"/>
        <pt x="270" y="81" on="1"/>
        <pt x="314" y="81" on="0"/>
        <pt x="349" y="103" on="0"/>
        <pt x="349" y="139" on="1"/>
        <pt x="349" y="228" on="1"/>
        <pt x="235" y="228" on="1"/>
        <pt x="191" y="228" on="0"/>
        <pt x="156" y="206" on="0"/>
        <pt x="156" y="170" on="1"/>
      </contour>
      <contour>
        <pt x="201" y="-10" on="1"/>
        <pt x="55" y="-10" on="0"/>
        <pt x="55" y="145" on="1"/>
        <pt x="55" y="235" on="0"/>
        <pt x="172" y="312" on="0"/>
        <pt x="285" y="312" on="1"/>
        <pt x="349" y="312" on="1"/>
        <pt x="349" y="412" on="1"/>
        <pt x="318" y="416" on="0"/>
        <pt x="274" y="416" on="1"/>
        <pt x="172" y="416" on="0"/>
        <pt x="112" y="395" on="1"/>
        <pt x="100" y="479" on="1"/>
        <pt x="193" y="510" on="0"/>
        <pt x="364" y="510" on="0"/>
        <pt x="448" y="453" on="0"/>
        <pt x="448" y="369" on="1"/>
        <pt x="448" y="0" on="1"/>
        <pt x="402" y="0" on="1"/>
        <pt x="375" y="50" on="1"/>
        <pt x="308" y="-10" on="0"/>
      </contour>
      <contour>
        <pt x="252" y="712" on="1"/>
        <pt x="270" y="712" on="1"/>
        <pt x="276" y="712" on="0"/>
        <pt x="280" y="706" on="1"/>
        <pt x="394" y="590" on="1"/>
        <pt x="354" y="556" on="1"/>
        <pt x="261" y="620" on="1"/>
        <pt x="168" y="556" on="1"/>
        <pt x="128" y="590" on="1"/>
        <pt x="242" y="706" on="1"/>
        <pt x="246" y="712" on="0"/>
      </contour>
    </TTGlyph>
    <TTGlyph name="acute" xMin="108" yMin="564" xMax="326" yMax="712">
      <contour>
        <pt x="260" y="708" on="1"/>
        <pt x="265" y="712" on="0"/>
        <pt x="272" y="712" on="0"/>
        <pt x="276" y="707" on="1"/>
        <pt x="320" y="653" on="1"/>
        <pt x="326" y="645" on="0"/>
        <pt x="326" y="638" on="0"/>
        <pt x="322" y="634" on="1"/>
        <pt x="292" y="609" on="1"/>
        <pt x="283" y="602" on="0"/>
        <pt x="270" y="599" on="1"/>
        <pt x="130" y="564" on="1"/>
        <pt x="108" y="598" on="1"/>
      </contour>
    </TTGlyph>
    <TTGlyph name="adieresis" xMin="55" yMin="-10" xMax="448" yMax="690">
      <contour>
        <pt x="156" y="81" on="1"/>
        <pt x="270" y="81" on="1"/>
        <pt x="314" y="81" on="0"/>
        <pt x="349" y="103" on="0"/>
        <pt x="349" y="139" on="1"/>
        <pt x="349" y="228" on="1"/>
        <pt x="235" y="228" on="1"/>
        <pt x="191" y="228" on="0"/>
        <pt x="156" y="206" on="0"/>
        <pt x="156" y="170" on="1"/>
      </contour>
      <contour>
        <pt x="201" y="-10" on="1"/>
        <pt x="55" y="-10" on="0"/>
        <pt x="55" y="145" on="1"/>
        <pt x="55" y="235" on="0"/>
        <pt x="172" y="312" on="0"/>
        <pt x="285" y="312" on="1"/>
        <pt x="349" y="312" on="1"/>
        <pt x="349" y="412" on="1"/>
        <pt x="318" y="416" on="0"/>
        <pt x="274" y="416" on="1"/>
        <pt x="172" y="416" on="0"/>
        <pt x="112" y="395" on="1"/>
        <pt x="100" y="479" on="1"/>
        <pt x="193" y="510" on="0"/>
        <pt x="364" y="510" on="0"/>
        <pt x="448" y="453" on="0"/>
        <pt x="448" y="369" on="1"/>
        <pt x="448" y="0" on="1"/>
        <pt x="402" y="0" on="1"/>
        <pt x="375" y="50" on="1"/>
        <pt x="308" y="-10" on="0"/>
      </contour>
      <contour>
        <pt x="133" y="599" on="0"/>
        <pt x="133" y="665" on="0"/>
        <pt x="153" y="690" on="0"/>
        <pt x="216" y="690" on="0"/>
        <pt x="236" y="665" on="0"/>
        <pt x="236" y="599" on="0"/>
        <pt x="216" y="575" on="0"/>
        <pt x="153" y="575" on="0"/>
      </contour>
      <contour>
        <pt x="316" y="599" on="0"/>
        <pt x="316" y="665" on="0"/>
        <pt x="336" y="690" on="0"/>
        <pt x="399" y="690" on="0"/>
        <pt x="419" y="665" on="0"/>
        <pt x="419" y="599" on="0"/>
        <pt x="399" y="575" on="0"/>
        <pt x="336" y="575" on="0"/>
      </contour>
    </TTGlyph>
    <TTGlyph name="ae" xMin="55" yMin="-10" xMax="743" yMax="515">
      <contour>
        <pt x="726" y="20" on="1"/>
        <pt x="642" y="-8" on="0"/>
        <pt x="475" y="-8" on="0"/>
        <pt x="397" y="17" on="0"/>
        <pt x="375" y="50" on="1"/>
        <pt x="308" y="-10" on="0"/>
        <pt x="201" y="-10" on="1"/>
        <pt x="55" y="-10" on="0"/>
        <pt x="55" y="145" on="1"/>
        <pt x="55" y="235" on="0"/>
        <pt x="172" y="312" on="0"/>
        <pt x="285" y="312" on="1"/>
        <pt x="349" y="312" on="1"/>
        <pt x="349" y="412" on="1"/>
        <pt x="318" y="416" on="0"/>
        <pt x="274" y="416" on="1"/>
        <pt x="172" y="416" on="0"/>
        <pt x="112" y="395" on="1"/>
        <pt x="100" y="479" on="1"/>
        <pt x="193" y="510" on="0"/>
        <pt x="367" y="510" on="0"/>
        <pt x="406" y="467" on="1"/>
        <pt x="451" y="515" on="0"/>
        <pt x="660" y="515" on="0"/>
        <pt x="743" y="450" on="0"/>
        <pt x="743" y="350" on="1"/>
        <pt x="743" y="285" on="0"/>
        <pt x="720" y="242" on="0"/>
        <pt x="703" y="219" on="0"/>
        <pt x="661" y="203" on="0"/>
        <pt x="626" y="195" on="0"/>
        <pt x="592" y="192" on="1"/>
        <pt x="543" y="189" on="0"/>
        <pt x="448" y="189" on="1"/>
        <pt x="448" y="90" on="1"/>
        <pt x="494" y="79" on="0"/>
        <pt x="622" y="79" on="0"/>
        <pt x="708" y="103" on="1"/>
      </contour>
      <contour>
        <pt x="641" y="420" on="1"/>
        <pt x="527" y="420" on="1"/>
        <pt x="485" y="420" on="0"/>
        <pt x="448" y="399" on="0"/>
        <pt x="448" y="369" on="1"/>
        <pt x="448" y="273" on="1"/>
        <pt x="562" y="273" on="1"/>
        <pt x="606" y="273" on="0"/>
        <pt x="641" y="295" on="0"/>
        <pt x="641" y="331" on="1"/>
      </contour>
      <contour>
        <pt x="156" y="81" on="1"/>
        <pt x="270" y="81" on="1"/>
        <pt x="314" y="81" on="0"/>
        <pt x="349" y="103" on="0"/>
        <pt x="349" y="139" on="1"/>
        <pt x="349" y="228" on="1"/>
        <pt x="235" y="228" on="1"/>
        <pt x="191" y="228" on="0"/>
        <pt x="156" y="206" on="0"/>
        <pt x="156" y="170" on="1"/>
      </contour>
    </TTGlyph>
    <TTGlyph name="aeacute" xMin="55" yMin="-10" xMax="743" yMax="712">
      <contour>
        <pt x="726" y="20" on="1"/>
        <pt x="642" y="-8" on="0"/>
        <pt x="475" y="-8" on="0"/>
        <pt x="397" y="17" on="0"/>
        <pt x="375" y="50" on="1"/>
        <pt x="308" y="-10" on="0"/>
        <pt x="201" y="-10" on="1"/>
        <pt x="55" y="-10" on="0"/>
        <pt x="55" y="145" on="1"/>
        <pt x="55" y="235" on="0"/>
        <pt x="172" y="312" on="0"/>
        <pt x="285" y="312" on="1"/>
        <pt x="349" y="312" on="1"/>
        <pt x="349" y="412" on="1"/>
        <pt x="318" y="416" on="0"/>
        <pt x="274" y="416" on="1"/>
        <pt x="172" y="416" on="0"/>
        <pt x="112" y="395" on="1"/>
        <pt x="100" y="479" on="1"/>
        <pt x="193" y="510" on="0"/>
        <pt x="367" y="510" on="0"/>
        <pt x="406" y="467" on="1"/>
        <pt x="451" y="515" on="0"/>
        <pt x="660" y="515" on="0"/>
        <pt x="743" y="450" on="0"/>
        <pt x="743" y="350" on="1"/>
        <pt x="743" y="285" on="0"/>
        <pt x="720" y="242" on="0"/>
        <pt x="703" y="219" on="0"/>
        <pt x="661" y="203" on="0"/>
        <pt x="626" y="195" on="0"/>
        <pt x="592" y="192" on="1"/>
        <pt x="543" y="189" on="0"/>
        <pt x="448" y="189" on="1"/>
        <pt x="448" y="90" on="1"/>
        <pt x="494" y="79" on="0"/>
        <pt x="622" y="79" on="0"/>
        <pt x="708" y="103" on="1"/>
      </contour>
      <contour>
        <pt x="641" y="420" on="1"/>
        <pt x="527" y="420" on="1"/>
        <pt x="485" y="420" on="0"/>
        <pt x="448" y="399" on="0"/>
        <pt x="448" y="369" on="1"/>
        <pt x="448" y="273" on="1"/>
        <pt x="562" y="273" on="1"/>
        <pt x="606" y="273" on="0"/>
        <pt x="641" y="295" on="0"/>
        <pt x="641" y="331" on="1"/>
      </contour>
      <contour>
        <pt x="156" y="81" on="1"/>
        <pt x="270" y="81" on="1"/>
        <pt x="314" y="81" on="0"/>
        <pt x="349" y="103" on="0"/>
        <pt x="349" y="139" on="1"/>
        <pt x="349" y="228" on="1"/>
        <pt x="235" y="228" on="1"/>
        <pt x="191" y="228" on="0"/>
        <pt x="156" y="206" on="0"/>
        <pt x="156" y="170" on="1"/>
      </contour>
      <contour>
        <pt x="474" y="708" on="1"/>
        <pt x="479" y="712" on="0"/>
        <pt x="486" y="712" on="0"/>
        <pt x="490" y="707" on="1"/>
        <pt x="534" y="653" on="1"/>
        <pt x="540" y="645" on="0"/>
        <pt x="540" y="638" on="0"/>
        <pt x="536" y="634" on="1"/>
        <pt x="506" y="609" on="1"/>
        <pt x="497" y="602" on="0"/>
        <pt x="484" y="599" on="1"/>
        <pt x="344" y="564" on="1"/>
        <pt x="322" y="598" on="1"/>
      </contour>
    </TTGlyph>
    <TTGlyph name="agrave" xMin="55" yMin="-10" xMax="448" yMax="702">
      <contour>
        <pt x="156" y="81" on="1"/>
        <pt x="270" y="81" on="1"/>
        <pt x="314" y="81" on="0"/>
        <pt x="349" y="103" on="0"/>
        <pt x="349" y="139" on="1"/>
        <pt x="349" y="228" on="1"/>
        <pt x="235" y="228" on="1"/>
        <pt x="191" y="228" on="0"/>
        <pt x="156" y="206" on="0"/>
        <pt x="156" y="170" on="1"/>
      </contour>
      <contour>
        <pt x="201" y="-10" on="1"/>
        <pt x="55" y="-10" on="0"/>
        <pt x="55" y="145" on="1"/>
        <pt x="55" y="235" on="0"/>
        <pt x="172" y="312" on="0"/>
        <pt x="285" y="312" on="1"/>
        <pt x="349" y="312" on="1"/>
        <pt x="349" y="412" on="1"/>
        <pt x="318" y="416" on="0"/>
        <pt x="274" y="416" on="1"/>
        <pt x="172" y="416" on="0"/>
        <pt x="112" y="395" on="1"/>
        <pt x="100" y="479" on="1"/>
        <pt x="193" y="510" on="0"/>
        <pt x="364" y="510" on="0"/>
        <pt x="448" y="453" on="0"/>
        <pt x="448" y="369" on="1"/>
        <pt x="448" y="0" on="1"/>
        <pt x="402" y="0" on="1"/>
        <pt x="375" y="50" on="1"/>
        <pt x="308" y="-10" on="0"/>
      </contour>
      <contour>
        <pt x="158" y="624" on="1"/>
        <pt x="154" y="628" on="0"/>
        <pt x="154" y="635" on="0"/>
        <pt x="160" y="643" on="1"/>
        <pt x="204" y="697" on="1"/>
        <pt x="208" y="702" on="0"/>
        <pt x="215" y="702" on="0"/>
        <pt x="220" y="698" on="1"/>
        <pt x="372" y="588" on="1"/>
        <pt x="350" y="554" on="1"/>
        <pt x="210" y="589" on="1"/>
        <pt x="197" y="592" on="0"/>
        <pt x="188" y="599" on="1"/>
      </contour>
    </TTGlyph>
    <TTGlyph name="amacron" xMin="55" yMin="-10" xMax="448" yMax="667">
      <contour>
        <pt x="156" y="81" on="1"/>
        <pt x="270" y="81" on="1"/>
        <pt x="314" y="81" on="0"/>
        <pt x="349" y="103" on="0"/>
        <pt x="349" y="139" on="1"/>
        <pt x="349" y="228" on="1"/>
        <pt x="235" y="228" on="1"/>
        <pt x="191" y="228" on="0"/>
        <pt x="156" y="206" on="0"/>
        <pt x="156" y="170" on="1"/>
      </contour>
      <contour>
        <pt x="201" y="-10" on="1"/>
        <pt x="55" y="-10" on="0"/>
        <pt x="55" y="145" on="1"/>
        <pt x="55" y="235" on="0"/>
        <pt x="172" y="312" on="0"/>
        <pt x="285" y="312" on="1"/>
        <pt x="349" y="312" on="1"/>
        <pt x="349" y="412" on="1"/>
        <pt x="318" y="416" on="0"/>
        <pt x="274" y="416" on="1"/>
        <pt x="172" y="416" on="0"/>
        <pt x="112" y="395" on="1"/>
        <pt x="100" y="479" on="1"/>
        <pt x="193" y="510" on="0"/>
        <pt x="364" y="510" on="0"/>
        <pt x="448" y="453" on="0"/>
        <pt x="448" y="369" on="1"/>
        <pt x="448" y="0" on="1"/>
        <pt x="402" y="0" on="1"/>
        <pt x="375" y="50" on="1"/>
        <pt x="308" y="-10" on="0"/>
      </contour>
      <contour>
        <pt x="405" y="586" on="1"/>
        <pt x="207" y="586" on="1"/>
        <pt x="178" y="586" on="0"/>
        <pt x="162" y="605" on="0"/>
        <pt x="162" y="632" on="1"/>
        <pt x="162" y="667" on="1"/>
        <pt x="361" y="667" on="1"/>
        <pt x="390" y="667" on="0"/>
        <pt x="405" y="649" on="0"/>
        <pt x="405" y="622" on="1"/>
      </contour>
    </TTGlyph>
    <TTGlyph name="ampersand" xMin="45" yMin="-85" xMax="524" yMax="625">
      <contour>
        <pt x="196" y="0" on="1"/>
        <pt x="45" y="0" on="0"/>
        <pt x="45" y="180" on="1"/>
        <pt x="45" y="299" on="0"/>
        <pt x="84" y="338" on="1"/>
        <pt x="101" y="355" on="0"/>
        <pt x="127" y="360" on="1"/>
        <pt x="127" y="364" on="1"/>
        <pt x="84" y="381" on="1"/>
        <pt x="84" y="569" on="0"/>
        <pt x="146" y="608" on="1"/>
        <pt x="174" y="625" on="0"/>
        <pt x="289" y="625" on="0"/>
        <pt x="366" y="604" on="1"/>
        <pt x="347" y="531" on="1"/>
        <pt x="240" y="531" on="1"/>
        <pt x="207" y="531" on="0"/>
        <pt x="179" y="494" on="0"/>
        <pt x="179" y="439" on="1"/>
        <pt x="179" y="357" on="1"/>
        <pt x="524" y="357" on="1"/>
        <pt x="502" y="277" on="1"/>
        <pt x="427" y="277" on="1"/>
        <pt x="427" y="-72" on="1"/>
        <pt x="380" y="-85" on="1"/>
        <pt x="354" y="51" on="1"/>
        <pt x="274" y="0" on="0"/>
      </contour>
      <contour>
        <pt x="147" y="129" on="0"/>
        <pt x="188" y="86" on="0"/>
        <pt x="246" y="86" on="0"/>
        <pt x="323" y="103" on="0"/>
        <pt x="342" y="115" on="1"/>
        <pt x="312" y="277" on="1"/>
        <pt x="147" y="277" on="1"/>
        <pt x="147" y="165" on="1"/>
      </contour>
    </TTGlyph>
    <TTGlyph name="aogonek" xMin="55" yMin="-165" xMax="475" yMax="510">
      <contour>
        <pt x="394" y="-45" on="1"/>
        <pt x="394" y="-66" on="1"/>
        <pt x="394" y="-100" on="0"/>
        <pt x="423" y="-100" on="1"/>
        <pt x="427" y="-100" on="0"/>
        <pt x="437" y="-98" on="1"/>
        <pt x="456" y="-93" on="1"/>
        <pt x="475" y="-144" on="1"/>
        <pt x="441" y="-165" on="0"/>
        <pt x="361" y="-165" on="0"/>
        <pt x="315" y="-117" on="0"/>
        <pt x="315" y="-46" on="0"/>
        <pt x="350" y="0" on="0"/>
        <pt x="396" y="11" on="1"/>
        <pt x="375" y="50" on="1"/>
        <pt x="308" y="-10" on="0"/>
        <pt x="201" y="-10" on="1"/>
        <pt x="55" y="-10" on="0"/>
        <pt x="55" y="145" on="1"/>
        <pt x="55" y="235" on="0"/>
        <pt x="172" y="312" on="0"/>
        <pt x="285" y="312" on="1"/>
        <pt x="349" y="312" on="1"/>
        <pt x="349" y="412" on="1"/>
        <pt x="318" y="416" on="0"/>
        <pt x="274" y="416" on="1"/>
        <pt x="172" y="416" on="0"/>
        <pt x="112" y="395" on="1"/>
        <pt x="100" y="479" on="1"/>
        <pt x="193" y="510" on="0"/>
        <pt x="364" y="510" on="0"/>
        <pt x="448" y="453" on="0"/>
        <pt x="448" y="369" on="1"/>
        <pt x="448" y="0" on="1"/>
        <pt x="428" y="-5" on="1"/>
        <pt x="407" y="-11" on="0"/>
        <pt x="394" y="-25" on="0"/>
      </contour>
      <contour>
        <pt x="156" y="81" on="1"/>
        <pt x="270" y="81" on="1"/>
        <pt x="314" y="81" on="0"/>
        <pt x="349" y="103" on="0"/>
        <pt x="349" y="139" on="1"/>
        <pt x="349" y="228" on="1"/>
        <pt x="235" y="228" on="1"/>
        <pt x="191" y="228" on="0"/>
        <pt x="156" y="206" on="0"/>
        <pt x="156" y="170" on="1"/>
      </contour>
    </TTGlyph>
    <TTGlyph name="apple" xMin="100" yMin="-114" xMax="823" yMax="608">
      <contour>
        <pt x="589" y="-89" on="1"/>
        <pt x="566" y="-88" on="1"/>
        <pt x="552" y="-88" on="0"/>
        <pt x="517" y="-112" on="0"/>
        <pt x="508" y="-112" on="1"/>
        <pt x="462" y="-102" on="1"/>
        <pt x="454" y="-102" on="0"/>
        <pt x="423" y="-114" on="0"/>
        <pt x="406" y="-114" on="0"/>
        <pt x="374" y="-89" on="0"/>
        <pt x="361" y="-89" on="1"/>
        <pt x="337" y="-91" on="1"/>
        <pt x="322" y="-91" on="0"/>
        <pt x="304" y="-74" on="1"/>
        <pt x="286" y="-55" on="1"/>
        <pt x="274" y="-49" on="0"/>
        <pt x="248" y="-47" on="0"/>
        <pt x="230" y="-36" on="0"/>
        <pt x="216" y="-1" on="0"/>
        <pt x="205" y="8" on="0"/>
        <pt x="177" y="19" on="0"/>
        <pt x="171" y="28" on="1"/>
        <pt x="166" y="37" on="0"/>
        <pt x="162" y="66" on="0"/>
        <pt x="154" y="79" on="0"/>
        <pt x="144" y="86" on="1"/>
        <pt x="122" y="104" on="0"/>
        <pt x="122" y="124" on="1"/>
        <pt x="125" y="149" on="1"/>
        <pt x="125" y="158" on="0"/>
        <pt x="100" y="193" on="0"/>
        <pt x="100" y="211" on="0"/>
        <pt x="112" y="240" on="0"/>
        <pt x="112" y="257" on="0"/>
        <pt x="100" y="283" on="0"/>
        <pt x="100" y="301" on="0"/>
        <pt x="125" y="342" on="0"/>
        <pt x="125" y="351" on="1"/>
        <pt x="124" y="376" on="1"/>
        <pt x="124" y="391" on="0"/>
        <pt x="157" y="420" on="0"/>
        <pt x="162" y="430" on="0"/>
        <pt x="166" y="462" on="0"/>
        <pt x="174" y="474" on="0"/>
        <pt x="205" y="486" on="0"/>
        <pt x="215" y="496" on="0"/>
        <pt x="229" y="527" on="0"/>
        <pt x="242" y="538" on="0"/>
        <pt x="280" y="546" on="0"/>
        <pt x="291" y="552" on="0"/>
        <pt x="321" y="586" on="0"/>
        <pt x="335" y="587" on="1"/>
        <pt x="361" y="585" on="1"/>
        <pt x="374" y="585" on="0"/>
        <pt x="405" y="608" on="0"/>
        <pt x="416" y="608" on="1"/>
        <pt x="460" y="596" on="1"/>
        <pt x="505" y="608" on="1"/>
        <pt x="518" y="608" on="0"/>
        <pt x="550" y="583" on="0"/>
        <pt x="562" y="583" on="1"/>
        <pt x="590" y="586" on="1"/>
        <pt x="606" y="586" on="0"/>
        <pt x="632" y="553" on="0"/>
        <pt x="645" y="546" on="0"/>
        <pt x="675" y="540" on="0"/>
        <pt x="690" y="530" on="0"/>
        <pt x="700" y="502" on="0"/>
        <pt x="711" y="492" on="0"/>
        <pt x="751" y="471" on="0"/>
        <pt x="760" y="455" on="0"/>
        <pt x="761" y="423" on="0"/>
        <pt x="766" y="414" on="0"/>
        <pt x="800" y="385" on="0"/>
        <pt x="800" y="369" on="1"/>
        <pt x="799" y="344" on="1"/>
        <pt x="799" y="331" on="0"/>
        <pt x="823" y="294" on="0"/>
        <pt x="823" y="276" on="0"/>
        <pt x="812" y="250" on="0"/>
        <pt x="812" y="236" on="0"/>
        <pt x="823" y="207" on="0"/>
        <pt x="822" y="191" on="0"/>
        <pt x="798" y="166" on="0"/>
        <pt x="798" y="152" on="1"/>
        <pt x="800" y="120" on="1"/>
        <pt x="800" y="104" on="0"/>
        <pt x="768" y="78" on="0"/>
        <pt x="763" y="68" on="0"/>
        <pt x="754" y="30" on="0"/>
        <pt x="743" y="17" on="0"/>
        <pt x="718" y="6" on="0"/>
        <pt x="708" y="-4" on="0"/>
        <pt x="690" y="-37" on="0"/>
        <pt x="676" y="-47" on="0"/>
        <pt x="641" y="-56" on="0"/>
        <pt x="631" y="-62" on="0"/>
        <pt x="604" y="-89" on="0"/>
      </contour>
      <contour>
        <pt x="462" y="-6" on="1"/>
        <pt x="495" y="-13" on="1"/>
        <pt x="501" y="-13" on="0"/>
        <pt x="512" y="-6" on="1"/>
        <pt x="527" y="4" on="0"/>
        <pt x="539" y="4" on="1"/>
        <pt x="554" y="3" on="1"/>
        <pt x="566" y="3" on="0"/>
        <pt x="584" y="23" on="0"/>
        <pt x="591" y="27" on="0"/>
        <pt x="617" y="34" on="0"/>
        <pt x="628" y="42" on="0"/>
        <pt x="641" y="65" on="0"/>
        <pt x="648" y="72" on="0"/>
        <pt x="666" y="80" on="0"/>
        <pt x="674" y="89" on="0"/>
        <pt x="680" y="117" on="0"/>
        <pt x="685" y="125" on="0"/>
        <pt x="707" y="143" on="0"/>
        <pt x="707" y="157" on="1"/>
        <pt x="706" y="177" on="1"/>
        <pt x="706" y="188" on="0"/>
        <pt x="723" y="207" on="0"/>
        <pt x="724" y="213" on="1"/>
        <pt x="716" y="245" on="1"/>
        <pt x="724" y="273" on="1"/>
        <pt x="724" y="281" on="0"/>
        <pt x="706" y="309" on="0"/>
        <pt x="706" y="318" on="1"/>
        <pt x="707" y="335" on="1"/>
        <pt x="707" y="347" on="0"/>
        <pt x="683" y="367" on="0"/>
        <pt x="679" y="375" on="0"/>
        <pt x="678" y="398" on="0"/>
        <pt x="672" y="409" on="0"/>
        <pt x="643" y="424" on="0"/>
        <pt x="635" y="432" on="0"/>
        <pt x="627" y="452" on="0"/>
        <pt x="617" y="460" on="0"/>
        <pt x="595" y="464" on="0"/>
        <pt x="585" y="469" on="0"/>
        <pt x="567" y="493" on="0"/>
        <pt x="555" y="493" on="1"/>
        <pt x="535" y="491" on="1"/>
        <pt x="526" y="491" on="0"/>
        <pt x="504" y="509" on="0"/>
        <pt x="494" y="509" on="1"/>
        <pt x="461" y="500" on="1"/>
        <pt x="429" y="509" on="1"/>
        <pt x="421" y="509" on="0"/>
        <pt x="397" y="492" on="0"/>
        <pt x="387" y="492" on="1"/>
        <pt x="370" y="493" on="1"/>
        <pt x="359" y="493" on="0"/>
        <pt x="338" y="468" on="0"/>
        <pt x="329" y="463" on="0"/>
        <pt x="303" y="458" on="0"/>
        <pt x="293" y="450" on="0"/>
        <pt x="283" y="428" on="0"/>
        <pt x="275" y="420" on="0"/>
        <pt x="254" y="412" on="0"/>
        <pt x="250" y="407" on="1"/>
        <pt x="248" y="403" on="0"/>
        <pt x="244" y="380" on="0"/>
        <pt x="240" y="372" on="0"/>
        <pt x="216" y="351" on="0"/>
        <pt x="216" y="340" on="1"/>
        <pt x="217" y="324" on="1"/>
        <pt x="217" y="316" on="0"/>
        <pt x="200" y="286" on="0"/>
        <pt x="200" y="278" on="1"/>
        <pt x="208" y="248" on="1"/>
        <pt x="200" y="215" on="1"/>
        <pt x="200" y="207" on="0"/>
        <pt x="217" y="182" on="0"/>
        <pt x="217" y="174" on="1"/>
        <pt x="215" y="158" on="1"/>
        <pt x="215" y="147" on="0"/>
        <pt x="240" y="124" on="0"/>
        <pt x="244" y="116" on="0"/>
        <pt x="247" y="95" on="0"/>
        <pt x="255" y="82" on="0"/>
        <pt x="275" y="74" on="0"/>
        <pt x="283" y="67" on="0"/>
        <pt x="294" y="41" on="0"/>
        <pt x="306" y="33" on="0"/>
        <pt x="325" y="33" on="0"/>
        <pt x="337" y="27" on="0"/>
        <pt x="360" y="2" on="0"/>
        <pt x="371" y="2" on="1"/>
        <pt x="386" y="3" on="1"/>
        <pt x="396" y="3" on="0"/>
        <pt x="420" y="-14" on="0"/>
        <pt x="426" y="-15" on="1"/>
      </contour>
      <contour>
        <pt x="392" y="417" on="0"/>
        <pt x="532" y="417" on="0"/>
        <pt x="632" y="318" on="0"/>
        <pt x="632" y="176" on="0"/>
        <pt x="532" y="77" on="0"/>
        <pt x="392" y="77" on="0"/>
        <pt x="292" y="176" on="0"/>
        <pt x="292" y="318" on="0"/>
      </contour>
      <contour>
        <pt x="505" y="292" on="1"/>
        <pt x="557" y="292" on="1"/>
        <pt x="557" y="360" on="1"/>
        <pt x="366" y="360" on="1"/>
        <pt x="366" y="292" on="1"/>
        <pt x="420" y="292" on="1"/>
        <pt x="420" y="117" on="1"/>
        <pt x="505" y="117" on="1"/>
      </contour>
    </TTGlyph>
    <TTGlyph name="approxequal" xMin="107" yMin="135" xMax="462" yMax="488">
      <contour>
        <pt x="107" y="253" on="1"/>
        <pt x="141" y="215" on="0"/>
        <pt x="216" y="215" on="0"/>
        <pt x="352" y="290" on="0"/>
        <pt x="428" y="290" on="0"/>
        <pt x="462" y="253" on="1"/>
        <pt x="462" y="173" on="1"/>
        <pt x="428" y="210" on="0"/>
        <pt x="352" y="210" on="0"/>
        <pt x="216" y="135" on="0"/>
        <pt x="141" y="135" on="0"/>
        <pt x="107" y="173" on="1"/>
      </contour>
      <contour>
        <pt x="107" y="451" on="1"/>
        <pt x="141" y="413" on="0"/>
        <pt x="216" y="413" on="0"/>
        <pt x="352" y="488" on="0"/>
        <pt x="428" y="488" on="0"/>
        <pt x="462" y="451" on="1"/>
        <pt x="462" y="371" on="1"/>
        <pt x="428" y="408" on="0"/>
        <pt x="352" y="408" on="0"/>
        <pt x="216" y="333" on="0"/>
        <pt x="141" y="333" on="0"/>
        <pt x="107" y="371" on="1"/>
      </contour>
    </TTGlyph>
    <TTGlyph name="aring" xMin="55" yMin="-10" xMax="448" yMax="736">
      <contour>
        <pt x="156" y="81" on="1"/>
        <pt x="270" y="81" on="1"/>
        <pt x="314" y="81" on="0"/>
        <pt x="349" y="103" on="0"/>
        <pt x="349" y="139" on="1"/>
        <pt x="349" y="228" on="1"/>
        <pt x="235" y="228" on="1"/>
        <pt x="191" y="228" on="0"/>
        <pt x="156" y="206" on="0"/>
        <pt x="156" y="170" on="1"/>
      </contour>
      <contour>
        <pt x="201" y="-10" on="1"/>
        <pt x="55" y="-10" on="0"/>
        <pt x="55" y="145" on="1"/>
        <pt x="55" y="235" on="0"/>
        <pt x="172" y="312" on="0"/>
        <pt x="285" y="312" on="1"/>
        <pt x="349" y="312" on="1"/>
        <pt x="349" y="412" on="1"/>
        <pt x="318" y="416" on="0"/>
        <pt x="274" y="416" on="1"/>
        <pt x="172" y="416" on="0"/>
        <pt x="112" y="395" on="1"/>
        <pt x="100" y="479" on="1"/>
        <pt x="193" y="510" on="0"/>
        <pt x="364" y="510" on="0"/>
        <pt x="448" y="453" on="0"/>
        <pt x="448" y="369" on="1"/>
        <pt x="448" y="0" on="1"/>
        <pt x="402" y="0" on="1"/>
        <pt x="375" y="50" on="1"/>
        <pt x="308" y="-10" on="0"/>
      </contour>
      <contour>
        <pt x="178" y="588" on="0"/>
        <pt x="178" y="688" on="0"/>
        <pt x="225" y="736" on="0"/>
        <pt x="329" y="736" on="0"/>
        <pt x="375" y="688" on="0"/>
        <pt x="375" y="588" on="0"/>
        <pt x="329" y="539" on="0"/>
        <pt x="225" y="539" on="0"/>
      </contour>
      <contour>
        <pt x="234" y="659" on="1"/>
        <pt x="234" y="591" on="1"/>
        <pt x="276" y="591" on="1"/>
        <pt x="291" y="591" on="0"/>
        <pt x="298" y="592" on="1"/>
        <pt x="318" y="595" on="0"/>
        <pt x="318" y="617" on="1"/>
        <pt x="318" y="684" on="1"/>
        <pt x="279" y="684" on="1"/>
        <pt x="249" y="684" on="0"/>
        <pt x="234" y="670" on="0"/>
      </contour>
    </TTGlyph>
    <TTGlyph name="aringacute" xMin="55" yMin="-10" xMax="448" yMax="790">
      <contour>
        <pt x="156" y="81" on="1"/>
        <pt x="270" y="81" on="1"/>
        <pt x="314" y="81" on="0"/>
        <pt x="349" y="103" on="0"/>
        <pt x="349" y="139" on="1"/>
        <pt x="349" y="228" on="1"/>
        <pt x="235" y="228" on="1"/>
        <pt x="191" y="228" on="0"/>
        <pt x="156" y="206" on="0"/>
        <pt x="156" y="170" on="1"/>
      </contour>
      <contour>
        <pt x="201" y="-10" on="1"/>
        <pt x="55" y="-10" on="0"/>
        <pt x="55" y="145" on="1"/>
        <pt x="55" y="235" on="0"/>
        <pt x="172" y="312" on="0"/>
        <pt x="285" y="312" on="1"/>
        <pt x="349" y="312" on="1"/>
        <pt x="349" y="412" on="1"/>
        <pt x="318" y="416" on="0"/>
        <pt x="274" y="416" on="1"/>
        <pt x="172" y="416" on="0"/>
        <pt x="112" y="395" on="1"/>
        <pt x="100" y="479" on="1"/>
        <pt x="193" y="510" on="0"/>
        <pt x="364" y="510" on="0"/>
        <pt x="448" y="453" on="0"/>
        <pt x="448" y="369" on="1"/>
        <pt x="448" y="0" on="1"/>
        <pt x="402" y="0" on="1"/>
        <pt x="375" y="50" on="1"/>
        <pt x="308" y="-10" on="0"/>
      </contour>
      <contour>
        <pt x="179" y="588" on="0"/>
        <pt x="179" y="688" on="0"/>
        <pt x="226" y="736" on="0"/>
        <pt x="278" y="736" on="1"/>
        <pt x="305" y="736" on="0"/>
        <pt x="327" y="728" on="1"/>
        <pt x="395" y="786" on="1"/>
        <pt x="400" y="790" on="0"/>
        <pt x="407" y="790" on="0"/>
        <pt x="411" y="785" on="1"/>
        <pt x="440" y="749" on="1"/>
        <pt x="446" y="741" on="0"/>
        <pt x="446" y="734" on="0"/>
        <pt x="442" y="730" on="1"/>
        <pt x="412" y="705" on="1"/>
        <pt x="403" y="698" on="0"/>
        <pt x="390" y="695" on="1"/>
        <pt x="366" y="691" on="1"/>
        <pt x="376" y="671" on="0"/>
        <pt x="376" y="588" on="0"/>
        <pt x="330" y="539" on="0"/>
        <pt x="226" y="539" on="0"/>
      </contour>
      <contour>
        <pt x="235" y="659" on="1"/>
        <pt x="235" y="591" on="1"/>
        <pt x="277" y="591" on="1"/>
        <pt x="292" y="591" on="0"/>
        <pt x="300" y="592" on="1"/>
        <pt x="319" y="595" on="0"/>
        <pt x="319" y="617" on="1"/>
        <pt x="319" y="684" on="1"/>
        <pt x="280" y="684" on="1"/>
        <pt x="250" y="684" on="0"/>
        <pt x="235" y="670" on="0"/>
      </contour>
    </TTGlyph>
    <TTGlyph name="asciicircum" xMin="77" yMin="218" xMax="494" yMax="578">
      <contour>
        <pt x="245" y="578" on="1"/>
        <pt x="326" y="578" on="1"/>
        <pt x="494" y="256" on="1"/>
        <pt x="419" y="218" on="1"/>
        <pt x="291" y="482" on="1"/>
        <pt x="280" y="482" on="1"/>
        <pt x="152" y="218" on="1"/>
        <pt x="77" y="256" on="1"/>
      </contour>
    </TTGlyph>
    <TTGlyph name="asciitilde" xMin="107" yMin="235" xMax="462" yMax="390">
      <contour>
        <pt x="462" y="273" on="1"/>
        <pt x="428" y="235" on="0"/>
        <pt x="352" y="235" on="0"/>
        <pt x="216" y="310" on="0"/>
        <pt x="141" y="310" on="0"/>
        <pt x="107" y="273" on="1"/>
        <pt x="107" y="353" on="1"/>
        <pt x="141" y="390" on="0"/>
        <pt x="216" y="390" on="0"/>
        <pt x="352" y="315" on="0"/>
        <pt x="428" y="315" on="0"/>
        <pt x="462" y="353" on="1"/>
      </contour>
    </TTGlyph>
    <TTGlyph name="asterisk" xMin="66" yMin="273" xMax="464" yMax="655">
      <contour>
        <pt x="428" y="561" on="1"/>
        <pt x="440" y="561" on="0"/>
        <pt x="447" y="543" on="1"/>
        <pt x="461" y="499" on="1"/>
        <pt x="464" y="490" on="0"/>
        <pt x="464" y="467" on="0"/>
        <pt x="449" y="462" on="1"/>
        <pt x="412" y="450" on="1"/>
        <pt x="318" y="438" on="1"/>
        <pt x="388" y="374" on="1"/>
        <pt x="411" y="342" on="1"/>
        <pt x="416" y="335" on="0"/>
        <pt x="416" y="317" on="0"/>
        <pt x="400" y="306" on="1"/>
        <pt x="367" y="282" on="1"/>
        <pt x="354" y="273" on="0"/>
        <pt x="336" y="273" on="0"/>
        <pt x="329" y="282" on="1"/>
        <pt x="306" y="314" on="1"/>
        <pt x="265" y="402" on="1"/>
        <pt x="224" y="314" on="1"/>
        <pt x="201" y="282" on="1"/>
        <pt x="194" y="273" on="0"/>
        <pt x="176" y="273" on="0"/>
        <pt x="163" y="282" on="1"/>
        <pt x="130" y="306" on="1"/>
        <pt x="114" y="317" on="0"/>
        <pt x="114" y="335" on="0"/>
        <pt x="119" y="342" on="1"/>
        <pt x="142" y="374" on="1"/>
        <pt x="211" y="439" on="1"/>
        <pt x="118" y="450" on="1"/>
        <pt x="81" y="462" on="1"/>
        <pt x="66" y="467" on="0"/>
        <pt x="66" y="490" on="0"/>
        <pt x="69" y="499" on="1"/>
        <pt x="83" y="543" on="1"/>
        <pt x="90" y="561" on="0"/>
        <pt x="102" y="561" on="1"/>
        <pt x="105" y="561" on="0"/>
        <pt x="113" y="559" on="1"/>
        <pt x="150" y="547" on="1"/>
        <pt x="233" y="501" on="1"/>
        <pt x="215" y="593" on="1"/>
        <pt x="215" y="632" on="1"/>
        <pt x="215" y="655" on="0"/>
        <pt x="246" y="655" on="1"/>
        <pt x="286" y="655" on="1"/>
        <pt x="317" y="655" on="0"/>
        <pt x="317" y="632" on="1"/>
        <pt x="317" y="593" on="1"/>
        <pt x="299" y="502" on="1"/>
        <pt x="380" y="547" on="1"/>
        <pt x="417" y="559" on="1"/>
        <pt x="425" y="561" on="0"/>
      </contour>
    </TTGlyph>
    <TTGlyph name="at" xMin="90" yMin="-165" xMax="746" yMax="580">
      <contour>
        <pt x="467" y="207" on="1"/>
        <pt x="467" y="81" on="1"/>
        <pt x="578" y="81" on="1"/>
        <pt x="622" y="81" on="0"/>
        <pt x="647" y="101" on="0"/>
        <pt x="647" y="117" on="1"/>
        <pt x="647" y="249" on="1"/>
        <pt x="536" y="249" on="1"/>
        <pt x="500" y="249" on="0"/>
        <pt x="467" y="234" on="0"/>
      </contour>
      <contour>
        <pt x="90" y="178" on="1"/>
        <pt x="90" y="259" on="1"/>
        <pt x="90" y="444" on="0"/>
        <pt x="188" y="515" on="1"/>
        <pt x="277" y="580" on="0"/>
        <pt x="598" y="580" on="0"/>
        <pt x="746" y="490" on="0"/>
        <pt x="746" y="393" on="1"/>
        <pt x="746" y="0" on="1"/>
        <pt x="691" y="0" on="1"/>
        <pt x="660" y="53" on="1"/>
        <pt x="601" y="-9" on="0"/>
        <pt x="500" y="-9" on="1"/>
        <pt x="361" y="-9" on="0"/>
        <pt x="361" y="159" on="1"/>
        <pt x="361" y="251" on="0"/>
        <pt x="459" y="325" on="0"/>
        <pt x="577" y="325" on="1"/>
        <pt x="647" y="325" on="1"/>
        <pt x="647" y="473" on="1"/>
        <pt x="582" y="483" on="0"/>
        <pt x="425" y="483" on="0"/>
        <pt x="376" y="480" on="0"/>
        <pt x="310" y="470" on="0"/>
        <pt x="266" y="447" on="0"/>
        <pt x="246" y="429" on="1"/>
        <pt x="205" y="393" on="0"/>
        <pt x="205" y="310" on="1"/>
        <pt x="205" y="84" on="1"/>
        <pt x="205" y="39" on="0"/>
        <pt x="231" y="-25" on="0"/>
        <pt x="269" y="-58" on="0"/>
        <pt x="302" y="-67" on="1"/>
        <pt x="348" y="-80" on="0"/>
        <pt x="427" y="-80" on="1"/>
        <pt x="620" y="-80" on="1"/>
        <pt x="620" y="-148" on="1"/>
        <pt x="530" y="-165" on="0"/>
        <pt x="454" y="-165" on="1"/>
        <pt x="263" y="-165" on="0"/>
        <pt x="90" y="-13" on="0"/>
      </contour>
    </TTGlyph>
    <TTGlyph name="atilde" xMin="55" yMin="-10" xMax="448" yMax="690">
      <contour>
        <pt x="156" y="81" on="1"/>
        <pt x="270" y="81" on="1"/>
        <pt x="314" y="81" on="0"/>
        <pt x="349" y="103" on="0"/>
        <pt x="349" y="139" on="1"/>
        <pt x="349" y="228" on="1"/>
        <pt x="235" y="228" on="1"/>
        <pt x="191" y="228" on="0"/>
        <pt x="156" y="206" on="0"/>
        <pt x="156" y="170" on="1"/>
      </contour>
      <contour>
        <pt x="201" y="-10" on="1"/>
        <pt x="55" y="-10" on="0"/>
        <pt x="55" y="145" on="1"/>
        <pt x="55" y="235" on="0"/>
        <pt x="172" y="312" on="0"/>
        <pt x="285" y="312" on="1"/>
        <pt x="349" y="312" on="1"/>
        <pt x="349" y="412" on="1"/>
        <pt x="318" y="416" on="0"/>
        <pt x="274" y="416" on="1"/>
        <pt x="172" y="416" on="0"/>
        <pt x="112" y="395" on="1"/>
        <pt x="100" y="479" on="1"/>
        <pt x="193" y="510" on="0"/>
        <pt x="364" y="510" on="0"/>
        <pt x="448" y="453" on="0"/>
        <pt x="448" y="369" on="1"/>
        <pt x="448" y="0" on="1"/>
        <pt x="402" y="0" on="1"/>
        <pt x="375" y="50" on="1"/>
        <pt x="308" y="-10" on="0"/>
      </contour>
      <contour>
        <pt x="334" y="579" on="0"/>
        <pt x="300" y="564" on="0"/>
        <pt x="260" y="564" on="0"/>
        <pt x="228" y="595" on="1"/>
        <pt x="213" y="607" on="1"/>
        <pt x="147" y="574" on="1"/>
        <pt x="116" y="625" on="1"/>
        <pt x="146" y="646" on="1"/>
        <pt x="191" y="675" on="0"/>
        <pt x="223" y="690" on="0"/>
        <pt x="262" y="690" on="0"/>
        <pt x="296" y="659" on="1"/>
        <pt x="311" y="647" on="1"/>
        <pt x="377" y="680" on="1"/>
        <pt x="408" y="629" on="1"/>
        <pt x="378" y="608" on="1"/>
      </contour>
    </TTGlyph>
    <TTGlyph name="b" xMin="90" yMin="-10" xMax="495" yMax="665">
      <contour>
        <pt x="333" y="510" on="1"/>
        <pt x="424" y="510" on="0"/>
        <pt x="495" y="404" on="0"/>
        <pt x="495" y="101" on="0"/>
        <pt x="401" y="-10" on="0"/>
        <pt x="159" y="-10" on="0"/>
        <pt x="90" y="18" on="1"/>
        <pt x="90" y="655" on="1"/>
        <pt x="180" y="665" on="1"/>
        <pt x="180" y="456" on="1"/>
        <pt x="208" y="479" on="0"/>
        <pt x="294" y="510" on="0"/>
      </contour>
      <contour>
        <pt x="190" y="81" on="1"/>
        <pt x="307" y="81" on="1"/>
        <pt x="351" y="81" on="0"/>
        <pt x="386" y="103" on="0"/>
        <pt x="386" y="139" on="1"/>
        <pt x="386" y="409" on="1"/>
        <pt x="269" y="409" on="1"/>
        <pt x="225" y="409" on="0"/>
        <pt x="190" y="387" on="0"/>
        <pt x="190" y="351" on="1"/>
      </contour>
    </TTGlyph>
    <TTGlyph name="backslash" xMin="0" yMin="-40" xMax="413" yMax="665">
      <contour>
        <pt x="41" y="665" on="1"/>
        <pt x="60" y="665" on="0"/>
        <pt x="76" y="654" on="0"/>
        <pt x="84" y="640" on="1"/>
        <pt x="413" y="-40" on="1"/>
        <pt x="372" y="-40" on="1"/>
        <pt x="353" y="-40" on="0"/>
        <pt x="337" y="-29" on="0"/>
        <pt x="329" y="-15" on="1"/>
        <pt x="0" y="665" on="1"/>
      </contour>
    </TTGlyph>
    <TTGlyph name="bar" xMin="100" yMin="-180" xMax="164" yMax="704">
      <contour>
        <pt x="100" y="-180" on="1"/>
        <pt x="100" y="704" on="1"/>
        <pt x="164" y="704" on="1"/>
        <pt x="164" y="-180" on="1"/>
      </contour>
    </TTGlyph>
    <TTGlyph name="braceleft" xMin="40" yMin="-96" xMax="266" yMax="660">
      <contour>
        <pt x="201" y="152" on="1"/>
        <pt x="183" y="-12" on="1"/>
        <pt x="266" y="-19" on="1"/>
        <pt x="260" y="-96" on="1"/>
        <pt x="162" y="-96" on="0"/>
        <pt x="90" y="-61" on="0"/>
        <pt x="90" y="9" on="1"/>
        <pt x="105" y="229" on="1"/>
        <pt x="40" y="245" on="1"/>
        <pt x="40" y="317" on="1"/>
        <pt x="105" y="333" on="1"/>
        <pt x="90" y="555" on="1"/>
        <pt x="90" y="625" on="0"/>
        <pt x="157" y="660" on="0"/>
        <pt x="260" y="660" on="1"/>
        <pt x="266" y="583" on="1"/>
        <pt x="263" y="583" on="0"/>
        <pt x="183" y="576" on="1"/>
        <pt x="201" y="410" on="1"/>
        <pt x="201" y="320" on="0"/>
        <pt x="145" y="287" on="1"/>
        <pt x="145" y="275" on="1"/>
        <pt x="201" y="242" on="0"/>
      </contour>
    </TTGlyph>
    <TTGlyph name="braceright" xMin="30" yMin="-96" xMax="256" yMax="660">
      <contour>
        <pt x="95" y="412" on="1"/>
        <pt x="113" y="576" on="1"/>
        <pt x="30" y="583" on="1"/>
        <pt x="36" y="660" on="1"/>
        <pt x="134" y="660" on="0"/>
        <pt x="206" y="625" on="0"/>
        <pt x="206" y="555" on="1"/>
        <pt x="191" y="335" on="1"/>
        <pt x="256" y="319" on="1"/>
        <pt x="256" y="247" on="1"/>
        <pt x="191" y="231" on="1"/>
        <pt x="206" y="9" on="1"/>
        <pt x="206" y="-61" on="0"/>
        <pt x="139" y="-96" on="0"/>
        <pt x="36" y="-96" on="1"/>
        <pt x="30" y="-19" on="1"/>
        <pt x="33" y="-19" on="0"/>
        <pt x="113" y="-12" on="1"/>
        <pt x="95" y="154" on="1"/>
        <pt x="95" y="244" on="0"/>
        <pt x="151" y="277" on="1"/>
        <pt x="151" y="289" on="1"/>
        <pt x="95" y="322" on="0"/>
      </contour>
    </TTGlyph>
    <TTGlyph name="bracketleft" xMin="70" yMin="-96" xMax="249" yMax="660">
      <contour>
        <pt x="70" y="9" on="1"/>
        <pt x="70" y="555" on="1"/>
        <pt x="70" y="636" on="0"/>
        <pt x="141" y="652" on="1"/>
        <pt x="180" y="660" on="0"/>
        <pt x="242" y="660" on="1"/>
        <pt x="249" y="583" on="1"/>
        <pt x="246" y="583" on="0"/>
        <pt x="166" y="575" on="1"/>
        <pt x="166" y="-11" on="1"/>
        <pt x="249" y="-19" on="1"/>
        <pt x="242" y="-96" on="1"/>
        <pt x="133" y="-96" on="0"/>
        <pt x="102" y="-71" on="1"/>
        <pt x="70" y="-45" on="0"/>
      </contour>
    </TTGlyph>
    <TTGlyph name="bracketright" xMin="30" yMin="-96" xMax="209" yMax="660">
      <contour>
        <pt x="209" y="555" on="1"/>
        <pt x="209" y="9" on="1"/>
        <pt x="209" y="-72" on="0"/>
        <pt x="138" y="-88" on="1"/>
        <pt x="99" y="-96" on="0"/>
        <pt x="37" y="-96" on="1"/>
        <pt x="30" y="-19" on="1"/>
        <pt x="33" y="-19" on="0"/>
        <pt x="113" y="-11" on="1"/>
        <pt x="113" y="575" on="1"/>
        <pt x="30" y="583" on="1"/>
        <pt x="37" y="660" on="1"/>
        <pt x="146" y="660" on="0"/>
        <pt x="176" y="635" on="1"/>
        <pt x="209" y="609" on="0"/>
      </contour>
    </TTGlyph>
    <TTGlyph name="breve" xMin="74" yMin="567" xMax="310" yMax="686">
      <contour>
        <pt x="175" y="640" on="0"/>
        <pt x="209" y="640" on="0"/>
        <pt x="239" y="664" on="0"/>
        <pt x="245" y="686" on="1"/>
        <pt x="310" y="675" on="1"/>
        <pt x="297" y="621" on="0"/>
        <pt x="235" y="567" on="0"/>
        <pt x="192" y="567" on="1"/>
        <pt x="97" y="567" on="0"/>
        <pt x="74" y="675" on="1"/>
        <pt x="139" y="686" on="1"/>
        <pt x="145" y="664" on="0"/>
      </contour>
    </TTGlyph>
    <TTGlyph name="brokenbar" xMin="100" yMin="-180" xMax="164" yMax="704">
      <contour>
        <pt x="100" y="368" on="1"/>
        <pt x="100" y="704" on="1"/>
        <pt x="164" y="704" on="1"/>
        <pt x="164" y="368" on="1"/>
      </contour>
      <contour>
        <pt x="100" y="-180" on="1"/>
        <pt x="100" y="156" on="1"/>
        <pt x="164" y="156" on="1"/>
        <pt x="164" y="-180" on="1"/>
      </contour>
    </TTGlyph>
    <TTGlyph name="bullet" xMin="65" yMin="241" xMax="217" yMax="389">
      <contour>
        <pt x="96" y="241" on="0"/>
        <pt x="65" y="273" on="0"/>
        <pt x="65" y="356" on="0"/>
        <pt x="96" y="389" on="0"/>
        <pt x="186" y="389" on="0"/>
        <pt x="217" y="355" on="0"/>
        <pt x="217" y="273" on="0"/>
        <pt x="186" y="241" on="0"/>
      </contour>
    </TTGlyph>
    <TTGlyph name="c" xMin="68" yMin="-10" xMax="387" yMax="510">
      <contour>
        <pt x="387" y="10" on="1"/>
        <pt x="327" y="-10" on="0"/>
        <pt x="182" y="-10" on="0"/>
        <pt x="104" y="33" on="0"/>
        <pt x="68" y="144" on="0"/>
        <pt x="68" y="250" on="1"/>
        <pt x="68" y="404" on="0"/>
        <pt x="155" y="510" on="0"/>
        <pt x="268" y="510" on="1"/>
        <pt x="331" y="510" on="0"/>
        <pt x="385" y="492" on="1"/>
        <pt x="363" y="408" on="1"/>
        <pt x="302" y="419" on="0"/>
        <pt x="266" y="419" on="1"/>
        <pt x="177" y="419" on="0"/>
        <pt x="177" y="347" on="1"/>
        <pt x="177" y="82" on="1"/>
        <pt x="215" y="77" on="0"/>
        <pt x="317" y="77" on="0"/>
        <pt x="375" y="95" on="1"/>
      </contour>
    </TTGlyph>
    <TTGlyph name="cacute" xMin="68" yMin="-10" xMax="387" yMax="712">
      <contour>
        <pt x="387" y="10" on="1"/>
        <pt x="327" y="-10" on="0"/>
        <pt x="182" y="-10" on="0"/>
        <pt x="104" y="33" on="0"/>
        <pt x="68" y="144" on="0"/>
        <pt x="68" y="250" on="1"/>
        <pt x="68" y="404" on="0"/>
        <pt x="155" y="510" on="0"/>
        <pt x="268" y="510" on="1"/>
        <pt x="331" y="510" on="0"/>
        <pt x="385" y="492" on="1"/>
        <pt x="363" y="408" on="1"/>
        <pt x="302" y="419" on="0"/>
        <pt x="266" y="419" on="1"/>
        <pt x="177" y="419" on="0"/>
        <pt x="177" y="347" on="1"/>
        <pt x="177" y="82" on="1"/>
        <pt x="215" y="77" on="0"/>
        <pt x="317" y="77" on="0"/>
        <pt x="375" y="95" on="1"/>
      </contour>
      <contour>
        <pt x="298" y="708" on="1"/>
        <pt x="303" y="712" on="0"/>
        <pt x="310" y="712" on="0"/>
        <pt x="314" y="707" on="1"/>
        <pt x="358" y="653" on="1"/>
        <pt x="364" y="645" on="0"/>
        <pt x="364" y="638" on="0"/>
        <pt x="360" y="634" on="1"/>
        <pt x="330" y="609" on="1"/>
        <pt x="321" y="602" on="0"/>
        <pt x="308" y="599" on="1"/>
        <pt x="168" y="564" on="1"/>
        <pt x="146" y="598" on="1"/>
      </contour>
    </TTGlyph>
    <TTGlyph name="caron" xMin="59" yMin="560" xMax="325" yMax="716">
      <contour>
        <pt x="201" y="560" on="1"/>
        <pt x="183" y="560" on="1"/>
        <pt x="178" y="560" on="0"/>
        <pt x="173" y="566" on="1"/>
        <pt x="59" y="682" on="1"/>
        <pt x="99" y="716" on="1"/>
        <pt x="192" y="652" on="1"/>
        <pt x="285" y="716" on="1"/>
        <pt x="325" y="682" on="1"/>
        <pt x="211" y="566" on="1"/>
        <pt x="206" y="560" on="0"/>
      </contour>
    </TTGlyph>
    <TTGlyph name="ccaron" xMin="68" yMin="-10" xMax="387" yMax="716">
      <contour>
        <pt x="387" y="10" on="1"/>
        <pt x="327" y="-10" on="0"/>
        <pt x="182" y="-10" on="0"/>
        <pt x="104" y="33" on="0"/>
        <pt x="68" y="144" on="0"/>
        <pt x="68" y="250" on="1"/>
        <pt x="68" y="404" on="0"/>
        <pt x="155" y="510" on="0"/>
        <pt x="268" y="510" on="1"/>
        <pt x="331" y="510" on="0"/>
        <pt x="385" y="492" on="1"/>
        <pt x="363" y="408" on="1"/>
        <pt x="302" y="419" on="0"/>
        <pt x="266" y="419" on="1"/>
        <pt x="177" y="419" on="0"/>
        <pt x="177" y="347" on="1"/>
        <pt x="177" y="82" on="1"/>
        <pt x="215" y="77" on="0"/>
        <pt x="317" y="77" on="0"/>
        <pt x="375" y="95" on="1"/>
      </contour>
      <contour>
        <pt x="258" y="560" on="1"/>
        <pt x="240" y="560" on="1"/>
        <pt x="234" y="560" on="0"/>
        <pt x="230" y="566" on="1"/>
        <pt x="116" y="682" on="1"/>
        <pt x="156" y="716" on="1"/>
        <pt x="249" y="652" on="1"/>
        <pt x="342" y="716" on="1"/>
        <pt x="382" y="682" on="1"/>
        <pt x="268" y="566" on="1"/>
        <pt x="264" y="560" on="0"/>
      </contour>
    </TTGlyph>
    <TTGlyph name="ccedilla" xMin="68" yMin="-165" xMax="387" yMax="510">
      <contour>
        <pt x="221" y="-66" on="1"/>
        <pt x="221" y="-8" on="1"/>
        <pt x="133" y="-2" on="0"/>
        <pt x="68" y="107" on="0"/>
        <pt x="68" y="404" on="0"/>
        <pt x="155" y="510" on="0"/>
        <pt x="268" y="510" on="1"/>
        <pt x="331" y="510" on="0"/>
        <pt x="385" y="492" on="1"/>
        <pt x="363" y="408" on="1"/>
        <pt x="302" y="419" on="0"/>
        <pt x="266" y="419" on="1"/>
        <pt x="177" y="419" on="0"/>
        <pt x="177" y="347" on="1"/>
        <pt x="177" y="82" on="1"/>
        <pt x="215" y="77" on="0"/>
        <pt x="317" y="77" on="0"/>
        <pt x="375" y="95" on="1"/>
        <pt x="387" y="10" on="1"/>
        <pt x="341" y="-6" on="0"/>
        <pt x="276" y="-9" on="1"/>
        <pt x="300" y="-40" on="0"/>
        <pt x="300" y="-117" on="0"/>
        <pt x="251" y="-165" on="0"/>
        <pt x="170" y="-165" on="0"/>
        <pt x="134" y="-149" on="1"/>
        <pt x="143" y="-98" on="1"/>
        <pt x="178" y="-98" on="1"/>
        <pt x="201" y="-98" on="0"/>
        <pt x="221" y="-86" on="0"/>
      </contour>
    </TTGlyph>
    <TTGlyph name="ccircumflex" xMin="68" yMin="-10" xMax="387" yMax="713">
      <contour>
        <pt x="387" y="10" on="1"/>
        <pt x="327" y="-10" on="0"/>
        <pt x="182" y="-10" on="0"/>
        <pt x="104" y="33" on="0"/>
        <pt x="68" y="144" on="0"/>
        <pt x="68" y="250" on="1"/>
        <pt x="68" y="404" on="0"/>
        <pt x="155" y="510" on="0"/>
        <pt x="268" y="510" on="1"/>
        <pt x="331" y="510" on="0"/>
        <pt x="385" y="492" on="1"/>
        <pt x="363" y="408" on="1"/>
        <pt x="302" y="419" on="0"/>
        <pt x="266" y="419" on="1"/>
        <pt x="177" y="419" on="0"/>
        <pt x="177" y="347" on="1"/>
        <pt x="177" y="82" on="1"/>
        <pt x="215" y="77" on="0"/>
        <pt x="317" y="77" on="0"/>
        <pt x="375" y="95" on="1"/>
      </contour>
      <contour>
        <pt x="238" y="713" on="1"/>
        <pt x="256" y="713" on="1"/>
        <pt x="262" y="713" on="0"/>
        <pt x="266" y="707" on="1"/>
        <pt x="380" y="591" on="1"/>
        <pt x="340" y="557" on="1"/>
        <pt x="247" y="621" on="1"/>
        <pt x="154" y="557" on="1"/>
        <pt x="114" y="591" on="1"/>
        <pt x="228" y="707" on="1"/>
        <pt x="232" y="713" on="0"/>
      </contour>
    </TTGlyph>
    <TTGlyph name="cdotaccent" xMin="68" yMin="-10" xMax="387" yMax="705">
      <contour>
        <pt x="387" y="10" on="1"/>
        <pt x="327" y="-10" on="0"/>
        <pt x="182" y="-10" on="0"/>
        <pt x="104" y="33" on="0"/>
        <pt x="68" y="144" on="0"/>
        <pt x="68" y="250" on="1"/>
        <pt x="68" y="404" on="0"/>
        <pt x="155" y="510" on="0"/>
        <pt x="268" y="510" on="1"/>
        <pt x="331" y="510" on="0"/>
        <pt x="385" y="492" on="1"/>
        <pt x="363" y="408" on="1"/>
        <pt x="302" y="419" on="0"/>
        <pt x="266" y="419" on="1"/>
        <pt x="177" y="419" on="0"/>
        <pt x="177" y="347" on="1"/>
        <pt x="177" y="82" on="1"/>
        <pt x="215" y="77" on="0"/>
        <pt x="317" y="77" on="0"/>
        <pt x="375" y="95" on="1"/>
      </contour>
      <contour>
        <pt x="184" y="599" on="0"/>
        <pt x="184" y="675" on="0"/>
        <pt x="211" y="705" on="0"/>
        <pt x="292" y="705" on="0"/>
        <pt x="318" y="675" on="0"/>
        <pt x="318" y="598" on="0"/>
        <pt x="292" y="571" on="0"/>
        <pt x="211" y="571" on="0"/>
      </contour>
    </TTGlyph>
    <TTGlyph name="cedilla" xMin="50" yMin="-165" xMax="216" yMax="21">
      <contour>
        <pt x="137" y="-66" on="1"/>
        <pt x="137" y="21" on="1"/>
        <pt x="156" y="21" on="1"/>
        <pt x="184" y="8" on="0"/>
        <pt x="216" y="-49" on="0"/>
        <pt x="216" y="-117" on="0"/>
        <pt x="167" y="-165" on="0"/>
        <pt x="86" y="-165" on="0"/>
        <pt x="50" y="-149" on="1"/>
        <pt x="59" y="-98" on="1"/>
        <pt x="94" y="-98" on="1"/>
        <pt x="117" y="-98" on="0"/>
        <pt x="137" y="-86" on="0"/>
      </contour>
    </TTGlyph>
    <TTGlyph name="cent" xMin="59" yMin="-64" xMax="354" yMax="600">
      <contour>
        <pt x="59" y="245" on="1"/>
        <pt x="59" y="492" on="0"/>
        <pt x="201" y="513" on="1"/>
        <pt x="206" y="600" on="1"/>
        <pt x="263" y="600" on="1"/>
        <pt x="259" y="514" on="1"/>
        <pt x="301" y="511" on="0"/>
        <pt x="354" y="496" on="1"/>
        <pt x="336" y="421" on="1"/>
        <pt x="249" y="421" on="1"/>
        <pt x="215" y="421" on="0"/>
        <pt x="178" y="387" on="0"/>
        <pt x="175" y="330" on="1"/>
        <pt x="165" y="119" on="1"/>
        <pt x="194" y="116" on="0"/>
        <pt x="284" y="116" on="0"/>
        <pt x="336" y="131" on="1"/>
        <pt x="342" y="56" on="1"/>
        <pt x="295" y="32" on="0"/>
        <pt x="230" y="31" on="1"/>
        <pt x="226" y="-64" on="1"/>
        <pt x="169" y="-64" on="1"/>
        <pt x="174" y="36" on="1"/>
        <pt x="112" y="50" on="0"/>
        <pt x="59" y="154" on="0"/>
      </contour>
    </TTGlyph>
    <TTGlyph name="circumflex" xMin="59" yMin="556" xMax="325" yMax="712">
      <contour>
        <pt x="183" y="712" on="1"/>
        <pt x="201" y="712" on="1"/>
        <pt x="206" y="712" on="0"/>
        <pt x="211" y="706" on="1"/>
        <pt x="325" y="590" on="1"/>
        <pt x="285" y="556" on="1"/>
        <pt x="192" y="620" on="1"/>
        <pt x="99" y="556" on="1"/>
        <pt x="59" y="590" on="1"/>
        <pt x="173" y="706" on="1"/>
        <pt x="177" y="712" on="0"/>
      </contour>
    </TTGlyph>
    <TTGlyph name="colon" xMin="45" yMin="-6" xMax="176" yMax="505">
      <contour>
        <pt x="45" y="29" on="0"/>
        <pt x="45" y="119" on="0"/>
        <pt x="72" y="155" on="0"/>
        <pt x="149" y="155" on="0"/>
        <pt x="176" y="119" on="0"/>
        <pt x="176" y="29" on="0"/>
        <pt x="150" y="-6" on="0"/>
        <pt x="72" y="-6" on="0"/>
      </contour>
      <contour>
        <pt x="45" y="379" on="0"/>
        <pt x="45" y="469" on="0"/>
        <pt x="72" y="505" on="0"/>
        <pt x="149" y="505" on="0"/>
        <pt x="176" y="469" on="0"/>
        <pt x="176" y="379" on="0"/>
        <pt x="150" y="344" on="0"/>
        <pt x="72" y="344" on="0"/>
      </contour>
    </TTGlyph>
    <TTGlyph name="comma" xMin="45" yMin="-132" xMax="176" yMax="155">
      <contour>
        <pt x="62" y="1" on="0"/>
        <pt x="45" y="36" on="0"/>
        <pt x="45" y="119" on="0"/>
        <pt x="72" y="155" on="0"/>
        <pt x="149" y="155" on="0"/>
        <pt x="176" y="119" on="0"/>
        <pt x="176" y="24" on="0"/>
        <pt x="150" y="-31" on="1"/>
        <pt x="103" y="-132" on="1"/>
        <pt x="60" y="-118" on="1"/>
        <pt x="86" y="-4" on="1"/>
      </contour>
    </TTGlyph>
    <TTGlyph name="commaaccent" xMin="30" yMin="-267" xMax="156" yMax="-38">
      <contour>
        <pt x="49" y="-171" on="0"/>
        <pt x="30" y="-146" on="0"/>
        <pt x="30" y="-73" on="0"/>
        <pt x="56" y="-38" on="0"/>
        <pt x="130" y="-38" on="0"/>
        <pt x="156" y="-73" on="0"/>
        <pt x="156" y="-159" on="0"/>
        <pt x="138" y="-199" on="1"/>
        <pt x="107" y="-267" on="1"/>
        <pt x="68" y="-255" on="1"/>
        <pt x="76" y="-173" on="1"/>
      </contour>
    </TTGlyph>
    <TTGlyph name="copyright" xMin="30" yMin="179" xMax="533" yMax="682">
      <contour>
        <pt x="30" y="304" on="0"/>
        <pt x="30" y="558" on="0"/>
        <pt x="149" y="682" on="0"/>
        <pt x="414" y="682" on="0"/>
        <pt x="533" y="558" on="0"/>
        <pt x="533" y="304" on="0"/>
        <pt x="414" y="179" on="0"/>
        <pt x="149" y="179" on="0"/>
      </contour>
      <contour>
        <pt x="163" y="651" on="0"/>
        <pt x="65" y="554" on="0"/>
        <pt x="65" y="307" on="0"/>
        <pt x="163" y="210" on="0"/>
        <pt x="400" y="210" on="0"/>
        <pt x="498" y="307" on="0"/>
        <pt x="498" y="554" on="0"/>
        <pt x="400" y="651" on="0"/>
      </contour>
      <contour>
        <pt x="289" y="274" on="1"/>
        <pt x="219" y="274" on="0"/>
        <pt x="167" y="348" on="0"/>
        <pt x="167" y="512" on="0"/>
        <pt x="219" y="586" on="0"/>
        <pt x="289" y="586" on="1"/>
        <pt x="340" y="586" on="0"/>
        <pt x="369" y="574" on="1"/>
        <pt x="357" y="514" on="1"/>
        <pt x="329" y="521" on="0"/>
        <pt x="271" y="521" on="0"/>
        <pt x="251" y="511" on="0"/>
        <pt x="251" y="497" on="1"/>
        <pt x="251" y="345" on="1"/>
        <pt x="270" y="341" on="0"/>
        <pt x="326" y="341" on="0"/>
        <pt x="363" y="352" on="1"/>
        <pt x="369" y="286" on="1"/>
        <pt x="340" y="274" on="0"/>
      </contour>
    </TTGlyph>
    <TTGlyph name="croatbar" xMin="50" yMin="549" xMax="293" yMax="612">
      <contour>
        <pt x="50" y="549" on="1"/>
        <pt x="50" y="586" on="1"/>
        <pt x="50" y="603" on="0"/>
        <pt x="66" y="612" on="0"/>
        <pt x="88" y="612" on="1"/>
        <pt x="293" y="612" on="1"/>
        <pt x="293" y="574" on="1"/>
        <pt x="293" y="557" on="0"/>
        <pt x="277" y="549" on="0"/>
        <pt x="254" y="549" on="1"/>
      </contour>
    </TTGlyph>
    <TTGlyph name="currency" xMin="20" yMin="34" xMax="538" yMax="592">
      <contour>
        <pt x="89" y="211" on="0"/>
        <pt x="89" y="415" on="0"/>
        <pt x="112" y="453" on="1"/>
        <pt x="20" y="546" on="1"/>
        <pt x="66" y="592" on="1"/>
        <pt x="161" y="496" on="1"/>
        <pt x="202" y="515" on="0"/>
        <pt x="352" y="515" on="0"/>
        <pt x="396" y="496" on="1"/>
        <pt x="492" y="592" on="1"/>
        <pt x="538" y="546" on="1"/>
        <pt x="445" y="453" on="1"/>
        <pt x="468" y="412" on="0"/>
        <pt x="468" y="213" on="0"/>
        <pt x="445" y="173" on="1"/>
        <pt x="538" y="80" on="1"/>
        <pt x="492" y="34" on="1"/>
        <pt x="396" y="130" on="1"/>
        <pt x="355" y="111" on="0"/>
        <pt x="203" y="111" on="0"/>
        <pt x="161" y="129" on="1"/>
        <pt x="66" y="34" on="1"/>
        <pt x="20" y="80" on="1"/>
        <pt x="112" y="172" on="1"/>
      </contour>
      <contour>
        <pt x="197" y="394" on="1"/>
        <pt x="197" y="191" on="1"/>
        <pt x="300" y="191" on="1"/>
        <pt x="332" y="191" on="0"/>
        <pt x="358" y="206" on="0"/>
        <pt x="358" y="232" on="1"/>
        <pt x="358" y="435" on="1"/>
        <pt x="253" y="435" on="1"/>
        <pt x="220" y="435" on="0"/>
        <pt x="197" y="421" on="0"/>
      </contour>
    </TTGlyph>
    <TTGlyph name="d" xMin="68" yMin="-15" xMax="472" yMax="665">
      <contour>
        <pt x="399" y="50" on="1"/>
        <pt x="344" y="-15" on="0"/>
        <pt x="156" y="-15" on="0"/>
        <pt x="68" y="96" on="0"/>
        <pt x="68" y="391" on="0"/>
        <pt x="168" y="500" on="0"/>
        <pt x="288" y="500" on="1"/>
        <pt x="373" y="500" on="1"/>
        <pt x="373" y="653" on="1"/>
        <pt x="472" y="665" on="1"/>
        <pt x="472" y="0" on="1"/>
        <pt x="425" y="0" on="1"/>
      </contour>
      <contour>
        <pt x="177" y="81" on="1"/>
        <pt x="294" y="81" on="1"/>
        <pt x="338" y="81" on="0"/>
        <pt x="373" y="103" on="0"/>
        <pt x="373" y="139" on="1"/>
        <pt x="373" y="408" on="1"/>
        <pt x="256" y="408" on="1"/>
        <pt x="212" y="408" on="0"/>
        <pt x="177" y="386" on="0"/>
        <pt x="177" y="350" on="1"/>
      </contour>
    </TTGlyph>
</ttFont>
